<svg width="100" height="100" viewBox="0 0 100 100" fill="none" xmlns="http://www.w3.org/2000/svg">
<g opacity="0.6" clip-path="url(#clip0_421_119)">
<path d="M37.1547 1.76633C34.0213 3.01971 29.3211 5.3698 26.6577 7.24988C20.7041 11.6367 19.2941 11.6367 15.0639 6.77986C9.4237 0.356285 4.41018 2.23636 4.41018 10.6967C4.41018 15.3968 7.54363 21.1937 11.4604 23.2305C14.4372 24.7972 14.7506 26.0506 14.1239 33.1008C13.4972 39.3677 12.0871 42.6579 8.17032 47.358C0.336695 56.6017 -2.32674 67.8821 2.21676 72.4256C5.66356 75.8724 6.76027 75.5591 11.9305 70.0756L16.474 65.2187L18.1974 73.9924C19.7641 81.9827 19.6074 83.3927 16.944 87.9362C15.2206 90.5996 13.8105 94.5165 13.8105 96.3965C13.8105 99.8433 14.2805 100 27.9111 100H42.0116V92.4797V85.1161H49.8452H57.6788V92.4797V100H71.7794C85.4099 100 85.8799 99.8433 85.8799 96.3965C85.8799 94.5165 84.4698 90.5996 82.7464 87.9362C80.083 83.3927 79.9263 81.9827 81.4931 73.9924L83.2165 65.2187L87.76 70.0756C90.2667 72.739 92.9301 74.9324 93.7135 74.9324C95.9069 74.9324 99.9804 70.2322 99.9804 67.5688C99.9804 61.9286 96.0636 52.5282 91.3634 47.0447C84.9398 39.5244 82.5898 25.5806 87.6033 24.0138C92.9301 22.2904 96.847 11.7934 94.3402 5.3698C93.0868 1.92301 87.9166 2.23636 85.8799 5.83982C83.0598 11.1667 78.9863 11.1667 70.526 5.83982C61.1256 0.0429382 46.5551 -1.68046 37.1547 1.76633ZM68.9593 8.34658C76.6362 13.5168 82.7464 25.5806 82.7464 35.9209C82.7464 41.5612 83.5298 43.7546 86.8199 46.888C94.1835 53.6249 99.3537 68.5088 95.2802 71.0156C94.3402 71.6423 90.8934 68.9788 87.6033 65.2187C80.7097 57.5418 81.6497 56.6017 78.0463 75.4024C76.4795 83.5494 76.4795 84.6461 79.4563 88.4062C85.0965 95.6132 83.9998 96.8665 71.7794 96.8665H60.8123V89.3463V81.9827H49.8452H38.8781V89.3463V96.8665H27.9111C15.6906 96.8665 14.5939 95.6132 20.2341 88.4062C23.2109 84.6461 23.2109 83.5494 21.6442 75.4024C18.0407 56.6017 18.9807 57.5418 12.0871 65.2187C8.79701 68.9788 5.35021 71.6423 4.41018 71.0156C0.336695 68.5088 5.50689 53.6249 12.8705 46.888C16.0039 43.9112 16.944 41.5612 16.944 36.861C16.944 22.2904 25.7176 8.65993 37.3114 4.89979C46.5551 1.92301 61.7523 3.64641 68.9593 8.34658ZM18.0407 18.0603C16.1606 22.4471 14.7506 22.6038 10.6771 18.5303C7.7003 15.5535 6.44692 9.12994 8.48367 7.0932C9.11036 6.46651 11.7738 8.03324 14.5939 10.3833C18.8241 13.9868 19.2941 15.0835 18.0407 18.0603ZM92.1468 10.3833C92.1468 15.2402 88.23 21.6637 85.2532 21.6637C84.1565 21.6637 82.5898 20.097 81.6497 18.2169C80.3963 15.3968 81.023 14.1435 84.9398 10.54C91.0501 4.89979 92.1468 4.89979 92.1468 10.3833Z" fill="#BE05FF"/>
<path d="M48.2784 9.28663C48.2784 10.07 49.0618 10.3833 49.8452 9.91332C50.7852 9.4433 51.4119 8.65994 51.4119 8.18992C51.4119 7.87658 50.7852 7.56323 49.8452 7.56323C49.0618 7.56323 48.2784 8.34659 48.2784 9.28663Z" fill="#BE05FF"/>
<path d="M59.2456 12.2634C59.2456 13.0467 60.029 13.8301 60.8123 13.8301C61.7524 13.8301 62.3791 13.0467 62.3791 12.2634C62.3791 11.3233 61.7524 10.6966 60.8123 10.6966C60.029 10.6966 59.2456 11.3233 59.2456 12.2634Z" fill="#BE05FF"/>
<path d="M38.0947 13.8301C37.6247 14.6135 37.9381 15.3969 38.7214 15.3969C39.6615 15.3969 40.4448 14.6135 40.4448 13.8301C40.4448 12.8901 40.1315 12.2634 39.8181 12.2634C39.3481 12.2634 38.5648 12.8901 38.0947 13.8301Z" fill="#BE05FF"/>
<path d="M55.3287 15.3969C54.8587 16.1803 55.1721 16.9636 55.9554 16.9636C56.8955 16.9636 57.6788 16.1803 57.6788 15.3969C57.6788 14.4569 57.3655 13.8302 57.0521 13.8302C56.5821 13.8302 55.7988 14.4569 55.3287 15.3969Z" fill="#BE05FF"/>
<path d="M63.1624 20.0971C62.6923 20.8805 63.0057 21.6638 63.7891 21.6638C64.7291 21.6638 65.5125 20.8805 65.5125 20.0971C65.5125 19.1571 65.1991 18.5304 64.8858 18.5304C64.4157 18.5304 63.6324 19.1571 63.1624 20.0971Z" fill="#BE05FF"/>
<path d="M30.1045 28.5574C28.5378 32.6308 30.7312 36.0776 34.4913 35.4509C39.6615 34.8243 39.6615 27.304 34.4913 26.6773C32.4546 26.3639 30.5745 27.1473 30.1045 28.5574Z" fill="#BE05FF"/>
<path d="M61.439 28.5574C59.8723 32.6308 62.0657 36.0776 65.8258 35.4509C70.996 34.8243 70.996 27.304 65.8258 26.6773C63.7891 26.3639 61.909 27.1473 61.439 28.5574Z" fill="#BE05FF"/>
<path d="M42.0116 41.8745C42.0116 44.3813 46.8684 48.2981 49.8452 48.2981C52.822 48.2981 57.6788 44.3813 57.6788 41.8745C57.6788 39.5244 55.0154 40.3078 53.9187 42.8146C53.4487 44.0679 51.5686 45.1646 49.8452 45.1646C48.1218 45.1646 46.2418 44.0679 45.7717 42.8146C44.675 40.3078 42.0116 39.5244 42.0116 41.8745Z" fill="#BE05FF"/>
<path d="M40.4448 59.2652C40.4448 60.0485 41.2282 60.8319 42.0115 60.8319C42.9516 60.8319 43.5783 60.0485 43.5783 59.2652C43.5783 58.3251 42.9516 57.6985 42.0115 57.6985C41.2282 57.6985 40.4448 58.3251 40.4448 59.2652Z" fill="#BE05FF"/>
<path d="M57.6788 60.9885C57.6788 61.7719 58.4622 62.0852 59.2456 61.6152C60.1856 61.1452 60.8123 60.3618 60.8123 59.8918C60.8123 59.5785 60.1856 59.2651 59.2456 59.2651C58.4622 59.2651 57.6788 60.0485 57.6788 60.9885Z" fill="#BE05FF"/>
<path d="M36.5281 70.2322C36.0581 71.0156 36.3714 71.799 37.1548 71.799C38.0948 71.799 38.8782 71.0156 38.8782 70.2322C38.8782 69.2922 38.5648 68.6655 38.2515 68.6655C37.7815 68.6655 36.9981 69.2922 36.5281 70.2322Z" fill="#BE05FF"/>
<path d="M60.8123 71.7989C60.8123 72.5822 61.5956 73.3656 62.5357 73.3656C63.319 73.3656 63.6324 72.5822 63.1623 71.7989C62.6923 70.8588 61.909 70.2322 61.4389 70.2322C61.1256 70.2322 60.8123 70.8588 60.8123 71.7989Z" fill="#BE05FF"/>
<path d="M37.3114 76.4992C37.3114 77.2826 38.0948 78.0659 39.0348 78.0659C39.8182 78.0659 40.1315 77.2826 39.6615 76.4992C39.1915 75.5592 38.4081 74.9325 37.9381 74.9325C37.6247 74.9325 37.3114 75.5592 37.3114 76.4992Z" fill="#BE05FF"/>
</g>
<defs>
<clipPath id="clip0_421_119">
<rect width="100" height="100" fill="white"/>
</clipPath>
</defs>
</svg>
