<svg width="100" height="100" viewBox="0 0 100 100" fill="none" xmlns="http://www.w3.org/2000/svg">
<g opacity="0.6">
<path d="M37.9241 1.63062C34.655 2.5024 29.9692 4.3549 27.5718 5.66256C23.8668 7.73302 22.9951 8.82273 22.4502 12.4188C21.5784 17.5404 17.2196 21.6813 12.7518 21.6813C9.04673 21.6813 7.19421 23.9697 3.92508 32.6874C-0.651719 44.5653 0.220051 59.4944 5.99553 71.8081C9.70055 79.6541 21.2515 91.314 29.0974 94.9101C44.3534 101.993 60.9171 101.666 74.9744 94.0383C89.4676 86.0834 103.525 63.6353 98.4032 56.3342C96.2238 53.174 96.2238 46.8537 98.4032 43.6935C103.525 36.3925 89.4676 13.9444 74.9744 5.98948C64.0772 0.105026 49.802 -1.63851 37.9241 1.63062ZM53.616 5.33565C53.9429 5.8805 55.6864 6.09845 57.43 5.77153C61.5709 4.89977 71.2693 8.1689 72.7949 11.0022C73.4488 12.2008 74.5385 12.8547 75.3013 12.6367C77.2628 11.8739 80.205 14.4892 79.9871 16.8866C79.7691 18.4122 80.4229 18.9571 82.2754 18.9571C84.9997 18.9571 86.9612 21.2455 86.0894 23.4249C85.7625 24.2967 86.6343 25.3864 88.1599 25.9312C89.9034 26.5851 91.429 28.5465 92.5188 31.7067C95.5699 39.9885 95.7879 40.9693 93.9354 41.7321C91.538 42.6038 91.538 57.4239 93.9354 58.2957C95.7879 59.0585 95.5699 60.0392 92.5188 68.3211C91.429 71.4812 89.9034 73.4427 88.1599 74.0965C86.6343 74.6414 85.7625 75.7311 86.0894 76.6029C86.9612 78.7823 84.9997 81.0707 82.2754 81.0707C80.4229 81.0707 79.7691 81.6156 79.9871 83.1412C80.205 85.5385 77.2628 88.1538 75.3013 87.391C74.5385 87.1731 73.4488 87.8269 72.7949 89.0256C71.2693 91.8589 61.5709 95.128 57.43 94.2562C55.6864 93.9293 53.9429 94.1473 53.616 94.6921C52.8532 95.9998 45.1162 96.1087 43.9175 95.019C43.4817 94.5831 41.6291 94.1473 39.8856 94.0383C31.4948 93.6024 17.3285 83.1412 11.3351 72.8979C4.5789 61.3469 3.48919 45.655 8.61084 33.0144C11.0082 27.1299 11.4441 26.694 16.2388 25.2774C22.0143 23.6428 25.3924 20.0468 26.4821 14.4892C26.918 11.8739 28.1167 10.2394 30.2961 9.04067C37.5972 5.33565 52.0904 2.93828 53.616 5.33565Z" fill="#BE05FF"/>
<path d="M46.9689 9.80348C45.8791 11.656 48.3855 13.7265 49.9111 12.2009C51.2187 10.8932 50.347 8.6048 48.7124 8.6048C48.1675 8.6048 47.4047 9.14966 46.9689 9.80348Z" fill="#BE05FF"/>
<path d="M60.0453 9.80348C58.9556 11.656 61.4619 13.7265 62.9875 12.2009C64.2952 10.8932 63.4234 8.6048 61.7888 8.6048C61.244 8.6048 60.4812 9.14966 60.0453 9.80348Z" fill="#BE05FF"/>
<path d="M53.5069 16.3418C52.4172 18.1943 54.9236 20.2648 56.4492 18.7392C57.7568 17.4315 56.8851 15.1431 55.2505 15.1431C54.7056 15.1431 53.9428 15.688 53.5069 16.3418Z" fill="#BE05FF"/>
<path d="M66.5836 16.3418C65.4939 18.1943 68.0002 20.2648 69.5258 18.7392C70.8335 17.4315 69.9617 15.1431 68.3271 15.1431C67.7823 15.1431 67.0195 15.688 66.5836 16.3418Z" fill="#BE05FF"/>
<path d="M60.0453 22.88C58.9556 24.7325 61.4619 26.803 62.9875 25.2774C64.2952 23.9697 63.4234 21.6813 61.7888 21.6813C61.244 21.6813 60.4812 22.2262 60.0453 22.88Z" fill="#BE05FF"/>
<path d="M73.1219 22.88C72.0322 24.7325 74.5386 26.803 76.0642 25.2774C77.3718 23.9697 76.5 21.6813 74.8655 21.6813C74.3206 21.6813 73.5578 22.2262 73.1219 22.88Z" fill="#BE05FF"/>
<path d="M35.8536 28.5465C32.6935 31.8156 32.8024 35.9566 36.0716 39.0078C39.1228 41.841 44.6803 41.841 45.2252 38.8988C45.4431 37.5911 44.6803 37.0463 41.956 36.7194C38.9048 36.5014 38.36 35.9566 38.36 33.6682C38.36 31.3798 38.9048 30.8349 41.956 30.617C44.6803 30.29 45.4431 29.7452 45.2252 28.4375C44.6803 25.3863 38.6869 25.4953 35.8536 28.5465Z" fill="#BE05FF"/>
<path d="M66.5836 29.4184C65.4939 31.2709 68.0002 33.3413 69.5258 31.8157C70.8335 30.5081 69.9617 28.2197 68.3271 28.2197C67.7823 28.2197 67.0195 28.7645 66.5836 29.4184Z" fill="#BE05FF"/>
<path d="M79.66 29.4184C78.5703 31.2709 81.0766 33.3413 82.6022 31.8157C83.9099 30.5081 83.0381 28.2197 81.4036 28.2197C80.8587 28.2197 80.0959 28.7645 79.66 29.4184Z" fill="#BE05FF"/>
<path d="M73.1219 35.9567C72.0322 37.8092 74.5386 39.8796 76.0642 38.3541C77.3718 37.0464 76.5 34.758 74.8655 34.758C74.3206 34.758 73.5578 35.3029 73.1219 35.9567Z" fill="#BE05FF"/>
<path d="M86.1983 35.9567C85.1086 37.8092 87.615 39.8796 89.1406 38.3541C90.4482 37.0464 89.5765 34.758 87.9419 34.758C87.397 34.758 86.6342 35.3029 86.1983 35.9567Z" fill="#BE05FF"/>
<path d="M66.5836 42.4949C65.4939 44.3474 68.0002 46.4179 69.5258 44.8923C70.8335 43.5846 69.9617 41.2962 68.3271 41.2962C67.7823 41.2962 67.0195 41.8411 66.5836 42.4949Z" fill="#BE05FF"/>
<path d="M79.66 42.4949C78.5703 44.3474 81.0766 46.4179 82.6022 44.8923C83.9099 43.5846 83.0381 41.2962 81.4036 41.2962C80.8587 41.2962 80.0959 41.8411 79.66 42.4949Z" fill="#BE05FF"/>
<path d="M73.1219 49.0331C72.0322 50.8856 74.5386 52.9561 76.0642 51.4305C77.3718 50.1228 76.5 47.8344 74.8655 47.8344C74.3206 47.8344 73.5578 48.3793 73.1219 49.0331Z" fill="#BE05FF"/>
<path d="M86.1983 49.0331C85.1086 50.8856 87.615 52.9561 89.1406 51.4305C90.4482 50.1228 89.5765 47.8344 87.9419 47.8344C87.397 47.8344 86.6342 48.3793 86.1983 49.0331Z" fill="#BE05FF"/>
<path d="M66.5836 55.5714C65.4939 57.4239 68.0002 59.4944 69.5258 57.9688C70.8335 56.6611 69.9617 54.3727 68.3271 54.3727C67.7823 54.3727 67.0195 54.9176 66.5836 55.5714Z" fill="#BE05FF"/>
<path d="M79.66 55.5714C78.5703 57.4239 81.0766 59.4944 82.6022 57.9688C83.9099 56.6611 83.0381 54.3727 81.4036 54.3727C80.8587 54.3727 80.0959 54.9176 79.66 55.5714Z" fill="#BE05FF"/>
<path d="M29.6423 57.8599C18.3093 64.0713 24.8476 81.0708 37.3793 77.9106C41.4112 76.8209 40.4305 73.3338 36.2896 73.7697C31.8218 74.2056 28.0078 71.3723 28.0078 67.4494C28.0078 63.4174 32.1487 60.3662 36.1806 61.347C38.1421 61.8918 39.1228 61.5649 39.6677 60.2573C40.8664 56.8792 34.2191 55.2446 29.6423 57.8599Z" fill="#BE05FF"/>
<path d="M73.1219 62.1096C72.0322 63.9621 74.5386 66.0326 76.0642 64.507C77.3718 63.1993 76.5 60.911 74.8655 60.911C74.3206 60.911 73.5578 61.4558 73.1219 62.1096Z" fill="#BE05FF"/>
<path d="M86.1983 62.1096C85.1086 63.9621 87.615 66.0326 89.1406 64.507C90.4482 63.1993 89.5765 60.911 87.9419 60.911C87.397 60.911 86.6342 61.4558 86.1983 62.1096Z" fill="#BE05FF"/>
<path d="M66.5836 68.648C65.4939 70.5005 68.0002 72.5709 69.5258 71.0453C70.8335 69.7377 69.9617 67.4493 68.3271 67.4493C67.7823 67.4493 67.0195 67.9941 66.5836 68.648Z" fill="#BE05FF"/>
<path d="M79.66 68.648C78.5703 70.5005 81.0766 72.5709 82.6022 71.0453C83.9099 69.7377 83.0381 67.4493 81.4036 67.4493C80.8587 67.4493 80.0959 67.9941 79.66 68.648Z" fill="#BE05FF"/>
<path d="M60.0453 75.1863C58.9556 77.0388 61.4619 79.1093 62.9875 77.5837C64.2952 76.276 63.4234 73.9876 61.7888 73.9876C61.244 73.9876 60.4812 74.5325 60.0453 75.1863Z" fill="#BE05FF"/>
<path d="M73.1219 75.1863C72.0322 77.0388 74.5386 79.1093 76.0642 77.5837C77.3718 76.276 76.5 73.9876 74.8655 73.9876C74.3206 73.9876 73.5578 74.5325 73.1219 75.1863Z" fill="#BE05FF"/>
<path d="M53.5069 81.7245C52.4172 83.577 54.9236 85.6475 56.4492 84.1219C57.7568 82.8142 56.8851 80.5258 55.2505 80.5258C54.7056 80.5258 53.9428 81.0707 53.5069 81.7245Z" fill="#BE05FF"/>
<path d="M66.5836 81.7245C65.4939 83.577 68.0002 85.6475 69.5258 84.1219C70.8335 82.8142 69.9617 80.5258 68.3271 80.5258C67.7823 80.5258 67.0195 81.0707 66.5836 81.7245Z" fill="#BE05FF"/>
<path d="M46.9689 88.2628C45.8791 90.1153 48.3855 92.1858 49.9111 90.6602C51.2187 89.3525 50.347 87.0642 48.7124 87.0642C48.1675 87.0642 47.4047 87.609 46.9689 88.2628Z" fill="#BE05FF"/>
<path d="M60.0453 88.2628C58.9556 90.1153 61.4619 92.1858 62.9875 90.6602C64.2952 89.3525 63.4234 87.0642 61.7888 87.0642C61.244 87.0642 60.4812 87.609 60.0453 88.2628Z" fill="#BE05FF"/>
</g>
</svg>
