<svg width="100" height="100" viewBox="0 0 100 100" fill="none" xmlns="http://www.w3.org/2000/svg">
<g opacity="0.6">
<path d="M43.5847 6.08996C42.6837 7.29124 41.983 9.79391 41.983 11.5958C41.983 15.7002 39.2801 28.4138 37.8786 31.2168C37.1779 32.418 36.1768 33.7194 35.5761 34.1199C34.9755 34.5203 27.6677 34.9207 19.3588 34.9207C5.94454 34.9207 3.8423 35.1209 1.84016 36.8227C-0.16197 38.4244 -0.362184 39.1252 0.43867 41.5278C1.23952 43.63 4.54305 46.1327 14.2534 51.8388C22.1618 56.6439 27.1672 60.2477 27.5676 61.449C27.8679 62.6503 25.7657 68.8569 22.4622 76.5651C19.459 83.7728 16.9563 90.48 16.9563 91.2808C16.9563 93.4832 19.7593 95.9858 22.2619 95.9858C24.7646 95.9858 35.6763 88.9784 44.2854 81.7707C47.6891 78.9677 50.5922 77.2659 51.2929 77.6663C51.9937 78.0667 55.8978 81.17 60.0022 84.4736C70.0129 92.6823 75.0182 95.9858 77.621 95.9858C79.7232 95.9858 83.0267 93.1829 83.0267 91.2808C83.0267 90.6802 81.0246 84.1732 78.5219 76.8654C76.0193 69.4575 74.0171 62.6503 74.0171 61.6492C74.0171 60.4479 78.1215 57.2445 86.5305 51.7386C99.9448 43.0294 101.947 40.6268 98.5433 36.9228C96.8415 35.1209 95.3399 34.9207 80.5241 34.9207C68.7115 34.9207 64.0065 34.6204 63.3057 33.6193C62.7051 33.0187 61.704 29.9154 61.0033 26.9122C59.4016 20.0048 54.5964 9.19328 51.7934 6.19007C49.0906 3.28697 45.5868 3.28697 43.5847 6.08996ZM52.0938 13.9984C53.6955 16.9015 55.8978 23.008 56.999 27.4127C60.1023 39.0251 59.9021 38.925 79.6231 38.925C89.4336 38.925 96.0406 39.3254 96.0406 39.926C96.0406 40.4266 90.1343 44.6311 83.0267 49.3361C67.5102 59.547 67.9106 58.1455 74.5177 77.1658C79.523 91.481 79.6231 91.9816 77.621 91.9816C76.1194 91.9816 64.7072 83.5726 58.4005 77.8665C51.6933 71.8601 49.0906 71.8601 42.4835 77.9666C37.7785 82.3713 23.8637 91.9816 22.2619 91.9816C20.46 91.9816 20.7603 90.8804 27.1672 75.9645C30.9712 67.1551 31.9723 63.7515 31.4718 61.3489C30.771 57.3446 30.3706 57.0443 16.1554 48.4351C9.7486 44.531 4.34283 40.827 4.14262 40.1263C3.8423 39.2253 7.44614 38.925 19.9595 38.925H36.1768L38.9798 36.122C42.1832 32.9186 43.4846 28.8142 45.0863 17.9026C45.6869 13.7982 46.3877 9.79391 46.5879 9.09316C47.2886 6.69061 49.2908 8.39242 52.0938 13.9984Z" fill="#BE05FF"/>
<path d="M70.3133 45.5321C70.0129 46.3329 70.2132 47.5342 70.8138 48.1348C72.3154 49.6364 75.1184 47.334 74.3175 45.3318C73.6168 43.4298 71.1141 43.5299 70.3133 45.5321Z" fill="#BE05FF"/>
<path d="M32.9734 49.9367C32.9734 51.5384 33.4739 52.0389 35.2758 51.7386C36.4771 51.5384 37.4782 50.7375 37.4782 49.9367C37.4782 49.1358 36.4771 48.335 35.2758 48.1347C33.4739 47.8344 32.9734 48.335 32.9734 49.9367Z" fill="#BE05FF"/>
<path d="M46.9883 52.0389C46.0874 53.5405 46.1875 54.4414 47.0885 55.5426C49.8914 58.8461 55.097 55.8429 52.9948 52.0389C52.3941 50.8376 51.0927 49.9366 49.9915 49.9366C48.8904 49.9366 47.589 50.8376 46.9883 52.0389Z" fill="#BE05FF"/>
<path d="M66.409 78.4671C66.0086 79.3681 66.2088 80.5694 66.8094 81.17C68.311 82.6716 71.2141 81.2701 70.8137 79.268C70.4133 76.9655 67.2099 76.3649 66.409 78.4671Z" fill="#BE05FF"/>
</g>
</svg>
