<svg width="100" height="100" viewBox="0 0 100 100" fill="none" xmlns="http://www.w3.org/2000/svg">
<g opacity="0.6">
<path d="M46.3774 4.37271C46.3774 5.13875 47.1435 5.90479 47.9095 5.90479C48.8288 5.90479 49.4416 5.13875 49.4416 4.37271C49.4416 3.45347 48.8288 2.84064 47.9095 2.84064C47.1435 2.84064 46.3774 3.45347 46.3774 4.37271Z" fill="#BE05FF"/>
<path d="M40.0916 5.47525C40.0916 6.24129 40.8576 7.00732 41.6236 7.00732C42.5429 7.00732 43.1557 6.24129 43.1557 5.47525C43.1557 4.55601 42.5429 3.94318 41.6236 3.94318C40.8576 3.94318 40.0916 4.55601 40.0916 5.47525Z" fill="#BE05FF"/>
<path d="M35.5098 10.0572C35.5098 10.8232 36.2758 11.5892 37.0418 11.5892C37.9611 11.5892 38.5739 10.8232 38.5739 10.0572C38.5739 9.13791 37.9611 8.52508 37.0418 8.52508C36.2758 8.52508 35.5098 9.13791 35.5098 10.0572Z" fill="#BE05FF"/>
<path d="M11.4548 27.2393C11.4548 28.0053 12.2209 28.7714 12.9869 28.7714C13.9062 28.7714 14.519 28.0053 14.519 27.2393C14.519 26.32 13.9062 25.7072 12.9869 25.7072C12.2209 25.7072 11.4548 26.32 11.4548 27.2393Z" fill="#BE05FF"/>
<path d="M5.72729 30.6758C5.72729 31.4418 6.49333 32.2079 7.25937 32.2079C8.17861 32.2079 8.79144 31.4418 8.79144 30.6758C8.79144 29.7566 8.17861 29.1437 7.25937 29.1437C6.49333 29.1437 5.72729 29.7566 5.72729 30.6758Z" fill="#BE05FF"/>
<path d="M2.29102 35.2577C2.29102 36.0238 3.05705 36.7898 3.82309 36.7898C4.74233 36.7898 5.35516 36.0238 5.35516 35.2577C5.35516 34.3385 4.74233 33.7256 3.82309 33.7256C3.05705 33.7256 2.29102 34.3385 2.29102 35.2577Z" fill="#BE05FF"/>
<path d="M0 39.8396C0 40.6057 0.766037 41.3717 1.53207 41.3717C2.45132 41.3717 3.06415 40.6057 3.06415 39.8396C3.06415 38.9204 2.45132 38.3076 1.53207 38.3076C0.766037 38.3076 0 38.9204 0 39.8396Z" fill="#BE05FF"/>
<path d="M0 46.7124C0 47.4785 0.766037 48.2445 1.53207 48.2445C2.45132 48.2445 3.06415 47.4785 3.06415 46.7124C3.06415 45.7932 2.45132 45.1804 1.53207 45.1804C0.766037 45.1804 0 45.7932 0 46.7124Z" fill="#BE05FF"/>
<path d="M3.43652 52.4398C3.43652 53.2059 4.20256 53.9719 4.9686 53.9719C5.88784 53.9719 6.50067 53.2059 6.50067 52.4398C6.50067 51.5206 5.88784 50.9078 4.9686 50.9078C4.20256 50.9078 3.43652 51.5206 3.43652 52.4398Z" fill="#BE05FF"/>
<path d="M11.4548 78.7858C11.4548 79.5518 12.2209 80.3179 12.9869 80.3179C13.9062 80.3179 14.519 79.5518 14.519 78.7858C14.519 77.8666 13.9062 77.2537 12.9869 77.2537C12.2209 77.2537 11.4548 77.8666 11.4548 78.7858Z" fill="#BE05FF"/>
<path d="M13.7456 84.5131C13.7456 85.2791 14.5116 86.0452 15.2777 86.0452C16.1969 86.0452 16.8098 85.2791 16.8098 84.5131C16.8098 83.5938 16.1969 82.981 15.2777 82.981C14.5116 82.981 13.7456 83.5938 13.7456 84.5131Z" fill="#BE05FF"/>
<path d="M16.0366 90.2406C16.0366 91.0067 16.8027 91.7727 17.5687 91.7727C18.4879 91.7727 19.1008 91.0067 19.1008 90.2406C19.1008 89.3214 18.4879 88.7086 17.5687 88.7086C16.8027 88.7086 16.0366 89.3214 16.0366 90.2406Z" fill="#BE05FF"/>
<path d="M21.7639 93.677C21.7639 94.4431 22.53 95.2091 23.296 95.2091C24.2152 95.2091 24.8281 94.4431 24.8281 93.677C24.8281 92.7578 24.2152 92.145 23.296 92.145C22.53 92.145 21.7639 92.7578 21.7639 93.677Z" fill="#BE05FF"/>
<path d="M27.4915 95.9679C27.4915 96.734 28.2575 97.5 29.0235 97.5C29.9428 97.5 30.5556 96.734 30.5556 95.9679C30.5556 95.0487 29.9428 94.4359 29.0235 94.4359C28.2575 94.4359 27.4915 95.0487 27.4915 95.9679Z" fill="#BE05FF"/>
<path d="M33.2188 94.8224C33.2188 95.5885 33.9848 96.3545 34.7508 96.3545C35.6701 96.3545 36.2829 95.5885 36.2829 94.8224C36.2829 93.9032 35.6701 93.2903 34.7508 93.2903C33.9848 93.2903 33.2188 93.9032 33.2188 94.8224Z" fill="#BE05FF"/>
<path d="M52.5059 4.37271C52.5059 5.13875 53.2719 5.90479 54.0379 5.90479C54.9572 5.90479 55.57 5.13875 55.57 4.37271C55.57 3.45347 54.9572 2.84064 54.0379 2.84064C53.2719 2.84064 52.5059 3.45347 52.5059 4.37271Z" fill="#BE05FF"/>
<path d="M58.4194 6.62088C58.4194 7.38692 59.1855 8.15295 59.9515 8.15295C60.8708 8.15295 61.4836 7.38692 61.4836 6.62088C61.4836 5.70163 60.8708 5.08881 59.9515 5.08881C59.1855 5.08881 58.4194 5.70163 58.4194 6.62088Z" fill="#BE05FF"/>
<path d="M63.0012 11.2027C63.0012 11.9687 63.7673 12.7347 64.5333 12.7347C65.4525 12.7347 66.0654 11.9687 66.0654 11.2027C66.0654 10.2834 65.4525 9.67059 64.5333 9.67059C63.7673 9.67059 63.0012 10.2834 63.0012 11.2027Z" fill="#BE05FF"/>
<path d="M31.6695 17.3954C31.2099 19.5403 31.2099 22.9109 31.6695 25.0558C32.7419 29.0391 32.5887 29.0391 28.1457 26.5878C22.9367 23.9833 17.268 23.5237 17.268 25.8218C17.268 26.5878 18.9533 27.3539 21.0982 27.3539C25.0816 27.3539 33.6612 34.095 39.0234 41.449L42.2408 46.0452L38.717 44.2067C35.9593 42.6746 34.8868 42.8278 32.8951 44.6663C30.1374 47.5772 31.3631 51.5606 35.8061 53.2459C38.717 54.3184 38.2574 54.6248 32.4355 56.1569C19.7193 59.3742 16.5019 59.5274 12.0589 57.2293C6.84987 54.4716 6.54346 54.4716 6.54346 56.6165C6.54346 57.5357 9.30119 59.3742 12.6718 60.5999L18.6468 63.0512L15.7359 66.8814C12.6718 70.7116 11.7525 74.8482 13.8974 74.8482C14.5102 74.8482 16.0423 72.8565 17.4212 70.4052C18.9533 67.8006 23.2431 64.4301 28.4521 61.9788C38.1042 57.3825 41.628 56.9229 38.1042 60.4467C36.2657 62.2852 36.1125 63.5108 37.185 65.8089C39.3299 69.6391 42.5472 69.4859 45.4582 65.3493C47.9095 61.9788 47.9095 61.9788 47.9095 67.9538C47.7563 77.2995 45.4582 85.4195 41.628 89.5561C39.7895 91.5478 38.717 93.6927 39.1767 94.3055C41.0151 95.9908 47.7563 88.4836 48.8287 83.4278L49.9012 78.6784L51.5865 83.581C53.4249 89.2497 59.5532 95.9908 61.0853 94.3055C61.6982 93.6927 60.6257 91.5478 58.7872 89.5561C54.8038 85.2663 52.5057 77.1463 52.6589 67.1878C52.6589 61.5191 52.9653 60.9063 54.0378 63.8172C55.8763 68.4135 59.8597 69.7923 62.7706 66.8814C64.6091 64.8897 64.7623 63.8172 63.3834 61.2127L61.5449 57.9954L69.5117 60.9063C77.9381 64.1237 84.6793 69.4859 84.6793 72.8565C84.6793 73.9289 85.4453 74.8482 86.2113 74.8482C88.6627 74.8482 88.0498 70.8648 84.8325 67.0346L81.9215 63.3576L86.671 61.6723C89.2755 60.7531 91.7268 59.221 92.0332 57.9954C92.4929 56.6165 92.0332 56.3101 89.8883 57.2293C83.76 59.6806 80.083 59.6806 71.6566 57.2293C63.2302 54.778 62.9238 54.6248 66.1412 52.4799C69.9714 49.7222 70.2778 46.8112 67.0604 44.2067C65.2219 42.6746 63.9963 42.8278 60.6257 45.1259C56.4891 47.7305 56.3359 47.7305 58.4808 44.8195C66.9072 33.7886 75.3336 27.3539 81.6151 27.3539C83.3004 27.3539 84.6793 26.5878 84.6793 25.8218C84.6793 23.5237 76.4061 23.9833 73.0355 26.5878C68.7457 29.8052 67.6732 29.3456 68.7457 25.0558C69.8181 20.6127 68.4393 13.5652 66.2944 13.5652C65.5283 13.5652 65.3751 15.8633 65.8348 18.7742C66.6008 24.1365 62.4642 33.7886 55.5699 42.6746L52.5057 46.5048L54.191 41.449C55.4166 37.772 55.4166 35.9335 54.0378 34.2482C49.4416 28.7327 43.6197 34.7078 46.3774 42.215L47.9095 46.5048L44.9985 42.6746C37.951 33.9418 33.8144 24.1365 34.5804 18.7742C35.6529 12.7992 33.2016 11.5735 31.6695 17.3954Z" fill="#BE05FF"/>
<path d="M92.3398 31.9501C92.3398 32.7161 93.1059 33.4822 93.8719 33.4822C94.7912 33.4822 95.404 32.7161 95.404 31.9501C95.404 31.0309 94.7912 30.418 93.8719 30.418C93.1059 30.418 92.3398 31.0309 92.3398 31.9501Z" fill="#BE05FF"/>
<path d="M95.0745 36.4032C95.0745 37.1693 95.8405 37.9353 96.6065 37.9353C97.5258 37.9353 98.1386 37.1693 98.1386 36.4032C98.1386 35.484 97.5258 34.8712 96.6065 34.8712C95.8405 34.8712 95.0745 35.484 95.0745 36.4032Z" fill="#BE05FF"/>
<path d="M88.2014 27.2393C88.2014 28.0053 88.9675 28.7714 89.7335 28.7714C90.6527 28.7714 91.2656 28.0053 91.2656 27.2393C91.2656 26.32 90.6527 25.7072 89.7335 25.7072C88.9675 25.7072 88.2014 26.32 88.2014 27.2393Z" fill="#BE05FF"/>
<path d="M96.9358 42.6745C96.9358 43.4405 97.7018 44.2065 98.4679 44.2065C99.3871 44.2065 99.9999 43.4405 99.9999 42.6745C99.9999 41.7552 99.3871 41.1424 98.4679 41.1424C97.7018 41.1424 96.9358 41.7552 96.9358 42.6745Z" fill="#BE05FF"/>
<path d="M96.22 49.0033C96.22 49.7694 96.986 50.5354 97.752 50.5354C98.6713 50.5354 99.2841 49.7694 99.2841 49.0033C99.2841 48.0841 98.6713 47.4713 97.752 47.4713C96.986 47.4713 96.22 48.0841 96.22 49.0033Z" fill="#BE05FF"/>
<path d="M93.929 53.5854C93.929 54.3514 94.695 55.1174 95.461 55.1174C96.3803 55.1174 96.9931 54.3514 96.9931 53.5854C96.9931 52.6661 96.3803 52.0533 95.461 52.0533C94.695 52.0533 93.929 52.6661 93.929 53.5854Z" fill="#BE05FF"/>
<path d="M80.0833 90.169C80.0833 90.935 80.8493 91.701 81.6153 91.701C82.5346 91.701 83.1474 90.935 83.1474 90.169C83.1474 89.2497 82.5346 88.6369 81.6153 88.6369C80.8493 88.6369 80.0833 89.2497 80.0833 90.169Z" fill="#BE05FF"/>
<path d="M63.2305 94.7652C63.2305 95.5312 63.9965 96.2972 64.7625 96.2972C65.6818 96.2972 66.2946 95.5312 66.2946 94.7652C66.2946 93.8459 65.6818 93.2331 64.7625 93.2331C63.9965 93.2331 63.2305 93.8459 63.2305 94.7652Z" fill="#BE05FF"/>
<path d="M69.874 95.9679C69.874 96.734 70.6401 97.5 71.4061 97.5C72.3253 97.5 72.9382 96.734 72.9382 95.9679C72.9382 95.0487 72.3253 94.4359 71.4061 94.4359C70.6401 94.4359 69.874 95.0487 69.874 95.9679Z" fill="#BE05FF"/>
<path d="M75.6013 93.677C75.6013 94.4431 76.3674 95.2091 77.1334 95.2091C78.0526 95.2091 78.6655 94.4431 78.6655 93.677C78.6655 92.7578 78.0526 92.145 77.1334 92.145C76.3674 92.145 75.6013 92.7578 75.6013 93.677Z" fill="#BE05FF"/>
<path d="M83.6196 85.6587C83.6196 86.4248 84.3857 87.1908 85.1517 87.1908C86.0709 87.1908 86.6838 86.4248 86.6838 85.6587C86.6838 84.7395 86.0709 84.1266 85.1517 84.1266C84.3857 84.1266 83.6196 84.7395 83.6196 85.6587Z" fill="#BE05FF"/>
<path d="M85.9109 78.7858C85.9109 79.5518 86.6769 80.3179 87.443 80.3179C88.3622 80.3179 88.975 79.5518 88.975 78.7858C88.975 77.8666 88.3622 77.2537 87.443 77.2537C86.6769 77.2537 85.9109 77.8666 85.9109 78.7858Z" fill="#BE05FF"/>
</g>
</svg>
