<svg width="70" height="70" viewBox="0 0 70 70" fill="none" xmlns="http://www.w3.org/2000/svg">
<path d="M70 35C70 54.3289 54.3289 70 35 70C15.6711 70 0 54.3289 0 35C0 15.6711 15.6711 0 35 0C54.333 0 70 15.6711 70 35Z" fill="#BE05FF"/>
<g clip-path="url(#clip0_1447_4)">
<path d="M48.9422 21.7113C53.4903 28.6792 55.7365 36.5387 54.8968 45.5869C54.8933 45.6252 54.8742 45.6603 54.844 45.6834C51.3997 48.3186 48.0628 49.9179 44.7726 50.9785C44.747 50.9866 44.7196 50.9862 44.6942 50.9773C44.6688 50.9683 44.6468 50.9514 44.6311 50.9287C43.871 49.8267 43.1804 48.6648 42.5753 47.4448C42.5406 47.3729 42.5723 47.2864 42.6438 47.258C43.7406 46.8274 44.7837 46.3113 45.7869 45.7002C45.866 45.6519 45.871 45.5339 45.798 45.4773C45.5851 45.3126 45.3742 45.1395 45.1723 44.9664C45.1345 44.9344 45.0837 44.9281 45.0409 44.9496C38.5275 48.0837 31.3924 48.0837 24.802 44.9496C24.7593 44.9297 24.7084 44.9365 24.6717 44.9679C24.4703 45.141 24.2589 45.3126 24.048 45.4773C23.975 45.5339 23.981 45.6519 24.0605 45.7002C25.0638 46.2997 26.1068 46.8274 27.2022 47.2601C27.2732 47.2885 27.3069 47.3729 27.2717 47.4448C26.6797 48.6664 25.989 49.8282 25.2148 50.9303C25.1811 50.9749 25.1257 50.9953 25.0734 50.9785C21.7988 49.9179 18.4618 48.3186 15.0176 45.6834C14.9889 45.6603 14.9683 45.6236 14.9653 45.5853C14.2635 37.7588 15.6937 29.8342 20.9143 21.7097C20.9269 21.6882 20.9461 21.6715 20.9682 21.6615C23.537 20.433 26.2891 19.5293 29.1654 19.0131C29.2178 19.0047 29.2701 19.0299 29.2973 19.0782C29.6527 19.7338 30.059 20.5747 30.3338 21.2618C33.3657 20.7792 36.445 20.7792 39.5403 21.2618C39.8152 20.5894 40.2073 19.7338 40.5612 19.0782C40.5738 19.0542 40.5934 19.0351 40.617 19.0234C40.6407 19.0117 40.6674 19.0081 40.6931 19.0131C43.571 19.5308 46.323 20.4346 48.8898 21.6615C48.9125 21.6715 48.9311 21.6882 48.9422 21.7113ZM31.8752 36.5922C31.9069 34.2785 30.288 32.364 28.2558 32.364C26.2402 32.364 24.6369 34.2618 24.6369 36.5922C24.6369 38.9222 26.2719 40.82 28.2558 40.82C30.2719 40.82 31.8752 38.9222 31.8752 36.5922ZM45.2564 36.5922C45.2881 34.2785 43.6692 32.364 41.6375 32.364C39.6214 32.364 38.0181 34.2618 38.0181 36.5922C38.0181 38.9222 39.6531 40.82 41.6375 40.82C43.6692 40.82 45.2564 38.9222 45.2564 36.5922Z" fill="white"/>
</g>
<defs>
<clipPath id="clip0_1447_4">
<rect width="42" height="32" fill="white" transform="translate(14 19)"/>
</clipPath>
</defs>
</svg>
