<svg width="60" height="60" viewBox="0 0 60 60" fill="none" xmlns="http://www.w3.org/2000/svg">
<g clip-path="url(#clip0_1730_18)">
<path d="M26.9536 0.147804C23.0687 0.536289 18.8472 1.88303 15.3638 3.82544C12.6963 5.32757 10.6503 6.9074 8.41001 9.22535C4.70648 13.0454 2.23314 17.4741 0.925248 22.5762C0.21303 25.3733 0.0317383 26.8883 0.0317383 30.0351C0.0317383 33.1818 0.21303 34.6968 0.925248 37.4939C2.28494 42.8032 4.83597 47.2578 8.81144 51.2203C12.8387 55.2217 17.2027 57.7339 22.5378 59.1065C25.3219 59.8187 26.85 60 29.9967 60C33.1304 60 34.6196 59.8317 37.4296 59.1194C51.0395 55.6749 60.5443 42.9974 60.0005 28.9991C59.6508 20.2582 55.8567 12.5404 49.0971 6.8815C43.0885 1.84418 34.8916 -0.655056 26.9536 0.147804ZM32.5995 2.19381C36.7692 2.6082 41.0296 4.01968 44.4871 6.13044C48.2813 8.43543 51.5963 11.7505 53.9013 15.5447C56.9574 20.5561 58.4077 26.8495 57.8379 32.6379C57.2681 38.3097 55.0667 43.5672 51.3891 48.0088C44.6036 56.2058 33.4671 59.7669 22.991 57.0993C14.1207 54.8332 6.64889 47.97 3.64462 39.3327C2.50508 36.0695 2.10364 33.622 2.10364 30.0351C2.10364 27.1991 2.27199 25.6841 2.86766 23.2884C4.2921 17.6425 7.52945 12.4109 11.8675 8.75917C17.7077 3.85134 25.2442 1.46865 32.5995 2.19381Z" fill="#BE05FF"/>
<path d="M29.6473 4.79663C29.5567 4.88728 29.479 5.06857 29.479 5.18511C29.479 5.30166 29.5567 5.45705 29.6473 5.5218C29.8545 5.70309 32.1077 5.81964 32.3797 5.66424C32.6387 5.5218 32.6516 5.12037 32.3926 4.91318C32.1077 4.66714 29.8545 4.57649 29.6473 4.79663Z" fill="#BE05FF"/>
<path d="M33.7908 5.18513C33.5836 5.39232 33.5707 5.76785 33.7649 5.89735C34.0368 6.06569 36.1346 6.46712 36.3677 6.38942C36.5231 6.35058 36.6008 6.19518 36.6008 5.94914C36.6008 5.59951 36.5361 5.54771 35.9274 5.36642C34.9044 5.06858 33.9721 4.99089 33.7908 5.18513Z" fill="#BE05FF"/>
<path d="M37.6886 6.25994C37.5202 6.71317 37.7145 6.90741 38.7375 7.33474C39.8511 7.78797 40.3173 7.82682 40.5374 7.47718C40.7317 7.15345 40.3691 6.84266 39.2813 6.41533C38.3101 6.0398 37.7922 5.988 37.6886 6.25994Z" fill="#BE05FF"/>
<path d="M41.5217 7.95635C41.2497 8.28009 41.5087 8.59087 42.5706 9.2254C43.6195 9.83402 44.008 9.91172 44.1634 9.51028C44.2929 9.16065 44.0986 8.94051 43.1533 8.34484C42.1692 7.73621 41.7807 7.64557 41.5217 7.95635Z" fill="#BE05FF"/>
<path d="M45.0179 10.1577C44.7459 10.4814 44.992 10.9088 45.8596 11.608C46.766 12.3462 47.2711 12.4886 47.4135 12.0224C47.5171 11.7116 47.3358 11.4785 46.274 10.598C45.4711 9.92461 45.2769 9.84692 45.0179 10.1577Z" fill="#BE05FF"/>
<path d="M48.0221 12.9677C47.7502 13.2396 47.8408 13.4339 48.6696 14.4439C49.33 15.2468 49.5243 15.4022 49.7962 15.3763C50.0552 15.3504 50.1458 15.2597 50.1717 14.9878C50.1976 14.7288 50.0293 14.4439 49.4207 13.7317C48.6437 12.8252 48.3329 12.6569 48.0221 12.9677Z" fill="#BE05FF"/>
<path d="M21.8255 14.7936C21.1262 15.0526 19.9737 15.9979 18.6529 17.3834C16.309 19.8309 14.794 22.7057 14.0299 26.1502C13.6285 28.002 13.6285 31.4077 14.0429 33.2594C14.8328 36.8076 16.2831 39.5658 18.6529 42.0521C20.168 43.6319 21.6701 44.7456 23.5866 45.7038C26.5002 47.1542 28.352 47.5815 31.68 47.5815C33.5706 47.5815 34.1663 47.5297 35.2929 47.2836C37.6626 46.7527 39.6698 45.9369 41.5345 44.7326C42.5316 44.0851 42.9848 43.5413 43.205 42.7384C43.6711 40.9773 42.2726 39.3586 40.2914 39.3586C38.2971 39.3586 35.772 38.75 33.8037 37.8176C29.3491 35.6939 26.3837 32.0681 25.1146 27.1991C24.4801 24.7776 24.5708 21.3978 25.3348 18.9115C25.7103 17.7072 25.6715 16.9043 25.2053 16.0885C24.5449 14.9231 23.0168 14.3533 21.8255 14.7936ZM23.237 16.9043C23.6125 17.1633 23.5996 17.3705 23.1075 19.2223C22.719 20.6985 22.706 20.9057 22.6931 23.3013C22.6802 25.2826 22.7319 26.0596 22.9132 26.9272C23.6643 30.4235 25.1923 33.3371 27.6009 35.8493C30.8253 39.2032 34.8785 41.0809 39.5662 41.3787C40.7575 41.4564 40.9129 41.4953 41.0942 41.7672C41.3791 42.2075 41.2237 42.4794 40.382 43.0103C38.7763 44.0204 37.1576 44.7067 35.1763 45.1858C34.1533 45.4448 33.5965 45.4966 31.8095 45.4966C28.7664 45.5096 26.8499 45.0693 24.3247 43.7614C21.2557 42.1816 18.9896 39.8507 17.4356 36.704C16.5939 34.9947 16.2313 33.8422 15.9465 31.9774C15.1177 26.6034 17.332 20.8539 21.5147 17.487C22.5636 16.6453 22.7708 16.5806 23.237 16.9043Z" fill="#BE05FF"/>
<path d="M50.6124 16.2051C50.5218 16.2957 50.457 16.4641 50.457 16.6065C50.457 16.8137 51.2987 18.3547 51.6225 18.7302C51.8297 18.9892 52.2441 18.9245 52.3994 18.6266C52.516 18.4194 52.4771 18.2381 52.1405 17.6295C51.3246 16.1792 50.975 15.8425 50.6124 16.2051Z" fill="#BE05FF"/>
<path d="M37.3778 16.4252C36.7173 16.7749 36.5231 17.1115 35.9922 18.8856L35.5001 20.4913L33.9203 20.9705C33.0526 21.2424 32.198 21.5532 32.0167 21.6697C31.2786 22.1489 31.0066 23.4956 31.4987 24.169C31.939 24.7646 32.3534 24.9848 33.8685 25.438C34.6843 25.6841 35.3965 25.9301 35.4483 25.9819C35.513 26.0466 35.7591 26.7848 36.0181 27.6394C36.4195 28.9991 36.549 29.2581 36.9893 29.6725C37.4425 30.1128 37.572 30.1646 38.1677 30.1646C38.9317 30.1646 39.4885 29.8797 39.8252 29.3228C39.9547 29.1027 40.2525 28.2869 40.4856 27.5099C40.7058 26.72 40.9388 26.0466 40.9906 25.9948C41.0295 25.943 41.7676 25.6841 42.6223 25.4251C43.4769 25.1661 44.3316 24.8423 44.5129 24.7128C44.992 24.3762 45.3287 23.4568 45.2121 22.8352C45.0568 21.9805 44.4999 21.5791 42.7388 21.0352C41.8971 20.7762 41.1331 20.4913 41.0424 20.4136C40.9518 20.323 40.6799 19.5978 40.4338 18.782C39.9417 17.1374 39.7086 16.736 39.0482 16.4123C38.4785 16.1144 37.9346 16.1144 37.3778 16.4252ZM38.6727 20.0899C39.2295 21.8899 39.5662 22.2136 41.3921 22.7834L42.7518 23.2107L41.3662 23.651C39.5403 24.2208 39.2166 24.5316 38.7374 26.1114C38.2195 27.8855 38.2583 27.8725 37.7921 26.3704C37.1965 24.4021 36.9634 24.1819 34.7231 23.5215L33.6872 23.2107L35.021 22.7963C36.9116 22.2136 37.2483 21.8769 37.7921 20.1158C38.0123 19.3777 38.2195 18.7691 38.2324 18.7691C38.2454 18.7691 38.4526 19.3647 38.6727 20.0899Z" fill="#BE05FF"/>
<path d="M52.4902 19.8827C52.3218 20.064 52.3995 20.5173 52.7751 21.4626C53.2024 22.5633 53.306 22.6928 53.7074 22.628C54.1607 22.5633 54.1477 22.11 53.6556 20.9058C53.306 20.0252 53.1894 19.8698 52.9175 19.831C52.7362 19.8051 52.542 19.831 52.4902 19.8827Z" fill="#BE05FF"/>
<path d="M53.8625 23.7805C53.6423 23.8582 53.6553 24.1949 53.9013 25.4769C54.1474 26.6812 54.3805 26.9531 54.8466 26.5646C55.1186 26.3445 55.1315 26.3316 54.9243 25.2438C54.6265 23.7287 54.484 23.5215 53.8625 23.7805Z" fill="#BE05FF"/>
<path d="M54.5491 27.8725C54.2254 28.1056 54.3031 30.2681 54.6397 30.4753C55.08 30.7602 55.3131 30.4235 55.352 29.4394C55.3779 28.9473 55.352 28.4164 55.3131 28.261C55.2225 27.8595 54.834 27.6653 54.5491 27.8725Z" fill="#BE05FF"/>
</g>
<defs>
<clipPath id="clip0_1730_18">
<rect width="60" height="60" fill="white"/>
</clipPath>
</defs>
</svg>
