<svg width="393" height="668" viewBox="0 0 393 668" fill="none" xmlns="http://www.w3.org/2000/svg">
<path d="M326.636 276.232C366.945 366.827 388.787 455.339 391.53 525.195C392.902 560.125 389.498 590.364 381.259 613.86C373.022 637.355 359.969 654.061 342.067 662.026C324.165 669.991 303.016 668.502 280.049 658.892C257.081 649.281 232.34 631.564 207.312 607.16C157.258 558.353 106.134 482.869 65.8254 392.274C25.5169 301.679 3.67482 213.167 0.931341 143.31C-0.440453 108.38 2.96391 78.1413 11.2022 54.6456C19.44 31.1511 32.4929 14.4444 50.3946 6.47939C68.2962 -1.48559 89.4451 0.00372933 112.412 9.61417C135.381 19.2251 160.122 36.9414 185.15 61.346C235.203 110.153 286.328 185.636 326.636 276.232Z" stroke="#06593E"/>
</svg>
