<svg width="170" height="40" viewBox="0 0 170 40" fill="none" xmlns="http://www.w3.org/2000/svg">
<ellipse cx="18.8729" cy="5.5" rx="5.61085" ry="5.5" fill="#BE05FF"/>
<rect y="6.28906" width="10.1269" height="26.4222" rx="5.06345" fill="#BE05FF"/>
<rect x="14.73" y="14.4888" width="9.20628" height="25.5111" rx="4.60314" fill="#BE05FF"/>
<rect x="27.6191" y="6.28906" width="10.1269" height="26.4222" rx="5.06345" fill="#BE05FF"/>
<path d="M88.1768 33.8928H93.5327L102.173 15.4209H96.6033L90.7476 29.1528L85.1062 15.4209H79.5361L88.1768 33.8928Z" fill="white"/>
<path d="M124.378 20.9276C124.378 18.5228 124.092 14.7239 114.202 14.7239C108.596 14.7239 104.919 16.2226 104.204 21.0671H109.025C109.203 19.0108 110.953 18 114.202 18C117.058 18 119.558 18.5228 119.558 20.6488C119.558 22.0778 118.808 22.3217 111.738 22.9839C108.596 23.2628 103.24 23.7158 103.24 28.8043C103.24 32.429 106.025 34.5898 110.953 34.5898C116.487 34.5898 118.879 32.9518 119.843 32.0456C119.986 32.7427 120.343 34.4156 123.557 34.4156C125.235 34.4156 126.092 34.1716 127.056 33.9973V30.6167C126.663 30.6864 125.913 30.7212 125.449 30.7212C125.128 30.7212 124.378 30.6864 124.378 29.6756V20.9276ZM119.451 26.4692C119.451 30.5469 114.987 31.5228 112.345 31.5228C110.667 31.5228 108.382 31.0697 108.382 28.6301C108.382 27.0617 109.275 26.2601 112.988 25.8419C116.487 25.4585 118.022 25.2842 119.451 24.6917V26.4692Z" fill="white"/>
<path d="M129.345 33.8928H134.272V8.58984H129.345V33.8928Z" fill="white"/>
<path d="M138.55 33.8928H143.477V8.58984H138.55V33.8928Z" fill="white"/>
<path d="M170 25.8767V25.1797C170 19.7775 166.786 14.7239 158.395 14.7239C151.683 14.7239 147.005 18.6622 147.005 24.8311C147.005 29.7453 150.183 34.5898 158.717 34.5898C165.929 34.5898 168.5 30.5121 169.571 28.4558H164.215C163.251 29.9893 161.823 31.1046 158.574 31.1046C153.682 31.1046 152.254 27.933 152.147 25.8767H170ZM152.147 22.8097C152.968 19.0456 156.182 18 158.467 18C160.895 18 164.251 19.1153 164.858 22.8097H152.147Z" fill="white"/>
<path d="M70.5962 11.9677L67.2642 5L53.0479 34.1774H60.6003L70.5962 11.9677Z" fill="white"/>
<path d="M80.592 33.7417L72.5953 16.7578L67.042 29.3868L72.151 29.6046L74.1502 33.7417H80.592Z" fill="white"/>
</svg>
