<svg width="16" height="14" viewBox="0 0 16 14" xmlns="http://www.w3.org/2000/svg">
<path d="M15.2998 0.173419C14.4562 0.622893 13.1232 1.47583 12.2518 2.1235C10.5057 3.41883 8.94696 4.95129 7.85344 6.45543C7.41603 7.05355 7.05847 7.6269 6.76686 8.18962L6.54469 8.61079L6.40583 8.44798C6.32598 8.35597 5.81915 7.75785 5.27412 7.11726C4.7291 6.47667 4.23962 5.92456 4.1806 5.89271C4.08687 5.84316 3.89594 5.83608 2.34765 5.8467L0.615374 5.85732L0.532058 5.95641C0.39667 6.11921 0.417499 6.29263 0.598016 6.50498C0.677861 6.60054 2.22615 8.3135 4.03827 10.3096C5.96148 12.4295 7.3709 13.9549 7.42645 13.9797C7.56531 14.0363 7.75971 13.9691 7.8222 13.8452C7.8465 13.7921 7.93329 13.5019 8.01313 13.2011C8.95044 9.65838 10.8632 6.0909 13.4217 3.10739C13.9598 2.48095 14.9353 1.47583 15.4873 0.983888C15.7476 0.753842 15.9698 0.537953 15.9802 0.50964C16.0115 0.4247 16.0045 0.251281 15.9663 0.173419C15.9247 0.0990963 15.758 0 15.6747 0C15.6435 0 15.4768 0.0778618 15.2998 0.173419Z"/>
</svg>
