<svg width="34" height="30" viewBox="0 0 34 30" fill="none" xmlns="http://www.w3.org/2000/svg">
<path fill-rule="evenodd" clip-rule="evenodd" d="M24.7241 24C22.156 27.0569 18.3048 29 13.9999 29C8.81791 29 4.2935 26.1846 1.87284 22H0.72998C3.24497 26.7578 8.2438 30 13.9999 30C18.9073 30 23.2644 27.6433 26.001 24H24.7241ZM25.1804 5C22.4338 1.93125 18.4424 0 13.9999 0C8.2438 0 3.24497 3.2422 0.72998 8H1.87284C4.2935 3.81539 8.81791 1 13.9999 1C17.8145 1 21.2728 2.52563 23.7979 5H25.1804Z" fill="#BE05FF"/>
<path d="M34 13.8667C27.8321 13.36 23.2919 7.74444 21.7928 5C20.5078 12.6 25.6477 13.8667 28.2176 14.5C18.5803 16.4 21.1503 22.1 21.7928 24C24.3627 17.0333 30.1451 15.1333 34 13.8667Z" fill="#BE05FF"/>
</svg>
