<svg width="100" height="23" viewBox="0 0 100 23" fill="none" xmlns="http://www.w3.org/2000/svg">
<path d="M33.64 15.755C32.6046 15.755 31.6382 15.525 30.7638 15.065C29.9124 14.605 29.2221 13.961 28.6929 13.11C28.1867 12.259 27.9336 11.316 27.9336 10.281C27.9336 9.24596 28.1867 8.30296 28.6929 7.47496C29.1991 6.64696 29.8894 6.00296 30.7638 5.51996C31.6382 5.05996 32.5816 4.82996 33.64 4.82996C34.6754 4.82996 35.6418 5.05996 36.4932 5.51996C37.3676 5.97996 38.0579 6.62396 38.5411 7.47496C39.0473 8.30296 39.3004 9.24596 39.3004 10.281C39.3004 11.316 39.0473 12.259 38.5411 13.11C38.0349 13.938 37.3446 14.582 36.4932 15.065C35.6418 15.525 34.6754 15.755 33.64 15.755ZM33.64 13.386C34.5144 13.386 35.2277 13.11 35.7569 12.535C36.2861 11.96 36.5622 11.224 36.5622 10.281C36.5622 9.33796 36.2861 8.57895 35.7569 8.02695C35.2277 7.45195 34.5374 7.17596 33.64 7.17596C32.7426 7.17596 32.0293 7.45195 31.5001 8.00395C30.9709 8.55595 30.7178 9.31495 30.7178 10.258C30.7178 11.201 30.9709 11.96 31.5001 12.512C32.0293 13.11 32.7426 13.386 33.64 13.386Z" fill="white"/>
<path d="M43.488 8.37196C43.7411 7.98096 44.1093 7.65897 44.5695 7.40597C45.0297 7.15297 45.5819 7.03796 46.2032 7.03796C46.9395 7.03796 47.5838 7.22196 48.182 7.56696C48.7803 7.91196 49.2405 8.41797 49.5626 9.08497C49.9077 9.75197 50.0918 10.511 50.0918 11.385C50.0918 12.259 49.9077 13.018 49.5626 13.685C49.2174 14.352 48.7573 14.858 48.182 15.226C47.5838 15.571 46.9395 15.755 46.2032 15.755C45.6049 15.755 45.0527 15.64 44.5695 15.387C44.1093 15.134 43.7411 14.835 43.488 14.444V18.147H40.7959V7.15296H43.488V8.37196ZM47.3307 11.385C47.3307 10.741 47.1466 10.235 46.7554 9.86696C46.3873 9.49896 45.9271 9.31497 45.3748 9.31497C44.8456 9.31497 44.3854 9.49896 43.9943 9.86696C43.6261 10.235 43.442 10.764 43.442 11.408C43.442 12.052 43.6261 12.558 43.9943 12.949C44.3624 13.317 44.8226 13.501 45.3748 13.501C45.9041 13.501 46.3643 13.317 46.7554 12.949C47.1466 12.558 47.3307 12.052 47.3307 11.385Z" fill="white"/>
<path d="M59.779 11.27C59.779 11.523 59.756 11.776 59.7329 12.029H53.6354C53.6814 12.558 53.8425 12.972 54.1646 13.248C54.4867 13.524 54.8549 13.662 55.3151 13.662C55.9824 13.662 56.4656 13.386 56.7187 12.834H59.5949C59.4568 13.386 59.1807 13.892 58.7895 14.329C58.4214 14.766 57.9382 15.134 57.3629 15.387C56.7877 15.64 56.1434 15.778 55.4301 15.778C54.5788 15.778 53.7964 15.594 53.1292 15.249C52.4619 14.904 51.9327 14.398 51.5645 13.731C51.1963 13.064 50.9893 12.305 50.9893 11.431C50.9893 10.557 51.1733 9.77499 51.5415 9.13099C51.9096 8.46399 52.4389 7.95799 53.1061 7.61299C53.7734 7.26799 54.5558 7.08398 55.4301 7.08398C56.2815 7.08398 57.0408 7.24499 57.7081 7.58999C58.3754 7.93499 58.8816 8.41799 59.2497 9.06199C59.5949 9.68299 59.779 10.419 59.779 11.27ZM57.0178 10.58C57.0178 10.143 56.8567 9.77499 56.5346 9.52199C56.2125 9.26899 55.8213 9.13099 55.3611 9.13099C54.9009 9.13099 54.5328 9.26899 54.2106 9.52199C53.9115 9.77499 53.7274 10.143 53.6354 10.603H57.0178V10.58Z" fill="white"/>
<path d="M66.5668 7.08398C67.6023 7.08398 68.4076 7.40599 69.0289 8.04999C69.6501 8.69399 69.9493 9.56799 69.9493 10.695V15.64H67.2801V11.04C67.2801 10.465 67.1191 10.028 66.8199 9.72898C66.5208 9.40698 66.1066 9.26898 65.6004 9.26898C65.0942 9.26898 64.68 9.42998 64.3809 9.72898C64.0818 10.051 63.9207 10.488 63.9207 11.04V15.64H61.2056V7.15299H63.8977V8.27999C64.1738 7.91199 64.542 7.61299 65.0022 7.40599C65.4624 7.19899 65.9916 7.08398 66.5668 7.08398Z" fill="white"/>
<path d="M75.817 15.755C75.0117 15.755 74.2754 15.617 73.6311 15.364C72.9868 15.111 72.4806 14.743 72.0895 14.237C71.7213 13.731 71.5142 13.133 71.4912 12.443H74.3674C74.4134 12.834 74.5515 13.133 74.8046 13.363C75.0347 13.57 75.3568 13.662 75.748 13.662C76.1392 13.662 76.4613 13.57 76.6914 13.409C76.9215 13.225 77.0365 12.972 77.0365 12.673C77.0365 12.42 76.9445 12.19 76.7604 12.029C76.5764 11.868 76.3463 11.707 76.0932 11.615C75.84 11.5 75.4489 11.385 74.9657 11.224C74.2524 11.017 73.6771 10.81 73.2169 10.58C72.7567 10.373 72.3656 10.051 72.0434 9.63695C71.7213 9.22295 71.5602 8.67095 71.5602 8.00395C71.5602 7.01495 71.9284 6.23296 72.6877 5.68096C73.424 5.10596 74.4134 4.82996 75.6099 4.82996C76.8295 4.82996 77.8189 5.10596 78.5552 5.68096C79.2915 6.23296 79.7057 7.01495 79.7517 8.02695H76.8295C76.8064 7.68195 76.6684 7.40595 76.4383 7.22195C76.2082 7.01495 75.8861 6.92295 75.5179 6.92295C75.1958 6.92295 74.9197 7.01496 74.7356 7.17596C74.5285 7.33696 74.4364 7.56695 74.4364 7.88895C74.4364 8.23395 74.5975 8.50995 74.9427 8.69395C75.2878 8.87795 75.794 9.08496 76.5073 9.31496C77.2206 9.54496 77.7959 9.77495 78.233 9.98195C78.6932 10.189 79.0844 10.511 79.4065 10.902C79.7287 11.316 79.8898 11.822 79.8898 12.466C79.8898 13.064 79.7287 13.616 79.4065 14.122C79.0844 14.628 78.6242 15.019 78.026 15.318C77.3817 15.617 76.6684 15.755 75.817 15.755Z" fill="white"/>
<path d="M89.8068 11.27C89.8068 11.523 89.7838 11.776 89.7608 12.029H83.6632C83.7092 12.558 83.8703 12.972 84.1924 13.248C84.5146 13.524 84.8827 13.662 85.3429 13.662C86.0102 13.662 86.4934 13.386 86.7465 12.834H89.6227C89.4847 13.386 89.2085 13.892 88.8174 14.329C88.4492 14.766 87.966 15.134 87.3908 15.387C86.8155 15.64 86.1713 15.778 85.458 15.778C84.6066 15.778 83.8243 15.594 83.157 15.249C82.4897 14.904 81.9605 14.398 81.5923 13.731C81.2242 13.064 81.0171 12.305 81.0171 11.431C81.0171 10.557 81.2012 9.77499 81.5693 9.13099C81.9375 8.46399 82.4667 7.95799 83.134 7.61299C83.8013 7.26799 84.5836 7.08398 85.458 7.08398C86.3093 7.08398 87.0686 7.24499 87.7359 7.58999C88.4032 7.93499 88.9094 8.41799 89.2776 9.06199C89.6227 9.68299 89.8068 10.419 89.8068 11.27ZM87.0456 10.58C87.0456 10.143 86.8846 9.77499 86.5624 9.52199C86.2403 9.26899 85.8491 9.13099 85.3889 9.13099C84.9287 9.13099 84.5606 9.26899 84.2384 9.52199C83.9393 9.77499 83.7552 10.143 83.6632 10.603H87.0456V10.58Z" fill="white"/>
<path d="M90.7041 11.385C90.7041 10.511 90.8652 9.75197 91.2103 9.08497C91.5555 8.41797 92.0157 7.91196 92.6139 7.56696C93.2122 7.22196 93.8564 7.03796 94.5927 7.03796C95.214 7.03796 95.7432 7.15297 96.2264 7.40597C96.7096 7.65897 97.0548 7.95796 97.3079 8.37196V7.17597H100V15.663H97.3079V14.467C97.0548 14.858 96.6866 15.18 96.2034 15.433C95.7432 15.686 95.191 15.801 94.5697 15.801C93.8564 15.801 93.2122 15.617 92.6139 15.272C92.0157 14.904 91.5555 14.398 91.2103 13.731C90.8652 13.041 90.7041 12.259 90.7041 11.385ZM97.2849 11.408C97.2849 10.764 97.1008 10.258 96.7096 9.86696C96.3415 9.49896 95.8813 9.31497 95.3521 9.31497C94.8228 9.31497 94.3626 9.49896 93.9715 9.86696C93.6033 10.235 93.4192 10.741 93.4192 11.385C93.4192 12.029 93.6033 12.558 93.9715 12.926C94.3396 13.294 94.7998 13.478 95.3521 13.478C95.8813 13.478 96.3415 13.294 96.7096 12.926C97.1008 12.581 97.2849 12.052 97.2849 11.408Z" fill="white"/>
<path d="M23.0097 11.5C23.0097 17.848 17.8555 23 11.5048 23C5.15417 23 0 17.848 0 11.5C0 5.152 5.15417 0 11.5048 0C17.8555 0 23.0097 5.152 23.0097 11.5Z" fill="#2081E2"/>
<path d="M5.68307 11.8911L5.7291 11.8221L8.72036 7.15307C8.76638 7.08407 8.85841 7.08407 8.90443 7.17607C9.41065 8.30307 9.82482 9.68307 9.64074 10.5571C9.5487 10.9251 9.31861 11.4081 9.04249 11.8451C9.01948 11.9141 8.97346 11.9831 8.92744 12.0291C8.90443 12.0521 8.88142 12.0751 8.8354 12.0751H5.7521C5.68308 12.0521 5.63706 11.9601 5.68307 11.8911Z" fill="white"/>
<path d="M19.0056 12.765V13.501C19.0056 13.547 18.9826 13.57 18.9365 13.593C18.7064 13.685 17.9011 14.053 17.579 14.513C16.7276 15.686 16.0833 17.365 14.6567 17.365H8.65121C6.53432 17.365 4.80859 15.64 4.80859 13.501V13.432C4.80859 13.386 4.85461 13.34 4.90063 13.34H8.28306C8.35209 13.34 8.39811 13.409 8.39811 13.455C8.3751 13.662 8.42112 13.892 8.51315 14.099C8.72024 14.513 9.13442 14.743 9.5716 14.743H11.2283V13.455H9.59461C9.50257 13.455 9.45655 13.363 9.50257 13.294C9.52558 13.271 9.54859 13.248 9.5716 13.202C9.73267 12.972 9.93975 12.65 10.1699 12.259C10.3309 12.006 10.469 11.707 10.584 11.431C10.607 11.385 10.63 11.339 10.6531 11.27C10.6761 11.178 10.7221 11.086 10.7451 11.017C10.7681 10.948 10.7911 10.879 10.8141 10.81C10.8601 10.58 10.8832 10.327 10.8832 10.051C10.8832 9.95897 10.8832 9.84397 10.8601 9.72897C10.8601 9.61397 10.8371 9.49897 10.8371 9.38397C10.8371 9.29197 10.8141 9.17698 10.7911 9.08498C10.7681 8.92398 10.7451 8.78598 10.6991 8.62498L10.6761 8.57897C10.6531 8.48697 10.63 8.37198 10.584 8.27998C10.492 7.95798 10.3769 7.63598 10.2619 7.35998C10.2159 7.24498 10.1699 7.12998 10.1238 7.01498C10.0548 6.85398 9.98577 6.69298 9.91675 6.55498C9.89374 6.48598 9.84772 6.43997 9.82471 6.37097C9.8017 6.30197 9.75568 6.23297 9.73267 6.16397C9.70966 6.11797 9.68665 6.07197 9.66364 6.02597L9.45655 5.65797C9.43354 5.61197 9.47956 5.54297 9.52558 5.56597L10.7911 5.91097L10.9522 5.95697L11.1363 6.00297L11.2053 6.02597V5.26697C11.2053 4.89897 11.5044 4.59998 11.8496 4.59998C12.0336 4.59998 12.1947 4.66897 12.3098 4.78397C12.4248 4.89897 12.4938 5.05997 12.4938 5.24397V6.34797L12.6319 6.39397C12.6319 6.39397 12.6549 6.39397 12.6549 6.41697C12.6779 6.43997 12.7239 6.48597 12.793 6.53197C12.839 6.57797 12.885 6.62398 12.954 6.66998C13.0691 6.76198 13.2301 6.89997 13.3912 7.03797C13.4372 7.08397 13.4832 7.10697 13.5063 7.15297C13.7133 7.33697 13.9434 7.56698 14.1735 7.81998C14.2426 7.88898 14.2886 7.95797 14.3576 8.02697C14.4266 8.09597 14.4727 8.18797 14.5417 8.25697C14.6107 8.34897 14.7028 8.46397 14.7718 8.55597C14.7948 8.60197 14.8408 8.64797 14.8638 8.71697C14.9559 8.85497 15.0249 8.99297 15.1169 9.13097C15.1399 9.19998 15.186 9.26897 15.209 9.33797C15.301 9.52197 15.37 9.70597 15.3931 9.91297C15.4161 9.95897 15.4161 10.005 15.4161 10.028C15.4391 10.074 15.4391 10.143 15.4391 10.212C15.4621 10.419 15.4391 10.603 15.4161 10.81C15.3931 10.902 15.37 10.971 15.347 11.063C15.324 11.132 15.301 11.224 15.255 11.316C15.186 11.477 15.0939 11.638 15.0019 11.799C14.9789 11.845 14.9329 11.914 14.8868 11.983C14.8408 12.052 14.7948 12.098 14.7718 12.167C14.7258 12.236 14.6567 12.305 14.6107 12.374C14.5647 12.443 14.5187 12.512 14.4497 12.581C14.3806 12.673 14.2886 12.765 14.2196 12.857C14.1735 12.903 14.1275 12.972 14.0585 13.018C14.0125 13.064 13.9665 13.133 13.8974 13.179C13.8284 13.248 13.7594 13.317 13.6903 13.363L13.5523 13.478C13.5293 13.501 13.5063 13.501 13.4832 13.501H12.4708V14.789H13.7364C14.0125 14.789 14.2886 14.697 14.4957 14.513C14.5647 14.444 14.8868 14.168 15.278 13.754C15.301 13.731 15.301 13.731 15.324 13.731L18.8215 12.719C18.9596 12.65 19.0056 12.696 19.0056 12.765Z" fill="white"/>
</svg>
