<svg width="70" height="70" viewBox="0 0 70 70" fill="none" xmlns="http://www.w3.org/2000/svg">
<path d="M70 35C70 54.3289 54.3289 70 35 70C15.6711 70 0 54.3289 0 35C0 15.6711 15.6711 0 35 0C54.333 0 70 15.6711 70 35Z" fill="#BE05FF"/>
<path d="M17.3795 37.5567L17.5195 37.3367L25.9595 24.1333C26.0828 23.94 26.3728 23.96 26.4661 24.17C27.8762 27.33 29.0928 31.26 28.5228 33.7067C28.2795 34.7134 27.6128 36.0767 26.8628 37.3367C26.7662 37.52 26.6595 37.7 26.5461 37.8734C26.4928 37.9534 26.4028 38 26.3061 38H17.6262C17.3928 38 17.2562 37.7467 17.3795 37.5567Z" fill="white"/>
<path d="M55 40.01V42.1C55 42.22 54.9266 42.3267 54.82 42.3733C54.1667 42.6533 51.93 43.68 51 44.9733C48.6266 48.2767 46.8133 53 42.76 53H25.85C19.8567 53 15 48.1267 15 42.1133V41.92C15 41.76 15.13 41.63 15.29 41.63H24.7167C24.9033 41.63 25.04 41.8033 25.0234 41.9866C24.9566 42.6 25.07 43.2267 25.36 43.7966C25.92 44.9334 27.08 45.6434 28.3333 45.6434H33V42H28.3866C28.15 42 28.01 41.7266 28.1467 41.5333C28.1966 41.4566 28.2534 41.3767 28.3133 41.2867C28.75 40.6667 29.3733 39.7034 29.9933 38.6067C30.4167 37.8667 30.8266 37.0767 31.1567 36.2834C31.2234 36.14 31.2766 35.9933 31.33 35.85C31.42 35.5966 31.5133 35.36 31.58 35.1234C31.6467 34.9233 31.7 34.7133 31.7533 34.5166C31.91 33.8433 31.9766 33.13 31.9766 32.39C31.9766 32.1 31.9633 31.7967 31.9367 31.5067C31.9233 31.19 31.8833 30.8733 31.8433 30.5566C31.8166 30.2767 31.7667 30 31.7133 29.71C31.6467 29.2867 31.5533 28.8667 31.4466 28.4433L31.41 28.2834C31.33 27.9933 31.2633 27.7167 31.17 27.4267C30.9066 26.5166 30.6034 25.63 30.2833 24.8C30.1667 24.47 30.0333 24.1533 29.9 23.8367C29.7034 23.36 29.5033 22.9267 29.32 22.5167C29.2267 22.33 29.1467 22.16 29.0667 21.9867C28.9767 21.79 28.8834 21.5933 28.79 21.4067C28.7233 21.2634 28.6466 21.13 28.5933 20.9967L28.0233 19.9433C27.9433 19.8 28.0767 19.63 28.2333 19.6733L31.8 20.64H31.81C31.8166 20.64 31.82 20.6433 31.8233 20.6433L32.2933 20.7733L32.81 20.92L33 20.9733V18.8533C33 17.83 33.82 17 34.8334 17C35.34 17 35.8 17.2067 36.13 17.5433C36.46 17.88 36.6666 18.34 36.6666 18.8533V22L37.0467 22.1066C37.0767 22.1167 37.1066 22.13 37.1333 22.15C37.2267 22.22 37.36 22.3233 37.53 22.45C37.6633 22.5566 37.8067 22.6867 37.98 22.82C38.3233 23.0966 38.7333 23.4533 39.1833 23.8634C39.3033 23.9667 39.42 24.0733 39.5267 24.18C40.1067 24.72 40.7567 25.3533 41.3767 26.0533C41.55 26.25 41.72 26.45 41.8933 26.66C42.0666 26.8733 42.25 27.0833 42.41 27.2934C42.62 27.5733 42.8467 27.8633 43.0433 28.1667C43.1366 28.31 43.2433 28.4567 43.3333 28.6C43.5866 28.9833 43.81 29.38 44.0233 29.7767C44.1133 29.96 44.2067 30.16 44.2867 30.3567C44.5233 30.8867 44.71 31.4267 44.83 31.9667C44.8666 32.0833 44.8933 32.21 44.9067 32.3234V32.35C44.9466 32.51 44.96 32.68 44.9733 32.8533C45.0266 33.4067 45 33.96 44.88 34.5166C44.83 34.7534 44.7633 34.9766 44.6833 35.2134C44.6033 35.44 44.5233 35.6767 44.42 35.9C44.22 36.3633 43.9833 36.8267 43.7033 37.26C43.6133 37.42 43.5066 37.59 43.4 37.75C43.2833 37.92 43.1633 38.08 43.0566 38.2367C42.91 38.4367 42.7534 38.6467 42.5933 38.8333C42.45 39.03 42.3034 39.2267 42.1433 39.4C41.92 39.6633 41.7066 39.9133 41.4833 40.1534C41.35 40.31 41.2067 40.47 41.06 40.6134C40.9167 40.7733 40.77 40.9166 40.6366 41.05C40.4134 41.2733 40.2267 41.4466 40.07 41.59L39.7033 41.9267C39.65 41.9733 39.58 42 39.5067 42H36.6666V45.6434H40.24C41.04 45.6434 41.8 45.36 42.4133 44.84C42.6233 44.6567 43.54 43.8633 44.6233 42.6667C44.66 42.6266 44.7067 42.5967 44.76 42.5834L54.63 39.73C54.8134 39.6767 55 39.8167 55 40.01Z" fill="white"/>
</svg>
