<svg width="34" height="30" viewBox="0 0 34 30" fill="none" xmlns="http://www.w3.org/2000/svg">
<path fill-rule="evenodd" clip-rule="evenodd" d="M10.0059 6C12.574 2.94305 16.4251 1 20.7301 1C25.9121 1 30.4365 3.81539 32.8571 8H34C31.485 3.2422 26.4862 0 20.7301 0C15.8226 0 11.4656 2.35666 8.72899 6H10.0059ZM9.54956 25C12.2962 28.0687 16.2876 30 20.7301 30C26.4862 30 31.485 26.7578 34 22H32.8571C30.4365 26.1846 25.9121 29 20.7301 29C16.9155 29 13.4572 27.4744 10.9321 25H9.54956Z" fill="#BE05FF"/>
<path d="M0.72998 16.1333C6.89785 16.64 11.4381 22.2556 12.9372 25C14.2222 17.4 9.08231 16.1333 6.51236 15.5C16.1497 13.6 13.5797 7.9 12.9372 6C10.3673 12.9667 4.5849 14.8667 0.72998 16.1333Z" fill="#BE05FF"/>
</svg>
