<svg width="50" height="35" viewBox="0 0 50 35" fill="none" xmlns="http://www.w3.org/2000/svg">
<g opacity="0.1">
<path d="M8.82026 0.987595C4.53204 5.11585 1.52345 10.8297 0.390345 16.9689C-0.0101489 19.1829 -0.127367 23.1274 0.15591 25.0127C0.448954 26.9753 1.19133 28.8799 2.25606 30.4075C4.90323 34.207 9.758 35.8699 14.3393 34.5551C16.1366 34.0427 17.5921 33.1725 19.0084 31.7707C20.3857 30.4075 21.1184 29.2473 21.6947 27.5457C22.6422 24.7517 22.4371 21.7159 21.1379 19.1152C19.5652 15.9537 16.4199 13.6431 13.0401 13.15C11.6335 12.947 11.78 13.0727 11.8484 12.0962C11.9949 10.0659 12.7666 8.0066 14.2318 5.6766C15.0914 4.33274 15.1696 4.5261 12.6884 2.07042C10.0706 -0.510952 10.3148 -0.443275 8.82026 0.987595ZM12.5126 5.25121C11.5553 6.80776 10.7446 8.78004 10.4027 10.4526C10.1878 11.4678 10.1487 13.4304 10.3343 13.9524C10.5199 14.4455 10.7544 14.5712 11.7214 14.6389C15.2672 14.9193 18.3051 16.9882 19.7801 20.14C20.4346 21.5322 20.5616 22.1896 20.5518 24.0266C20.5518 25.5348 20.5225 25.7475 20.2783 26.5402C19.2917 29.75 16.7227 32.2154 13.4797 33.0758C12.3173 33.3852 9.98267 33.3949 8.8691 33.0855C5.01068 32.0317 2.37328 28.8702 1.75789 24.568C1.61136 23.5045 1.6309 20.1593 1.80673 18.8058C2.07047 16.6885 2.51003 14.8226 3.17427 12.9566C4.54181 9.11842 6.86663 5.37689 9.758 2.38946L10.2073 1.93507L11.5553 3.26925L12.9131 4.61311L12.5126 5.25121Z" fill="white"/>
<path d="M36.1908 1.38406C31.4727 6.14074 28.5325 12.4636 27.8292 19.3666C27.6632 21.0295 27.7706 24.5294 28.0148 25.7185C29.1577 31.1423 33.2017 34.7485 38.3984 34.9709C41.5339 35.1062 44.2983 34.1007 46.5352 32.0028C48.313 30.3302 49.4266 28.3192 49.8662 25.9602C50.0908 24.7904 50.0225 22.4217 49.7392 21.3582C48.6256 17.2203 45.5193 14.2039 41.3679 13.2468C40.9088 13.1404 40.3715 13.0534 40.1664 13.0534C39.5608 13.0534 39.5217 12.9857 39.5998 12.0382C39.7659 10.0563 40.4985 8.09369 41.9735 5.68634C42.501 4.83555 42.5987 4.61319 42.5498 4.38116C42.501 4.1878 41.8758 3.4917 40.5083 2.13817C39.4142 1.06502 38.457 0.136883 38.3788 0.0885429C38.3007 0.0402031 38.0858 0.00152969 37.9002 0.00152969C37.5876 0.00152969 37.4411 0.127216 36.1908 1.38406ZM40.0003 5.70568C38.5351 8.24837 37.7341 11.2358 37.9881 13.2371C38.1444 14.4843 38.2128 14.5423 39.4729 14.639C43.5462 14.958 46.8185 17.5587 48.0298 21.4356C48.274 22.2187 48.2935 22.4121 48.2935 23.9783C48.2935 25.5445 48.274 25.7379 48.0298 26.521C47.1604 29.2957 45.4412 31.2873 42.8526 32.4862C41.4753 33.1243 40.6157 33.308 38.9258 33.308C37.7048 33.308 37.3239 33.2693 36.6303 33.0856C33.2799 32.1961 30.6913 29.4987 29.8024 25.9892C29.4898 24.7711 29.4117 23.9106 29.4019 21.948C29.4019 17.7037 30.2615 13.9429 32.1272 10.1046C33.4948 7.29124 34.9404 5.20294 37.275 2.66991L37.949 1.94481L39.297 3.26933L40.6353 4.59385L40.0003 5.70568Z" fill="white"/>
</g>
</svg>
