<svg width="190" height="50" viewBox="0 0 190 50" fill="none" xmlns="http://www.w3.org/2000/svg">
<mask id="mask0_1_2" style="mask-type:alpha" maskUnits="userSpaceOnUse" x="0" y="0" width="190" height="50">
<rect width="190" height="50" fill="#D9D9D9"/>
</mask>
<g mask="url(#mask0_1_2)">
<path fill-rule="evenodd" clip-rule="evenodd" d="M69.3817 37.944C69.2931 37.4991 69.0282 37.1453 68.7634 36.9673H70.1763V37.0563C70.1763 37.2343 70.2639 37.4101 70.3525 37.6771L71.7655 42.2871L73.0022 38.2978C73.0022 38.2088 73.0898 38.1199 73.0898 37.944V37.5881C73.0898 37.2343 73.0022 37.0563 72.8249 36.9673H74.1492V37.0563C74.1492 37.1453 74.1492 37.3233 74.2379 37.4101C74.2379 37.5881 74.2379 37.7661 74.3255 37.944L75.6508 42.2871L76.9752 38.2088V37.855C77.0638 37.7661 77.0638 37.6771 77.0638 37.6771C77.0638 37.3233 76.8876 37.0563 76.5341 36.9673H78.0346L76.0043 43.7945L75.5622 43.5276L75.2087 43.2628C75.1211 43.1738 75.1211 43.1738 75.1211 43.0848C75.0335 43.0848 75.0335 42.9958 74.9449 42.9958V42.8179C74.8573 42.7289 74.8573 42.642 74.7687 42.553L73.6206 38.7395L72.0303 43.7935C71.9428 43.7045 71.7655 43.6155 71.5893 43.4375C71.5006 43.4375 71.412 43.3486 71.3244 43.2617C71.1482 43.1727 71.0595 42.9948 70.9719 42.9058C70.8562 42.6495 70.7675 42.3818 70.7071 42.1071L69.3817 37.944V37.944ZM79.8907 38.1199V37.3233C79.8219 37.1645 79.6961 37.0374 79.5383 36.9673H82.8053C82.9815 36.8784 83.0702 36.8784 83.1577 36.8784V38.0309C82.9815 37.855 82.8053 37.7661 82.7167 37.7661C82.5394 37.6771 82.4518 37.6771 82.3632 37.6771H80.9513V39.6283H82.0983C82.2745 39.5393 82.4507 39.5393 82.5394 39.5393V40.6029C82.4518 40.4249 82.0983 40.2491 81.7448 40.2491H80.9502V42.6431L81.6561 42.7299L82.2745 42.8189H82.4507C82.8042 42.8189 83.0691 42.7299 83.2453 42.6431C83.5102 42.5541 83.775 42.3761 84.0399 42.1982L83.5988 43.5286H79.5362V43.4397C79.8011 43.3507 79.8886 43.0859 79.8886 42.5541V38.1199H79.8907V38.1199ZM89.5166 38.8296C89.7814 38.3868 90.0463 38.0309 90.3987 37.6771C90.7994 37.3702 91.247 37.1305 91.7241 36.9673C92.1652 36.7915 92.696 36.7915 93.3133 36.7915C93.6657 36.7915 94.1965 36.7915 94.9024 36.9673V38.1199H94.8138C94.7262 37.944 94.4614 37.7661 94.1079 37.6771C93.7362 37.5605 93.3492 37.5005 92.9598 37.4991C92.7835 37.4991 92.696 37.4991 92.5187 37.5881C92.3425 37.5881 92.1662 37.5881 91.9889 37.6771C91.6354 37.7661 91.3706 37.944 91.1057 38.2088C90.9295 38.4758 90.7522 38.7406 90.576 39.0965C90.3987 39.3614 90.3987 39.8041 90.3987 40.1601C90.3987 40.6918 90.4874 41.1346 90.7522 41.5774C91.0171 41.9333 91.2819 42.2871 91.7241 42.5541C91.9003 42.6431 92.1652 42.7299 92.3424 42.8189C92.5187 42.9079 92.696 42.9079 92.9598 42.9079H93.9316C94.1965 42.8189 94.3727 42.8189 94.55 42.7299V41.3126C94.55 40.9567 94.55 40.6918 94.4614 40.5139C94.3738 40.4249 94.2851 40.2491 94.1079 40.1601H95.6094C95.6094 40.2491 95.5208 40.5139 95.5208 40.8698V42.9969C95.5208 43.0859 95.6094 43.2638 95.6094 43.3507L94.9921 43.4397L94.1089 43.6176C93.7565 43.7066 93.4916 43.7066 93.2267 43.7066C92.5197 43.7066 91.9014 43.5286 91.2841 43.3507C90.6657 43.0859 90.2246 42.7299 89.7825 42.1982C89.43 41.6664 89.2527 40.9567 89.2527 40.2491C89.2517 39.7152 89.3403 39.1834 89.5166 38.8296V38.8296ZM98.1726 40.248C98.1726 39.7141 98.2612 39.1823 98.4364 38.7395C98.7023 38.3857 98.9661 38.0298 99.3207 37.854C99.4874 37.6921 99.7074 37.5971 99.939 37.587C100.114 37.4981 100.38 37.4981 100.557 37.4981C101.087 37.4981 101.528 37.587 101.881 37.854C102.235 38.0298 102.499 38.3857 102.676 38.7395C102.942 39.0955 103.117 39.5383 103.117 39.9811V40.7798C103.117 40.9556 103.029 41.0446 103.029 41.2225C102.942 41.4874 102.765 41.7543 102.588 42.0213C102.413 42.2861 102.147 42.553 101.881 42.642L101.351 42.9068H100.821C100.291 42.9068 99.8504 42.8179 99.4959 42.553C99.09 42.3218 98.7545 41.9842 98.525 41.5764C98.4364 41.4005 98.3478 41.1336 98.2612 40.9556C98.1726 40.6908 98.1726 40.5128 98.1726 40.248ZM97.0245 40.248V40.3349C97.0245 40.8687 97.1997 41.4005 97.4656 41.9323C97.818 42.464 98.2612 42.9068 98.791 43.1738C99.4093 43.5276 100.026 43.7055 100.733 43.7055C101.087 43.7055 101.44 43.6166 101.705 43.5276C102.058 43.4386 102.324 43.2628 102.588 43.1738C103.117 42.8179 103.561 42.3751 103.824 41.7543C104.09 41.2225 104.265 40.6908 104.265 40.07C104.265 39.8031 104.265 39.6272 104.177 39.3603C104.09 39.1823 104.002 38.9175 103.913 38.7395C103.752 38.3175 103.476 37.9491 103.117 37.676C102.942 37.4981 102.765 37.3222 102.588 37.2332C102.389 37.1277 102.182 37.0384 101.969 36.9663C101.528 36.7904 101.087 36.7904 100.557 36.7904C100.114 36.7904 99.6731 36.8773 99.232 37.0553C98.9661 37.1442 98.791 37.2332 98.6137 37.3222C98.4364 37.4091 98.2612 37.587 98.084 37.765C97.8955 37.8642 97.7417 38.0186 97.6429 38.2078C97.5542 38.4747 97.377 38.6506 97.2883 38.8285C97.1154 39.2817 97.026 39.7627 97.0245 40.248V40.248ZM111.065 37.6771H110.181C109.651 37.6771 109.21 37.7661 109.033 38.0309H108.944L109.299 36.8784H109.474C109.563 36.8784 109.651 36.9673 109.829 36.9673H113.537C113.803 36.9673 113.98 36.8784 114.066 36.8784H114.155L113.803 38.0309C113.714 37.944 113.714 37.855 113.625 37.855C113.625 37.7661 113.537 37.7661 113.45 37.7661C113.45 37.6771 113.362 37.6771 113.273 37.6771H112.036V42.4651C112.036 42.7299 112.036 42.9079 112.125 42.9969C112.213 43.1748 112.3 43.3507 112.566 43.4397V43.5286H110.622V43.4397C110.888 43.3507 111.065 43.0859 111.065 42.5541V37.6771ZM115.658 38.2088V37.944C115.658 37.6771 115.658 37.4991 115.569 37.3233C115.569 37.1453 115.392 37.0563 115.217 36.9673H117.07C116.894 37.0563 116.806 37.1453 116.806 37.3233C116.717 37.4991 116.717 37.855 116.717 38.2088V39.6283H120.25V38.1199C120.25 37.855 120.25 37.5881 120.161 37.4101C120.161 37.1453 119.984 37.0563 119.809 36.9673H121.664C121.575 37.0563 121.398 37.1453 121.31 37.3233C121.31 37.4991 121.221 37.7661 121.221 38.1199V42.5541C121.221 43.0859 121.398 43.3507 121.664 43.4397V43.5286H119.809V43.4397C120.073 43.3507 120.25 43.0859 120.25 42.5541V40.2491H116.717V42.5541C116.717 43.0859 116.806 43.3507 117.07 43.4397V43.5286H115.217V43.4397C115.48 43.3507 115.658 43.0859 115.658 42.5541V38.2088V38.2088ZM123.959 38.1199C123.959 37.7661 123.959 37.5881 123.871 37.3233C123.871 37.1453 123.693 37.0563 123.516 36.9673H126.785C126.962 36.8784 127.049 36.8784 127.138 36.8784V38.0309C126.962 37.855 126.785 37.7661 126.696 37.7661C126.519 37.6771 126.431 37.6771 126.344 37.6771H124.93V39.6283H126.078C126.344 39.5393 126.431 39.5393 126.519 39.5393L126.608 40.6029C126.493 40.4855 126.356 40.3934 126.204 40.3324C126.052 40.2715 125.889 40.2431 125.726 40.2491H124.93V42.6431L125.726 42.7299L126.255 42.8189H126.519C126.785 42.8189 127.049 42.7299 127.315 42.6431C127.579 42.5541 127.756 42.3761 128.022 42.1982L127.579 43.5286H123.516V43.4397C123.782 43.3507 123.959 43.0859 123.959 42.5541V38.1199V38.1199ZM134.821 42.7289V37.765C135.173 37.676 135.439 37.676 135.703 37.676C136.146 37.676 136.587 37.765 137.028 37.854C137.383 38.0298 137.735 38.2968 138.001 38.6506C138.176 39.0955 138.442 39.6272 138.354 40.248V40.5128C138.354 40.7798 138.265 41.0446 138.176 41.2225C138.176 41.4005 138.001 41.6653 137.913 41.8433C137.647 42.1971 137.294 42.3751 136.853 42.553C136.41 42.7289 135.969 42.8179 135.528 42.8179C135.439 42.8179 135.35 42.8179 135.173 42.7289H134.821ZM133.85 42.464C133.85 42.9958 133.673 43.2628 133.407 43.4386V43.5276H135.703C136.433 43.5264 137.154 43.3758 137.824 43.0848C138.354 42.7289 138.795 42.2861 139.061 41.8433C139.149 41.5764 139.324 41.3115 139.413 41.0446C139.413 40.7798 139.502 40.5128 139.502 40.248C139.502 39.6272 139.324 39.0955 139.061 38.5616C138.795 38.0298 138.354 37.676 137.824 37.3222C137.294 37.0553 136.587 36.8773 135.88 36.9663H133.407C133.673 37.0553 133.85 37.3222 133.85 37.854V42.464V42.464ZM141.62 38.2978C141.62 37.855 141.62 37.5881 141.533 37.3233C141.533 37.1453 141.356 37.0563 141.178 36.9673H143.034L142.77 37.2343C142.681 37.3233 142.681 37.4101 142.681 37.5881C142.592 37.7661 142.592 37.944 142.592 38.2978V42.1092C142.592 42.4651 142.592 42.6431 142.681 42.8189C142.681 42.9969 142.681 43.1748 142.77 43.2638C142.856 43.3507 142.945 43.4397 143.034 43.4397V43.5286H141.178V43.4397C141.356 43.4397 141.444 43.2638 141.533 43.0859V42.6431C141.62 42.5541 141.62 42.2871 141.62 42.1092V38.2978V38.2978ZM145.066 37.4991C145.241 37.3233 145.596 37.0563 145.948 36.9673C146.301 36.7915 146.744 36.7915 147.185 36.7915C147.626 36.7915 148.156 36.8784 148.685 36.9673L148.597 38.1199C148.396 37.9228 148.156 37.7717 147.892 37.6771C147.626 37.5881 147.362 37.4991 147.008 37.4991C146.744 37.4991 146.478 37.5881 146.301 37.6771C146.037 37.7661 145.859 37.944 145.859 38.2088V38.3868C145.859 38.6516 145.948 38.9186 146.125 39.0965C146.478 39.2724 146.744 39.4503 147.185 39.6283L147.98 40.0711C148.333 40.1601 148.597 40.4249 148.863 40.6918C149.129 40.9567 149.215 41.2236 149.215 41.6664C149.215 41.8444 149.215 42.0223 149.129 42.1982C149.04 42.3761 148.951 42.5541 148.774 42.7299C148.597 42.9969 148.244 43.2638 147.803 43.4397C147.449 43.6176 146.919 43.7066 146.389 43.7066C145.948 43.7066 145.418 43.6176 144.8 43.3507L144.534 42.1092C144.889 42.3761 145.152 42.5541 145.507 42.7299C145.859 42.8189 146.301 42.9079 146.566 42.9079H147.096C147.273 42.8189 147.449 42.7299 147.626 42.6431C147.98 42.4651 148.067 42.2871 148.067 41.9333C148.067 41.4884 147.803 41.0456 147.096 40.7808L145.948 40.2491C145.771 40.1601 145.596 39.9821 145.33 39.8931C145.152 39.7152 145.066 39.5393 144.889 39.2724C144.711 39.0075 144.711 38.7406 144.711 38.4758C144.711 38.1199 144.8 37.7661 145.066 37.4991V37.4991ZM152.306 37.6771H151.424C150.894 37.6771 150.539 37.7661 150.276 38.0309H150.187L150.539 36.8784H150.805C150.805 36.8784 150.894 36.9673 151.069 36.9673H154.779C155.045 36.9673 155.22 36.8784 155.309 36.8784H155.398L155.045 38.0309C155.045 37.944 154.957 37.855 154.957 37.855C154.868 37.7661 154.779 37.7661 154.779 37.7661C154.691 37.6771 154.602 37.6771 154.513 37.6771H153.279V42.4651C153.279 42.7299 153.279 42.9079 153.365 42.9969C153.454 43.1748 153.543 43.3507 153.809 43.4397V43.5286H151.865V43.4397C152.131 43.3507 152.306 43.0859 152.306 42.5541V37.6771V37.6771ZM158.576 40.248L159.549 37.765L160.52 40.248H158.576V40.248ZM157.164 42.1081L156.987 42.464C156.984 42.6284 156.92 42.7859 156.81 42.9068L156.546 43.1738C156.457 43.3496 156.368 43.4386 156.193 43.4386V43.5276H158.046V43.4386C157.782 43.4386 157.694 43.2628 157.694 43.0848V42.8179C157.782 42.7289 157.782 42.7289 157.782 42.642L158.312 41.0446H160.872L161.491 42.7289C161.491 42.9068 161.579 43.0848 161.579 43.1738C161.579 43.2628 161.491 43.3496 161.227 43.4386V43.5276H163.257V43.4386C163.082 43.3496 162.905 43.2628 162.727 43.0848C162.639 42.9068 162.552 42.7289 162.375 42.3751L160.256 36.9673H158.665C158.842 37.0563 158.931 37.1453 158.931 37.3233C158.931 37.4101 158.931 37.5881 158.842 37.7661L157.164 42.1081V42.1081ZM165.2 38.1199C165.2 37.7661 165.111 37.4991 165.022 37.3233C165.022 37.2343 164.847 37.0563 164.67 36.9673H166.084C166.084 36.9673 166.173 37.1453 166.436 37.4101L169.969 42.0223V38.1199C169.969 37.855 169.969 37.5881 169.881 37.4101C169.881 37.2343 169.703 37.0563 169.44 36.9673H171.206L170.94 37.2343C170.852 37.3233 170.765 37.4101 170.765 37.4991C170.676 37.6771 170.676 37.855 170.676 38.1199V43.7945C170.41 43.7055 170.147 43.6166 169.969 43.4386C169.792 43.2628 169.617 43.0848 169.44 42.9068L165.907 38.2968V42.2861C165.907 42.553 165.907 42.7289 165.995 42.9068C165.995 43.0848 166.084 43.1738 166.084 43.2628C166.173 43.3496 166.259 43.3496 166.436 43.4386V43.5276H164.67V43.4386C164.847 43.3496 165.022 43.2628 165.022 43.0848C165.111 42.9068 165.2 42.642 165.2 42.2861V38.1199V38.1199ZM172.706 40.4238V40.248C172.706 39.7141 172.794 39.2713 172.971 38.8285C173.06 38.4747 173.324 38.1188 173.59 37.765C173.765 37.587 173.942 37.4091 174.12 37.3222C174.297 37.2332 174.472 37.1442 174.738 37.0553C175.179 36.8773 175.62 36.7904 176.15 36.7904C176.68 36.7904 177.298 36.8773 177.916 37.0553V38.2078C177.387 37.765 176.68 37.587 176.063 37.587C175.797 37.587 175.62 37.587 175.445 37.676C175.179 37.765 175.002 37.854 174.827 37.943C174.472 38.2078 174.208 38.4747 174.031 38.8285C173.942 39.0955 173.942 39.2713 173.854 39.4493C173.854 39.6272 173.765 39.8921 173.765 40.07C173.765 40.4238 173.854 40.7798 173.942 41.1336C174.031 41.3115 174.12 41.4005 174.208 41.5764C174.297 41.6653 174.383 41.8433 174.472 42.0213C174.738 42.2861 175.002 42.464 175.356 42.642C175.62 42.8178 175.975 42.8179 176.416 42.8179C177.034 42.8179 177.741 42.642 178.448 42.1971L177.916 43.3496C177.422 43.5938 176.878 43.7159 176.327 43.7055C175.709 43.7055 175.179 43.5276 174.649 43.3496C174.031 43.0848 173.59 42.7289 173.324 42.2861C173.147 42.0213 172.971 41.7543 172.883 41.4874C172.794 41.1336 172.706 40.8687 172.706 40.5128V40.4238V40.4238ZM180.301 38.1199C180.301 37.7661 180.301 37.5881 180.212 37.3233C180.212 37.1453 180.126 37.0563 179.86 36.9673H183.216C183.393 36.8784 183.482 36.8784 183.482 36.8784V38.0309C183.304 37.855 183.216 37.7661 183.04 37.7661C182.952 37.6771 182.863 37.6771 182.686 37.6771H181.274V39.6283H182.511C182.686 39.5393 182.863 39.5393 182.952 39.5393V40.6029C182.775 40.4249 182.511 40.2491 182.068 40.2491H181.274V42.6431L182.068 42.7299L182.686 42.8189H182.863C183.127 42.8189 183.393 42.7299 183.659 42.6431C183.923 42.5541 184.189 42.3761 184.364 42.1982L184.011 43.5286H179.86V43.4397C180.212 43.3507 180.301 43.0859 180.301 42.5541V38.1199V38.1199Z" fill="#6D6E70"/>
<path fill-rule="evenodd" clip-rule="evenodd" d="M60.7277 24.9995C60.7277 38.7407 47.569 50 31.3195 50C15.1587 50 2 38.7407 2 24.9995C2 11.1703 15.1587 0 31.3195 0C47.569 0 60.7277 11.1703 60.7277 24.9995V24.9995Z" fill="#BE05FF"/>
<path fill-rule="evenodd" clip-rule="evenodd" d="M18.6907 35.6393L22.3998 39.0079C22.9296 39.5396 23.9014 39.4507 23.9014 39.4507C36.8829 38.7409 46.9508 43.8849 46.9508 43.8849C48.8935 44.6815 46.8622 42.7302 46.8622 42.7302C35.4699 31.9159 18.6907 35.1065 18.6907 35.1065C17.9848 35.1944 18.6907 35.6393 18.6907 35.6393V35.6393Z" fill="#6D6E70"/>
<path fill-rule="evenodd" clip-rule="evenodd" d="M34.4104 1.59551C34.0569 1.41861 33.3509 2.39317 33.3509 2.39317C16.7479 25.8863 43.4178 38.4761 43.4178 38.4761C45.3605 39.2727 43.8589 37.7664 43.8589 37.7664C28.1391 18.7053 34.4979 2.83701 34.4979 2.83701C34.7639 1.95038 34.5866 1.68449 34.4104 1.59551V1.59551Z" fill="#6D6E70"/>
<path fill-rule="evenodd" clip-rule="evenodd" d="M31.232 2.48185C31.0547 2.30495 30.7899 2.39287 30.525 2.56978C6.7697 11.9668 17.2777 33.7757 17.2777 33.7757C26.7272 32.2672 34.0569 34.4833 34.0569 34.4833C35.3812 34.8392 33.8806 33.5977 33.8806 33.5977C18.9565 18.5271 30.7899 3.45535 30.7899 3.45535C31.3196 2.83672 31.3196 2.57084 31.232 2.48185V2.48185Z" fill="#6D6E70"/>
<path fill-rule="evenodd" clip-rule="evenodd" d="M69.2055 6.1163V5.67351C69.2055 5.3197 69.2055 4.96483 69.1169 4.60997C69.0293 4.34408 68.852 4.16718 68.4985 3.99028H71.7666C71.6207 4.05965 71.4905 4.15834 71.3842 4.28024C71.2778 4.40213 71.1975 4.54464 71.1482 4.69895C71.0606 4.96483 71.0606 5.4966 71.0606 6.11735V8.51137H77.1546V5.94045C77.1546 5.49766 77.1546 5.05487 77.0659 4.70001C76.9773 4.34514 76.7124 4.16824 76.3589 3.99134H79.627C79.3621 4.07926 79.1859 4.34514 79.0972 4.61102C78.921 4.87691 78.921 5.40868 78.921 5.94045V13.6532C78.921 14.5388 79.1859 15.0716 79.627 15.2485V15.3364H76.3579V15.2485C76.8876 15.0716 77.1535 14.5388 77.1535 13.6532V9.75181H71.0596V13.6532C71.0596 14.5388 71.2358 15.0716 71.7655 15.2485V15.3364H68.4975V15.2485C69.0272 15.0716 69.2045 14.5388 69.2045 13.6532V6.1163H69.2055V6.1163ZM91.9014 6.02731V5.05275C91.8299 4.83903 91.7413 4.63144 91.6365 4.432L91.1954 3.98922H94.4635C94.2873 4.07714 94.11 4.16612 94.0224 4.25404C93.9348 4.34302 93.8462 4.51993 93.7575 4.69789C93.7575 4.96377 93.6689 5.40656 93.6689 6.1163V11.1702C93.6689 12.2337 93.9338 13.0314 94.3759 13.5632C94.817 14.0949 95.4343 14.3608 96.23 14.3608C96.7597 14.3608 97.2894 14.2718 97.7305 14.006C98.1737 13.8291 98.5261 13.5632 98.7921 13.2083C99.0559 12.9424 99.2331 12.4986 99.2331 11.9668V5.93833C99.2331 4.78582 98.9672 4.16506 98.5261 3.98816H101.707C101.263 4.16506 101 4.78582 101 5.76037V13.5621C101 14.5367 101.263 15.0695 101.707 15.2464V15.3343H99.2331V14.1818C98.8786 14.6246 98.4375 14.9795 97.8191 15.2453C97.2008 15.5112 96.4959 15.6002 95.7002 15.6002C95.2591 15.6002 94.9943 15.6002 94.6408 15.5112C94.3299 15.3994 94.0334 15.2507 93.7575 15.0684C93.182 14.8281 92.7118 14.3878 92.4332 13.828C92.0808 13.2962 91.9035 12.5865 91.9035 11.8778V6.02731H91.9014ZM114.332 5.93939C114.332 5.3197 114.332 4.87585 114.155 4.69895C114.066 4.43306 113.803 4.2551 113.45 3.99028H116.01C116.01 4.0782 116.188 4.34408 116.54 4.78793L122.723 12.7666V6.02943C122.723 5.49766 122.723 5.14386 122.545 4.78899C122.457 4.43519 122.193 4.16824 121.838 3.99134H124.841L124.312 4.43412C124.134 4.52204 124.046 4.78793 124.046 4.9659C123.931 5.30864 123.872 5.66777 123.871 6.02943L123.959 15.8703C123.341 15.6934 122.898 15.5155 122.634 15.2496L121.663 14.274L115.569 6.3843V13.2104C115.569 13.6532 115.658 14.0081 115.746 14.274C115.835 14.5398 115.835 14.7167 116.01 14.8947C116.099 14.9837 116.276 15.0716 116.54 15.2496V15.3375H113.45V15.2496C113.803 15.0727 114.066 14.8947 114.155 14.5398C114.332 14.274 114.332 13.8312 114.332 13.2104V5.93939V5.93939ZM138.706 5.22966H137.294C136.321 5.22966 135.616 5.40657 135.173 5.85041H135.087L135.703 3.81126H135.792C135.88 3.89918 135.969 3.89918 136.057 3.89918C136.235 3.98816 136.321 3.98816 136.587 3.98816H143.034C143.563 3.98816 143.829 3.89918 143.918 3.81126H144.004L143.475 5.85041C143.386 5.76143 143.3 5.58453 143.211 5.49555C143.122 5.40657 143.034 5.40657 142.945 5.31864C142.856 5.31864 142.681 5.22966 142.504 5.22966H140.385V13.5632C140.385 13.918 140.471 14.2718 140.56 14.5377C140.649 14.8036 140.915 15.0695 141.356 15.2475V15.3354H137.912V15.2475C138.441 15.0706 138.705 14.5377 138.705 13.6522V5.22966H138.706V5.22966ZM155.662 6.02731C155.662 5.49555 155.575 5.05275 155.486 4.69789C155.398 4.34302 155.22 4.16612 154.868 3.98922H160.608C160.872 3.98922 161.05 3.90024 161.138 3.90024V5.85041C160.872 5.58453 160.608 5.40657 160.343 5.40657C160.167 5.31864 159.99 5.22966 159.724 5.22966H157.783L157.517 5.31864H157.341V8.51031H158.931C159.108 8.51031 159.283 8.51031 159.372 8.59823C159.724 8.51031 159.99 8.51031 160.079 8.42133L160.167 10.2836C159.901 9.92871 159.46 9.75181 158.665 9.75181H157.341V13.8301L158.665 14.006L159.638 14.0949H159.99C160.52 14.0949 160.961 14.006 161.404 13.8291C161.845 13.7401 162.286 13.4742 162.639 13.0314L161.934 15.3364H154.869V15.2485C155.399 15.0716 155.663 14.5388 155.663 13.6532V6.02731H155.662ZM174.913 6.29426V5.14174C174.913 4.87586 174.827 4.69895 174.738 4.43306C174.561 4.2551 174.472 4.16718 174.208 4.0782V3.99028H178.182C179.419 3.99028 180.301 4.2551 180.919 4.78793C181.449 5.40762 181.804 6.11735 181.715 7.09297C181.715 7.62473 181.449 8.15651 181.008 8.68828C180.467 9.2308 179.799 9.62726 179.064 9.84079L181.715 13.1214C181.892 13.3873 182.245 13.7422 182.597 14.0971C182.863 14.274 183.216 14.5398 183.57 14.8057C184.011 15.1595 184.189 15.3375 184.275 15.3375H182.511C182.068 15.3375 181.715 15.2496 181.449 15.0716C181.185 14.8947 180.919 14.6288 180.656 14.274L178.623 11.792L177.123 9.39801C177.564 9.39801 178.005 9.2211 178.448 9.04314C178.978 8.77726 179.33 8.51137 179.596 8.1565C179.949 7.80164 180.037 7.35885 180.037 6.82708C180.037 6.5612 180.037 6.29532 179.86 6.02943C179.771 5.85253 179.596 5.58665 179.33 5.49766C178.889 5.14386 178.359 5.05488 177.741 5.05488H177.298C177.123 5.05488 176.945 5.1428 176.68 5.1428V12.9445L176.768 14.185C176.768 14.4509 176.857 14.7167 176.945 14.8936C177.123 14.9826 177.211 15.1595 177.475 15.3364H174.208V15.2485C174.561 15.1595 174.738 14.8936 174.827 14.5388C174.827 14.3619 174.913 14.185 174.913 13.9191V6.29426ZM68.7634 20.2124V19.8575C68.7634 19.6806 68.6758 19.5916 68.5872 19.5027H69.8239V19.5916C69.8239 19.6806 69.8239 19.7686 69.9115 19.7686L71.2358 22.9602L72.3839 19.8565C72.4725 19.7686 72.4725 19.6796 72.4725 19.5016H73.7082L73.6206 19.5906C73.532 19.6796 73.532 19.7675 73.532 19.8565V20.0344L73.9731 23.492L74.0606 23.8458C74.0606 23.8458 74.0606 23.9337 74.1493 24.0227L74.3255 24.1996H73.0012C73.1774 24.1117 73.2661 24.0227 73.2661 23.7568V23.492L72.825 20.2113L71.2358 24.2896L71.0596 24.1127L70.972 24.0238C70.8833 23.9348 70.8833 23.8469 70.7947 23.7579C70.7947 23.7579 70.7071 23.6689 70.7071 23.581L69.2942 20.2124L68.8531 23.493V23.6689C68.8531 23.8458 68.8531 23.9348 68.9407 24.0238C68.9407 24.1127 69.0293 24.1127 69.1169 24.2007H67.9688C68.0574 24.1127 68.145 23.9348 68.2337 23.8458C68.3223 23.6689 68.3223 23.492 68.3223 23.314L68.7634 20.2124V20.2124ZM76.8 21.8967L77.506 20.1234L78.2119 21.8967H76.8ZM75.8281 23.2261L75.6519 23.492C75.6519 23.5799 75.5633 23.6689 75.5633 23.7579C75.4757 23.8458 75.3871 23.9348 75.3871 24.0238C75.2984 24.1127 75.2098 24.1127 75.1222 24.2007H76.4465C76.2703 24.1127 76.1817 24.0238 76.1817 23.8458V23.7579V23.581L76.6227 22.4284H78.3892L78.9189 23.6689C78.9189 23.7579 79.0076 23.8458 79.0076 23.9348C79.0076 24.0238 78.9189 24.1127 78.7427 24.2007H80.1556C80.0227 24.1348 79.9032 24.0446 79.8032 23.9348C79.7146 23.7579 79.6259 23.6689 79.5383 23.403L78.0367 19.5016H76.8887C76.9762 19.5016 77.0649 19.5906 77.0649 19.7675C77.0649 19.8554 77.0649 19.9444 76.9762 20.1213L75.8281 23.2261V23.2261ZM81.481 20.4783V19.9465C81.481 19.8575 81.481 19.7696 81.3924 19.6806C81.3924 19.5916 81.3048 19.5916 81.2161 19.5027H82.894C83.4237 19.5027 83.7772 19.5916 83.9534 19.8575C84.2183 20.0355 84.3945 20.3893 84.3945 20.7442C84.313 20.997 84.1939 21.2359 84.041 21.4528C83.8211 21.6701 83.5464 21.8231 83.2464 21.8956L84.3059 23.314C84.3945 23.403 84.5707 23.5799 84.748 23.6689L85.1004 24.0238C85.2767 24.1127 85.3653 24.2007 85.3653 24.2007H84.6583C84.4821 24.2007 84.3048 24.2007 84.2172 24.1127C84.1296 24.0238 83.9524 23.9348 83.8648 23.7579L83.0702 22.7823L82.3642 21.7187C82.6291 21.7187 82.8053 21.6297 82.9815 21.5418C83.1578 21.4528 83.335 21.3649 83.4237 21.188C83.5999 21.099 83.5999 20.9221 83.5999 20.6562V20.3904C83.5123 20.2135 83.4237 20.2135 83.335 20.1245C83.1588 19.9476 82.9815 19.9476 82.7177 19.9476H82.4529H82.2767V23.7589C82.2767 23.8469 82.2767 23.9358 82.3653 24.0248C82.3653 24.1138 82.4529 24.1138 82.5415 24.2017H81.2172C81.3934 24.1138 81.4821 24.0248 81.4821 23.9358V23.582V20.4783H81.481V20.4783ZM86.0723 20.4783C86.0723 20.1234 86.0723 19.9465 85.9847 19.7696C85.9847 19.6817 85.8971 19.5927 85.7199 19.5037H87.1328C87.0442 19.5037 86.9555 19.5927 86.868 19.6817C86.868 19.7696 86.7804 19.8586 86.7804 19.9476V23.7589C86.868 23.8469 86.868 23.9358 86.868 24.0248C86.9555 24.1138 87.0442 24.1138 87.1328 24.2017H85.7199C85.8961 24.1138 85.9847 24.0248 85.9847 23.9358C85.9847 23.8479 86.0723 23.7589 86.0723 23.582V20.4783ZM88.6344 20.3003C88.6344 20.0355 88.6344 19.8575 88.5458 19.7686C88.5458 19.6806 88.4582 19.5916 88.282 19.5027H89.3414C89.3414 19.5027 89.4301 19.5916 89.5176 19.8575L92.1673 23.1382V20.3014C92.1673 20.1245 92.1673 19.9476 92.0797 19.8586C92.0797 19.6817 91.9025 19.5927 91.7262 19.5037H93.0505L92.7857 19.6817C92.7857 19.7696 92.6981 19.7696 92.6981 19.9476C92.6981 20.0366 92.6095 20.1245 92.6095 20.3904L92.6981 24.4687C92.4332 24.3807 92.256 24.2918 92.1684 24.2028C91.9922 24.0259 91.8149 23.9369 91.7273 23.76L89.1662 20.4793V23.3161C89.1662 23.4941 89.1662 23.671 89.2538 23.76C89.2538 23.8479 89.2538 23.9369 89.3425 24.0259C89.3425 24.1149 89.4311 24.1149 89.5187 24.2028H88.283C88.4592 24.1149 88.5468 24.0259 88.5468 23.9369C88.6355 23.76 88.6355 23.5831 88.6355 23.3161V20.3003H88.6344V20.3003ZM94.5511 20.3003C94.5511 20.1234 94.5511 19.9465 94.4624 19.7686C94.4624 19.6806 94.3749 19.5916 94.1976 19.5027H96.5813C96.7586 19.5027 96.7586 19.4147 96.8473 19.4147V20.3003C96.67 20.1234 96.5813 20.1234 96.4948 20.0355H95.257V21.3649H96.4051V22.0736C96.3165 21.9857 96.1392 21.8967 95.7868 21.8967H95.257V23.581L95.7868 23.6689H96.4051C96.5803 23.6689 96.7576 23.6689 96.9348 23.581L97.4646 23.3151L97.1987 24.2017H94.1965C94.4614 24.1138 94.55 23.8469 94.55 23.493V20.3003H94.5511V20.3003ZM101.175 21.9857V21.8967C101.175 21.5429 101.261 21.188 101.35 20.8331C101.439 20.5673 101.616 20.3014 101.88 20.0355C101.968 19.9465 102.057 19.8575 102.234 19.7696C102.323 19.6817 102.498 19.5927 102.675 19.5037C103.017 19.3874 103.374 19.3277 103.735 19.3268C104.089 19.3268 104.53 19.4158 104.971 19.5927V20.3904C104.53 20.1245 104.089 19.9476 103.646 19.9476C103.471 19.9476 103.294 19.9476 103.116 20.0366C103.028 20.0366 102.853 20.1245 102.764 20.2135C102.498 20.3904 102.323 20.6562 102.146 20.9221C102.146 21.01 102.057 21.188 102.057 21.277C101.968 21.4539 101.968 21.6308 101.968 21.7198C101.968 21.9857 102.057 22.2516 102.146 22.5174C102.146 22.6064 102.234 22.6943 102.234 22.7833C102.323 22.9613 102.411 23.0492 102.498 23.1382C102.675 23.3151 102.853 23.493 103.116 23.581C103.294 23.6689 103.56 23.7579 103.912 23.7579C104.353 23.7579 104.794 23.581 105.326 23.314L104.971 24.1127C104.613 24.2843 104.221 24.3751 103.823 24.3786C103.382 24.3786 102.941 24.2896 102.587 24.1127C102.146 23.9348 101.88 23.6689 101.616 23.314C101.527 23.1371 101.35 22.9602 101.35 22.7823C101.261 22.5164 101.261 22.3395 101.175 22.0736V21.9857V21.9857ZM107.004 21.8967C107.004 21.4539 107.09 21.099 107.268 20.8331C107.356 20.4783 107.622 20.3014 107.886 20.1234C108.007 20.0132 108.164 19.9504 108.327 19.9465C108.416 19.8575 108.593 19.8575 108.77 19.8575C109.123 19.8575 109.389 19.9465 109.652 20.1234C109.918 20.3003 110.182 20.4783 110.271 20.7442C110.448 21.099 110.537 21.3649 110.623 21.6308V22.2515C110.537 22.3405 110.537 22.4285 110.537 22.6064C110.448 22.7833 110.359 22.9613 110.182 23.1382C110.127 23.2433 110.052 23.3365 109.961 23.4125C109.87 23.4885 109.765 23.5457 109.652 23.581C109.564 23.6689 109.389 23.7579 109.3 23.7579C109.211 23.7579 109.034 23.8458 108.945 23.8458C108.593 23.8458 108.238 23.6689 107.975 23.5799C107.697 23.3903 107.457 23.1499 107.268 22.8712C107.179 22.6943 107.09 22.5164 107.09 22.3395C107.004 22.1626 107.004 22.0736 107.004 21.8967V21.8967ZM106.208 21.8967C106.208 22.3405 106.297 22.6943 106.561 23.0492C106.738 23.492 107.09 23.7579 107.445 24.0238C107.886 24.2007 108.327 24.3786 108.857 24.3786C109.123 24.3786 109.389 24.2896 109.564 24.2017C109.83 24.1138 110.005 24.0248 110.182 23.9358C110.623 23.6699 110.889 23.4041 111.066 22.9613C111.33 22.6064 111.419 22.1626 111.419 21.7198C111.419 21.5429 111.419 21.3649 111.33 21.277C111.33 21.1001 111.242 20.9221 111.153 20.7452C111.06 20.4563 110.874 20.2069 110.623 20.0366C110.448 19.8586 110.359 19.7707 110.271 19.6817C110.094 19.6817 109.918 19.5927 109.741 19.5037C109.429 19.3948 109.101 19.3351 108.77 19.3268C108.416 19.3268 108.152 19.4158 107.797 19.5927C107.634 19.5966 107.477 19.6594 107.356 19.7696C107.223 19.8349 107.103 19.9251 107.004 20.0355L106.649 20.3893C106.561 20.5662 106.474 20.7431 106.385 20.8321C106.297 21.188 106.208 21.5418 106.208 21.8967V21.8967ZM112.918 20.4783V19.9465C112.832 19.8575 112.832 19.7696 112.832 19.6806C112.743 19.5916 112.655 19.5916 112.566 19.5027H114.244C114.773 19.5027 115.128 19.5916 115.392 19.8575C115.658 20.0355 115.746 20.3893 115.746 20.7442C115.746 21.01 115.569 21.188 115.392 21.4528C115.172 21.6701 114.898 21.8232 114.598 21.8956L115.746 23.314C115.835 23.403 115.922 23.5799 116.099 23.6689C116.187 23.7579 116.365 23.8458 116.54 24.0238C116.629 24.1127 116.717 24.2007 116.806 24.2007H116.099C115.835 24.2007 115.746 24.2007 115.569 24.1127C115.48 24.0238 115.392 23.9348 115.303 23.7579L114.421 22.7823L113.803 21.7187C113.98 21.7187 114.155 21.6297 114.332 21.5418C114.598 21.4528 114.685 21.3649 114.862 21.188C114.951 21.099 115.039 20.9221 115.039 20.6562C115.039 20.5683 115.039 20.4793 114.951 20.3904C114.862 20.2135 114.862 20.2135 114.773 20.1245C114.598 19.9476 114.332 19.9476 114.066 19.9476H113.625V23.7589C113.625 23.8469 113.714 23.9358 113.714 24.0248L113.891 24.2017H112.566C112.743 24.1138 112.832 24.0248 112.832 23.9358C112.832 23.8479 112.918 23.7589 112.918 23.582V20.4783V20.4783ZM117.513 20.2124C117.513 19.8575 117.424 19.5916 117.158 19.5027H118.925C119.102 19.5027 119.366 19.5027 119.543 19.5916C119.72 19.5916 119.898 19.6806 120.073 19.7686L120.427 20.1224C120.427 20.2113 120.516 20.2993 120.516 20.3882V20.742C120.516 21.0079 120.427 21.2738 120.339 21.4507C120.161 21.6276 119.984 21.8056 119.809 21.8935C119.632 21.9825 119.543 21.9825 119.454 22.0704H118.925C118.75 22.0704 118.572 22.0704 118.484 21.9825C118.661 21.9825 118.836 21.8935 119.013 21.8056C119.279 21.7177 119.366 21.6287 119.543 21.4507C119.632 21.2738 119.72 21.0969 119.72 20.831C119.72 20.5651 119.632 20.3882 119.454 20.2103C119.279 20.0334 119.013 20.0334 118.661 20.0334H118.218V23.4909C118.218 23.6678 118.218 23.7568 118.306 23.9337L118.572 24.1996H117.158C117.424 24.1117 117.513 23.8447 117.513 23.4909V20.2124V20.2124ZM122.279 21.8967C122.279 21.4539 122.368 21.099 122.457 20.8331C122.634 20.4783 122.811 20.3014 123.075 20.1234C123.252 20.0355 123.427 19.9465 123.516 19.9465C123.693 19.8575 123.871 19.8575 124.046 19.8575C124.4 19.8575 124.664 19.9465 124.93 20.1234C125.194 20.3003 125.371 20.4783 125.548 20.7442C125.726 21.099 125.812 21.3649 125.812 21.6308V22.2515C125.812 22.3405 125.812 22.4285 125.726 22.6064C125.726 22.7833 125.548 22.9613 125.46 23.1382C125.283 23.3151 125.107 23.493 124.93 23.581C124.753 23.6689 124.664 23.7579 124.576 23.7579C124.4 23.7579 124.312 23.8458 124.134 23.8458C123.782 23.8458 123.516 23.6689 123.252 23.5799C122.898 23.403 122.723 23.1371 122.545 22.8712C122.457 22.6943 122.368 22.5164 122.368 22.3395C122.279 22.1626 122.279 22.0736 122.279 21.8967ZM121.397 21.8967C121.397 22.3405 121.574 22.6943 121.75 23.0492C122.016 23.492 122.279 23.7579 122.723 24.0238C123.164 24.2007 123.605 24.3786 124.134 24.3786C124.4 24.3786 124.576 24.2896 124.841 24.2017C125.019 24.1138 125.283 24.0248 125.46 23.9358C125.812 23.6699 126.167 23.4041 126.344 22.9613C126.519 22.6064 126.608 22.1626 126.608 21.7198V21.277C126.519 21.1001 126.519 20.9221 126.431 20.7452C126.255 20.4793 126.078 20.2135 125.812 20.0366C125.744 19.8776 125.618 19.7507 125.46 19.6817C125.371 19.6817 125.194 19.5927 125.019 19.5037C124.664 19.4158 124.4 19.3268 124.046 19.3268C123.693 19.3268 123.341 19.4158 122.986 19.5927C122.898 19.5927 122.723 19.6817 122.634 19.7696C122.457 19.8575 122.368 19.9465 122.193 20.0355C122.104 20.2124 122.016 20.3003 121.927 20.3893C121.838 20.5662 121.75 20.7431 121.663 20.8321C121.486 21.188 121.397 21.5418 121.397 21.8967V21.8967ZM128.111 20.4783V19.9465C128.111 19.8575 128.111 19.7696 128.022 19.6806C128.022 19.5916 127.933 19.5916 127.845 19.5027H129.522C129.964 19.5027 130.407 19.5916 130.582 19.8575C130.848 20.0355 131.025 20.3893 130.936 20.7442C130.936 21.01 130.848 21.188 130.671 21.4528C130.451 21.6696 130.176 21.8226 129.877 21.8956L130.936 23.314C131.025 23.403 131.2 23.5799 131.378 23.6689C131.466 23.7579 131.555 23.8458 131.73 24.0238C131.907 24.1127 131.996 24.2007 131.996 24.2007H131.289C131.112 24.2007 130.936 24.2007 130.848 24.1127C130.759 24.0238 130.582 23.9348 130.493 23.7579L129.7 22.7823L128.993 21.7187C129.259 21.7187 129.434 21.6297 129.611 21.5418C129.788 21.4528 129.964 21.3649 130.052 21.188C130.229 21.099 130.229 20.9221 130.229 20.6562V20.3904C130.141 20.2135 130.052 20.2135 129.964 20.1245C129.788 19.9476 129.611 19.9476 129.345 19.9476H129.081H128.904V23.7589C128.904 23.8469 128.904 23.9358 128.993 24.0248C128.993 24.1138 129.081 24.1138 129.17 24.2017H127.845L128.111 23.9358V23.582V20.4783V20.4783ZM133.85 21.8967L134.555 20.1234L135.262 21.8967H133.85ZM132.79 23.2261L132.702 23.492C132.702 23.5799 132.613 23.6689 132.613 23.7579C132.525 23.8458 132.436 23.9348 132.436 24.0238C132.347 24.1127 132.259 24.1127 132.172 24.2007H133.407C133.32 24.1127 133.232 24.0238 133.143 23.8458C133.232 23.8458 133.232 23.7579 133.232 23.7579V23.581L133.673 22.4284H135.439L135.88 23.6689C135.969 23.7579 135.969 23.8458 135.969 23.9348C135.969 24.0238 135.88 24.1127 135.792 24.2007H137.206C137.072 24.1354 136.953 24.0451 136.853 23.9348C136.764 23.7579 136.676 23.6689 136.587 23.403L134.998 19.5016H133.939C134.025 19.5016 134.114 19.5906 134.114 19.7675C134.114 19.8554 134.114 19.9444 134.025 20.1213L132.79 23.2261V23.2261ZM139.236 20.0355H138.62C138.176 20.0355 137.913 20.1234 137.735 20.3003L137.913 19.4147H138.001C138.001 19.4147 138.001 19.5027 138.088 19.5027H141.004C141.18 19.5027 141.357 19.5027 141.357 19.4147H141.445L141.18 20.3003C141.18 20.2124 141.091 20.1234 141.091 20.1234C141.004 20.1234 141.004 20.0355 140.916 20.0355H139.943V23.8469C140.013 24.0053 140.139 24.1318 140.297 24.2017H138.883C139.061 24.1138 139.236 23.9358 139.236 23.493V20.0355V20.0355ZM142.504 20.4783V19.7696L142.238 19.5037H143.563C143.517 19.5067 143.474 19.5264 143.441 19.5592C143.409 19.5919 143.389 19.6355 143.386 19.6817C143.3 19.7696 143.3 19.8586 143.3 19.9476V23.7589C143.3 23.8469 143.3 23.9358 143.386 24.0248C143.386 24.1138 143.475 24.1138 143.563 24.2017H142.238L142.504 23.9358V23.582V20.4783ZM145.507 21.8967C145.507 21.4539 145.596 21.099 145.771 20.8331C145.859 20.4783 146.125 20.3014 146.389 20.1234C146.51 20.0132 146.667 19.9504 146.83 19.9465C146.919 19.8575 147.096 19.8575 147.273 19.8575C147.626 19.8575 147.892 19.9465 148.156 20.1234C148.422 20.3003 148.685 20.4783 148.774 20.7442C148.951 21.099 149.04 21.3649 149.129 21.6308V21.8967C149.129 22.0736 149.129 22.1626 149.04 22.2515V22.6064C148.951 22.7833 148.863 22.9613 148.685 23.1382C148.63 23.2433 148.555 23.3365 148.464 23.4125C148.374 23.4885 148.269 23.5457 148.156 23.581C148.067 23.6689 147.892 23.7579 147.803 23.7579C147.715 23.7579 147.537 23.8458 147.449 23.8458C147.096 23.8458 146.744 23.6689 146.478 23.5799C146.2 23.3897 145.961 23.1494 145.771 22.8712C145.682 22.6943 145.596 22.5164 145.596 22.3395C145.507 22.1626 145.507 22.0736 145.507 21.8967V21.8967ZM144.711 21.8967C144.711 22.3405 144.8 22.6943 145.066 23.0492C145.241 23.492 145.596 23.7579 145.948 24.0238C146.389 24.2007 146.83 24.3786 147.362 24.3786C147.626 24.3786 147.892 24.2896 148.067 24.2017C148.333 24.1138 148.51 24.0248 148.685 23.9358C149.129 23.6699 149.392 23.4041 149.57 22.9613C149.833 22.6064 149.922 22.1626 149.922 21.7198C149.922 21.5429 149.922 21.3649 149.833 21.277C149.833 21.1001 149.745 20.9221 149.658 20.7452C149.57 20.4793 149.304 20.2135 149.129 20.0366C148.951 19.8586 148.863 19.7707 148.685 19.6817C148.597 19.6817 148.422 19.5927 148.244 19.5037C147.932 19.3946 147.604 19.3349 147.273 19.3268C146.919 19.3268 146.655 19.4158 146.301 19.5927C146.137 19.5966 145.981 19.6594 145.859 19.7696C145.682 19.8575 145.596 19.9465 145.507 20.0355L145.152 20.3893C145.066 20.5662 144.977 20.7431 144.889 20.8321C144.8 21.188 144.711 21.5418 144.711 21.8967V21.8967ZM151.424 20.3003C151.424 20.0355 151.335 19.8575 151.335 19.7686L151.069 19.5027H152.042C152.042 19.5027 152.131 19.5916 152.306 19.8575L154.868 23.1382V20.3014C154.868 20.1245 154.868 19.9476 154.779 19.8586C154.779 19.6817 154.691 19.5927 154.513 19.5037H155.75L155.575 19.6817C155.486 19.7696 155.486 19.7696 155.398 19.9476V24.4687C155.132 24.3807 154.957 24.2918 154.868 24.2028C154.779 24.0259 154.602 23.9369 154.427 23.76L151.953 20.4793V23.76C152.042 23.8479 152.042 23.9369 152.042 24.0259C152.131 24.1149 152.217 24.1149 152.306 24.2028H151.069L151.335 23.9369C151.335 23.76 151.424 23.5831 151.424 23.3161V20.3003V20.3003ZM69.0283 29.4315L69.4693 28.279L69.9104 29.4315H69.0283V29.4315ZM68.4099 30.2302L68.3223 30.406C68.3223 30.406 68.2337 30.495 68.2337 30.584L68.1461 30.673L67.9699 30.8509H68.7644C68.6769 30.762 68.5882 30.762 68.5882 30.584L68.6769 30.495L68.9407 29.6984H70.0001L70.265 30.495C70.265 30.584 70.3536 30.584 70.3536 30.673C70.3536 30.762 70.265 30.762 70.1774 30.8509H71.0606L70.8844 30.673C70.7958 30.584 70.7958 30.495 70.7082 30.3192L69.7374 27.9252H69.0314C69.119 28.012 69.2076 28.012 69.2076 28.101C69.2076 28.19 69.2076 28.19 69.119 28.279L68.4099 30.2302V30.2302ZM71.8552 28.458V28.1021C71.7666 28.1021 71.7666 28.0131 71.679 27.9262H72.2974C72.2974 27.9262 72.2974 28.0131 72.3849 28.1021L73.9741 30.1423V28.458V28.1021C73.9741 28.0131 73.8865 28.0131 73.7979 27.9262H74.5038L74.4162 28.0131C74.3276 28.1021 74.3276 28.1021 74.3276 28.191V30.941C74.1514 30.941 74.0627 30.852 73.9752 30.852L73.7103 30.5851L72.2087 28.547V30.5851C72.2087 30.674 72.2974 30.674 72.2974 30.674C72.2974 30.763 72.3849 30.763 72.3849 30.852H71.679C71.7666 30.763 71.7666 30.674 71.8552 30.674V28.458V28.458ZM77.0649 30.406C77.0649 30.673 76.9762 30.762 76.8887 30.8509H78.6551L78.8313 30.2302L78.5665 30.495H77.507V29.4315H77.8605C78.0367 29.4315 78.1243 29.4315 78.213 29.5205V29.0777H77.5081V28.279H78.3016L78.4778 28.4569V27.9252H76.8887L77.0649 28.101V30.406ZM79.8908 28.369V28.191C79.8908 28.1021 79.8032 28.0131 79.7146 27.9262H80.5091V28.1021L81.3924 30.0533L82.0994 28.191C82.0994 28.1021 82.0994 28.0131 82.187 27.9262H82.8929L82.8053 28.0131V28.28L83.0702 30.4071V30.5851C83.0702 30.674 83.0702 30.674 83.1578 30.674C83.1578 30.763 83.2464 30.763 83.2464 30.852H82.4518C82.5394 30.763 82.628 30.674 82.628 30.5851V30.4071L82.3632 28.369L81.3913 30.852C81.3037 30.852 81.3037 30.852 81.3037 30.763C81.2161 30.763 81.2161 30.763 81.2161 30.674C81.1275 30.674 81.1275 30.5851 81.1275 30.5851C81.1275 30.4961 81.0399 30.4961 81.0399 30.4071L80.1567 28.369L79.8918 30.4071V30.4961C79.8918 30.5851 79.8918 30.674 79.9805 30.674C79.9805 30.763 79.9805 30.763 80.0681 30.852H79.3621C79.4508 30.763 79.5383 30.674 79.5383 30.5851C79.5383 30.4961 79.6259 30.4071 79.6259 30.2313L79.8908 28.369V28.369ZM84.041 30.406C84.041 30.584 84.041 30.762 83.8648 30.8509H84.748C84.6891 30.7918 84.6304 30.7325 84.5718 30.673C84.4831 30.584 84.4831 30.495 84.4831 30.406V28.279H84.8356C85.0129 28.279 85.1004 28.279 85.2777 28.3679C85.3664 28.4569 85.4539 28.6328 85.4539 28.8107C85.4539 28.8997 85.3664 29.0777 85.2777 29.1667C85.1891 29.2535 85.1015 29.3425 85.0129 29.3425C84.9242 29.4315 84.748 29.4315 84.6594 29.4315C84.748 29.5205 84.8356 29.5205 84.9242 29.5205H85.2767C85.3653 29.4315 85.3653 29.4315 85.4529 29.4315C85.6291 29.3425 85.7178 29.2535 85.8064 29.1667C85.895 28.9887 85.895 28.8997 85.895 28.7217V28.5459C85.895 28.4569 85.895 28.3679 85.8064 28.3679C85.8064 28.279 85.7188 28.19 85.6302 28.101C85.5426 28.012 85.4539 28.012 85.2777 28.012C85.1891 27.9252 85.1015 27.9252 84.9242 27.9252H83.8648C84.041 28.012 84.041 28.19 84.041 28.3679V30.406V30.406ZM86.6907 28.458V28.1021C86.6907 28.0131 86.6031 28.0131 86.5145 27.9262H87.3966C87.309 28.0131 87.2204 28.0131 87.2204 28.1021V28.28C87.1328 28.28 87.1328 28.369 87.1328 28.369V30.4961H88.1923C88.2928 30.3871 88.4123 30.2974 88.5447 30.2313L88.3685 30.852H86.5145C86.6907 30.763 86.6907 30.5851 86.6907 30.4071V28.458ZM89.6052 29.4315C89.6052 29.1667 89.6928 28.8997 89.7814 28.7217C89.8512 28.5637 89.9773 28.4375 90.1349 28.3679C90.2225 28.279 90.3112 28.279 90.3988 28.19H90.6636C90.9285 28.19 91.1047 28.19 91.282 28.3679C91.4391 28.4379 91.5648 28.564 91.6344 28.7217C91.7231 28.8997 91.8106 29.0777 91.8106 29.2535V29.6094C91.8106 29.6984 91.8106 29.7874 91.7231 29.7874C91.7231 29.9633 91.6344 30.0522 91.5468 30.2302L91.282 30.495C91.1933 30.495 91.1058 30.495 91.0171 30.584H90.7523C90.576 30.584 90.3988 30.495 90.2225 30.406C90.0341 30.3069 89.8802 30.1524 89.7814 29.9633C89.6928 29.8743 89.6928 29.7874 89.6928 29.6984C89.6052 29.6094 89.6052 29.5205 89.6052 29.4315V29.4315ZM89.1631 29.4315C89.1631 29.6984 89.1631 29.8743 89.3393 30.1412C89.5155 30.406 89.6918 30.584 89.869 30.673C90.1339 30.8509 90.4874 30.9399 90.7523 30.9399C90.9285 30.9399 91.0171 30.8509 91.1933 30.8509C91.3696 30.762 91.4582 30.762 91.5468 30.673C91.7947 30.5127 92.0055 30.301 92.1652 30.0522C92.2528 29.8743 92.3414 29.6094 92.3414 29.3425C92.3414 29.1667 92.3414 29.0777 92.2528 28.9887C92.2528 28.8997 92.2528 28.8107 92.1652 28.7217C92.0776 28.5459 91.989 28.3679 91.8117 28.279C91.7241 28.19 91.6355 28.101 91.5468 28.101C91.5468 28.012 91.4593 28.012 91.282 27.9252C91.1058 27.9252 90.9285 27.8362 90.6636 27.8362C90.4874 27.8362 90.3101 27.9252 90.1339 28.012C90.0453 28.012 89.869 28.012 89.869 28.101C89.7814 28.19 89.6928 28.19 89.6042 28.279C89.5155 28.3679 89.4279 28.4569 89.4279 28.5459C89.3393 28.6328 89.3393 28.7217 89.2507 28.8107C89.1631 28.9897 89.1631 29.1667 89.1631 29.4315V29.4315ZM93.8451 29.5205L93.0495 28.19L92.8733 28.101C92.7846 28.012 92.7846 27.9252 92.697 27.9252H93.3144C93.3144 28.012 93.4019 28.012 93.4019 28.012V28.101L93.4906 28.19L94.1079 29.1667L94.6376 28.3679L94.7252 28.279V28.19C94.7252 28.012 94.6376 28.012 94.549 27.9252H95.3436L94.2831 29.5205V30.584C94.2831 30.673 94.3717 30.762 94.4593 30.8509H93.6647C93.7533 30.762 93.7533 30.673 93.7533 30.673C93.842 30.584 93.842 30.495 93.842 30.406V29.5205H93.8451V29.5205ZM95.963 28.458V28.1021C95.963 28.0131 95.8765 28.0131 95.7878 27.9262H97.377V28.458L97.1997 28.28H96.4062V29.0787H97.1111V29.5215C97.0245 29.4325 96.9359 29.4325 96.7586 29.4325H96.4062V30.4961H97.4656C97.5543 30.4071 97.6429 30.3202 97.7294 30.2313L97.5543 30.852H95.7878C95.8765 30.763 95.963 30.674 95.963 30.4071V28.458ZM98.6137 30.406C98.6137 30.673 98.6137 30.762 98.4364 30.8509H100.292L100.469 30.2302C100.336 30.2961 100.215 30.3859 100.114 30.495H99.0548V29.4315H99.4094C99.5845 29.4315 99.7618 29.4315 99.7618 29.5205V29.0777H99.5845H99.0548V28.279H99.8504C99.9391 28.279 99.9391 28.3679 100.026 28.4569V27.9252H98.4364C98.5251 28.012 98.6137 28.012 98.6137 28.101V30.406ZM103.205 29.4315C103.205 29.1667 103.205 28.8997 103.294 28.7217C103.382 28.5459 103.56 28.4569 103.646 28.3679C103.735 28.279 103.823 28.279 103.912 28.19H104.264C104.442 28.19 104.619 28.19 104.794 28.3679C104.952 28.4378 105.078 28.5638 105.149 28.7217C105.237 28.8997 105.326 29.0777 105.326 29.2535V29.7874C105.237 29.9633 105.237 30.0522 105.149 30.2302C105.06 30.3192 104.883 30.406 104.794 30.495C104.708 30.495 104.619 30.495 104.53 30.584H104.353C104.089 30.584 103.912 30.495 103.735 30.406C103.56 30.3192 103.471 30.1412 103.294 29.9633C103.294 29.8743 103.205 29.7874 103.205 29.6984V29.4315V29.4315ZM102.675 29.4315C102.675 29.6984 102.764 29.8743 102.853 30.1412C103.028 30.406 103.205 30.584 103.471 30.673C103.735 30.8509 104.001 30.9399 104.353 30.9399C104.442 30.9399 104.619 30.8509 104.708 30.8509C104.883 30.762 104.971 30.762 105.149 30.673C105.326 30.495 105.501 30.3192 105.678 30.0522C105.767 29.8743 105.856 29.6094 105.856 29.3425V28.9887C105.767 28.8997 105.767 28.8107 105.678 28.7217C105.59 28.5459 105.501 28.3679 105.326 28.279C105.323 28.2327 105.303 28.1892 105.271 28.1564C105.238 28.1237 105.195 28.104 105.149 28.101C105.06 28.012 104.971 28.012 104.883 27.9252C104.619 27.9252 104.442 27.8362 104.264 27.8362C104.001 27.8362 103.823 27.9252 103.646 28.012C103.56 28.012 103.471 28.012 103.382 28.101C103.294 28.19 103.205 28.19 103.116 28.279C103.028 28.3679 103.028 28.4569 102.941 28.5459C102.853 28.6328 102.853 28.7217 102.764 28.8107C102.675 28.9897 102.675 29.1667 102.675 29.4315V29.4315ZM106.649 28.369C106.561 28.191 106.474 28.0131 106.385 27.9262H107.004V28.0131C107.004 28.1021 107.004 28.191 107.09 28.28L107.709 30.3202L108.238 28.547V28.369C108.238 28.369 108.327 28.28 108.327 28.191C108.327 28.1021 108.238 28.0131 108.152 27.9262H108.77V28.191C108.77 28.191 108.77 28.28 108.857 28.369L109.389 30.3202L110.005 28.458V28.369V28.28C110.005 28.1021 109.918 28.0131 109.83 27.9262H110.448L109.564 30.941L109.389 30.852L109.211 30.674H109.123V30.5851L109.034 30.4961V30.4071L108.504 28.7228L107.797 30.941C107.709 30.941 107.709 30.852 107.622 30.852C107.534 30.763 107.534 30.763 107.445 30.763C107.445 30.674 107.356 30.5851 107.356 30.5851C107.356 30.4961 107.268 30.4071 107.268 30.2313L106.649 28.369V28.369ZM111.241 28.458C111.241 28.28 111.241 28.191 111.152 28.1021C111.152 28.1021 111.065 28.0131 110.977 27.9262H111.684C111.684 27.9262 111.684 28.0131 111.77 28.1021L113.362 30.1423V28.458V28.1021C113.273 28.0131 113.273 28.0131 113.096 27.9262H113.891L113.803 28.0131C113.714 28.1021 113.714 28.1021 113.714 28.191C113.714 28.28 113.625 28.369 113.625 28.458L113.714 30.941C113.537 30.941 113.45 30.852 113.362 30.852L113.096 30.5851L111.507 28.547V30.3202C111.507 30.4071 111.595 30.4961 111.595 30.5851C111.595 30.674 111.595 30.674 111.684 30.674C111.684 30.763 111.684 30.763 111.77 30.852H110.977L111.152 30.674C111.241 30.5851 111.241 30.4071 111.241 30.3202V28.458ZM114.773 28.458V28.1021C114.773 28.0131 114.685 28.0131 114.598 27.9262H116.187V28.458C116.099 28.369 116.099 28.28 116.01 28.28H115.835H115.217V29.0787H115.922V29.5215C115.922 29.4325 115.746 29.4325 115.569 29.4325H115.217V30.4961H116.276C116.365 30.4071 116.453 30.3202 116.629 30.2313L116.365 30.852H114.598C114.773 30.763 114.773 30.674 114.773 30.4071V28.458ZM117.424 28.547V28.28V28.1021L117.247 27.9262H118.306C118.572 27.9262 118.836 28.0131 118.925 28.191C119.102 28.28 119.191 28.458 119.191 28.7228C119.191 28.9008 119.102 28.9898 119.013 29.1677C118.925 29.2546 118.75 29.3436 118.484 29.4325L119.191 30.2313C119.191 30.3202 119.279 30.4071 119.366 30.4961C119.454 30.5851 119.543 30.674 119.632 30.674L119.809 30.852H119.366C119.279 30.852 119.191 30.852 119.102 30.763C119.056 30.76 119.013 30.7403 118.98 30.7076C118.947 30.6748 118.928 30.6313 118.925 30.5851L118.395 29.9643L118.043 29.3436C118.131 29.3436 118.218 29.2546 118.395 29.2546L118.661 28.9897C118.75 28.9008 118.75 28.8118 118.75 28.6338V28.458L118.572 28.28C118.484 28.28 118.306 28.191 118.218 28.191H118.043C118.043 28.191 117.954 28.191 117.865 28.28V30.4961C117.916 30.5422 117.948 30.6057 117.954 30.674L118.131 30.852H117.247C117.336 30.763 117.424 30.763 117.424 30.674V30.4961V28.547ZM120.16 28.191C120.249 28.1021 120.338 28.0131 120.515 27.9262C120.69 27.9262 120.867 27.8372 121.045 27.8372C121.309 27.8372 121.486 27.9262 121.75 27.9262V28.458C121.663 28.369 121.486 28.28 121.397 28.28C121.22 28.191 121.131 28.191 121.045 28.191C120.867 28.191 120.779 28.191 120.69 28.28C120.602 28.28 120.515 28.369 120.515 28.458V28.547C120.515 28.7228 120.515 28.8118 120.602 28.9008C120.779 28.9897 120.867 29.0787 121.045 29.1677L121.397 29.3436C121.574 29.3436 121.663 29.4325 121.838 29.6105C121.927 29.6995 121.927 29.8753 121.927 29.9643V30.2313C121.927 30.3202 121.838 30.4071 121.75 30.4961C121.663 30.5851 121.574 30.674 121.397 30.763C121.22 30.852 120.956 30.941 120.779 30.941C120.515 30.941 120.249 30.852 119.983 30.763L119.897 30.2313C120.072 30.3202 120.16 30.4071 120.338 30.4961C120.515 30.5851 120.69 30.5851 120.779 30.5851H121.045C121.131 30.4961 121.22 30.4961 121.22 30.4961C121.397 30.4071 121.486 30.3202 121.486 30.1423C121.486 29.9643 121.309 29.7885 121.045 29.6105L120.515 29.3436C120.426 29.3436 120.338 29.2546 120.249 29.2546C120.16 29.1677 120.16 29.0787 120.072 28.9897C119.983 28.9008 119.983 28.7228 119.983 28.6338C119.983 28.458 119.983 28.28 120.16 28.191V28.191ZM122.811 28.458V28.369V28.1021C122.811 28.0131 122.723 28.0131 122.634 27.9262H123.516C123.427 28.0131 123.341 28.0131 123.341 28.1021V29.0787H124.841V28.458V28.1021C124.841 28.0131 124.753 28.0131 124.664 27.9262H125.548C125.46 28.0131 125.371 28.0131 125.371 28.1021C125.371 28.191 125.283 28.28 125.283 28.458V30.4071C125.283 30.674 125.371 30.763 125.548 30.852H124.664C124.841 30.763 124.841 30.674 124.841 30.4071V29.4325H123.341V30.4071C123.341 30.674 123.341 30.763 123.516 30.852H122.634C122.811 30.763 122.811 30.674 122.811 30.4071V28.458V28.458ZM126.431 30.2302V30.673L126.255 30.8509H127.049C126.962 30.762 126.962 30.762 126.962 30.673C126.874 30.673 126.874 30.584 126.874 30.495V28.5459V28.19C126.874 28.19 126.874 28.101 126.962 28.012L127.049 27.9252H126.255C126.344 28.012 126.344 28.012 126.431 28.101V30.2302ZM128.022 28.369C128.019 28.2046 127.956 28.0469 127.845 27.9262H128.904C128.993 27.9262 129.17 27.9262 129.259 28.0131C129.345 28.0131 129.434 28.0131 129.522 28.1021L129.788 28.369C129.788 28.369 129.788 28.458 129.877 28.547V28.7228C129.877 28.9008 129.788 28.9898 129.7 29.1677L129.434 29.4325C129.345 29.4325 129.259 29.4325 129.259 29.5215H128.904C128.815 29.5215 128.64 29.5215 128.552 29.4325C128.729 29.4325 128.815 29.4325 128.993 29.3436C129.081 29.3436 129.17 29.2546 129.259 29.1677C129.345 29.0787 129.345 28.9008 129.345 28.8118C129.345 28.6338 129.345 28.458 129.17 28.369C129.081 28.28 128.904 28.28 128.729 28.28H128.463V30.674C128.552 30.674 128.552 30.763 128.64 30.852H127.845C127.956 30.7302 128.019 30.5721 128.022 30.4071V28.369V28.369ZM131.995 29.4315C131.995 29.1667 132.083 28.9887 132.083 28.8107C132.172 28.6328 132.259 28.4569 132.436 28.279C132.525 28.19 132.613 28.19 132.613 28.101C132.702 28.101 132.79 28.012 132.877 28.012C133.143 27.9252 133.32 27.8362 133.584 27.8362C133.761 27.8362 134.025 27.9252 134.291 28.012V28.4569C134.025 28.279 133.761 28.19 133.495 28.19C133.407 28.19 133.32 28.279 133.232 28.279C133.143 28.279 133.054 28.3679 132.966 28.3679C132.79 28.4569 132.702 28.6328 132.613 28.8107C132.613 28.8997 132.525 28.9887 132.525 29.0777V29.3425C132.525 29.4315 132.525 29.6094 132.613 29.7874C132.613 29.8743 132.613 29.8743 132.702 29.9633C132.702 30.0522 132.79 30.1412 132.79 30.1412C132.877 30.3192 133.054 30.406 133.143 30.406C133.32 30.495 133.495 30.584 133.673 30.584C133.939 30.584 134.202 30.406 134.555 30.2302L134.291 30.762C134.071 30.8731 133.83 30.9339 133.584 30.9399C133.32 30.9399 133.143 30.8509 132.877 30.762C132.613 30.673 132.436 30.495 132.259 30.3192C132.172 30.1412 132.172 30.0522 132.083 29.9633C132.083 29.7874 131.995 29.6984 131.995 29.5205V29.4315V29.4315ZM135.528 29.4315C135.528 29.1667 135.616 28.8997 135.703 28.7217C135.773 28.5638 135.9 28.4378 136.057 28.3679C136.146 28.279 136.235 28.279 136.321 28.19H136.587C136.853 28.19 137.028 28.19 137.206 28.3679C137.383 28.4569 137.469 28.5459 137.558 28.7217C137.647 28.8997 137.735 29.0777 137.735 29.2535V29.6094C137.735 29.6984 137.735 29.7874 137.647 29.7874C137.647 29.9633 137.558 30.0522 137.469 30.2302C137.383 30.3192 137.294 30.406 137.206 30.495C137.117 30.495 137.028 30.495 136.94 30.584H136.676C136.499 30.584 136.321 30.495 136.146 30.406C135.957 30.307 135.802 30.1526 135.703 29.9633C135.616 29.8743 135.616 29.7874 135.616 29.6984C135.528 29.6094 135.528 29.5205 135.528 29.4315V29.4315ZM135.087 29.4315C135.087 29.6984 135.087 29.8743 135.262 30.1412C135.439 30.406 135.616 30.584 135.792 30.673C136.057 30.8509 136.41 30.9399 136.676 30.9399C136.853 30.9399 136.94 30.8509 137.117 30.8509C137.294 30.762 137.383 30.762 137.469 30.673C137.735 30.495 137.913 30.3192 138.088 30.0522C138.176 29.8743 138.265 29.6094 138.265 29.3425C138.265 29.1667 138.265 29.0777 138.176 28.9887C138.176 28.8997 138.176 28.8107 138.088 28.7217C138.001 28.5459 137.913 28.3679 137.735 28.279C137.647 28.19 137.558 28.101 137.469 28.101C137.469 28.012 137.383 28.012 137.206 27.9252C137.028 27.9252 136.853 27.8362 136.587 27.8362C136.41 27.8362 136.235 27.9252 136.057 28.012C135.969 28.012 135.792 28.012 135.792 28.101C135.703 28.19 135.616 28.19 135.528 28.279C135.439 28.3679 135.35 28.4569 135.35 28.5459C135.262 28.6328 135.262 28.7217 135.173 28.8107C135.087 28.9897 135.087 29.1667 135.087 29.4315V29.4315ZM139.236 28.369V28.191C139.236 28.1021 139.236 28.0131 139.149 27.9262H139.854V28.0131L139.943 28.1021L140.738 30.0533L141.445 28.191C141.534 28.1021 141.534 28.0131 141.534 27.9262H142.328C142.239 27.9262 142.239 28.0131 142.239 28.0131C142.152 28.1021 142.152 28.1021 142.152 28.191V28.28L142.416 30.4071L142.505 30.5851V30.674L142.682 30.852H141.798C141.975 30.763 141.975 30.674 141.975 30.5851V30.4071L141.798 28.369L140.827 30.852C140.738 30.852 140.738 30.852 140.65 30.763L140.561 30.674C140.561 30.674 140.561 30.5851 140.473 30.5851C140.473 30.4961 140.473 30.4961 140.386 30.4071L139.59 28.369L139.324 30.4071V30.674L139.502 30.852H138.795C138.883 30.763 138.883 30.674 138.883 30.5851C138.972 30.4961 138.972 30.4071 138.972 30.2313L139.236 28.369V28.369ZM143.475 30.406C143.471 30.5706 143.409 30.7284 143.3 30.8509H144.093C144.004 30.762 144.004 30.673 143.918 30.673V28.279H144.182C144.359 28.279 144.534 28.279 144.623 28.3679C144.8 28.4569 144.8 28.6328 144.8 28.8107C144.8 28.8997 144.8 29.0777 144.711 29.1667C144.623 29.2535 144.534 29.3425 144.448 29.3425C144.27 29.4315 144.182 29.4315 144.004 29.4315C144.093 29.5205 144.27 29.5205 144.359 29.5205H144.711C144.711 29.4315 144.8 29.4315 144.889 29.4315L145.152 29.1667C145.241 28.9887 145.33 28.8997 145.33 28.7217V28.5459C145.33 28.4569 145.241 28.3679 145.241 28.3679L144.977 28.101C144.889 28.012 144.8 28.012 144.711 28.012C144.623 27.9252 144.448 27.9252 144.359 27.9252H143.3C143.409 28.0466 143.472 28.2039 143.475 28.3679V30.406V30.406ZM146.83 29.4315L147.273 28.279L147.715 29.4315H146.83ZM146.214 30.2302L146.125 30.406C146.125 30.406 146.037 30.495 146.037 30.584L145.948 30.673L145.771 30.8509H146.566C146.478 30.762 146.389 30.762 146.389 30.584L146.478 30.495L146.744 29.6984H147.803L148.067 30.495C148.067 30.584 148.156 30.584 148.156 30.673C148.156 30.762 148.067 30.762 147.981 30.8509H148.863L148.685 30.673C148.597 30.584 148.597 30.495 148.51 30.3192L147.537 27.9252H146.83C146.919 28.012 147.008 28.012 147.008 28.101C147.008 28.19 147.008 28.19 146.919 28.279L146.214 30.2302V30.2302ZM149.658 28.458V28.1021C149.57 28.1021 149.57 28.0131 149.481 27.9262H150.099C150.099 27.9262 150.099 28.0131 150.188 28.1021L151.777 30.1423V28.458V28.1021C151.777 28.0131 151.689 28.0131 151.6 27.9262H152.307L152.218 28.0131C152.132 28.1021 152.132 28.1021 152.132 28.191V30.941C151.954 30.941 151.866 30.852 151.777 30.852C151.689 30.7635 151.601 30.6746 151.513 30.5851L150.011 28.547V30.5851C150.011 30.674 150.099 30.674 150.099 30.674C150.099 30.763 150.188 30.763 150.188 30.852H149.481C149.57 30.763 149.57 30.674 149.658 30.674V28.458V28.458ZM153.809 29.5205L153.013 28.19L152.924 28.101L152.747 27.9252H153.279L153.365 28.012C153.454 28.012 153.454 28.012 153.454 28.101L153.543 28.19L154.161 29.1667L154.691 28.3679V28.279C154.779 28.279 154.779 28.19 154.779 28.19C154.779 28.012 154.691 28.012 154.602 27.9252H155.398L154.25 29.5205V30.3192C154.25 30.406 154.338 30.495 154.338 30.584C154.338 30.673 154.427 30.762 154.513 30.8509H153.631L153.809 30.673V29.5205V29.5205ZM185.777 5.49555V5.14174H186.041C186.129 5.14174 186.306 5.14174 186.306 5.31864C186.306 5.49555 186.218 5.49555 186.041 5.49555H185.777ZM185.777 5.76143H185.954L186.306 6.38218H186.659L186.306 5.76143C186.484 5.76143 186.659 5.58453 186.659 5.31864C186.659 4.96378 186.395 4.87479 186.041 4.87479H185.424V6.38218H185.777V5.76143ZM187.455 5.67351C187.455 4.78687 186.748 4.2551 186.041 4.2551C185.247 4.2551 184.629 4.78687 184.629 5.67351C184.629 6.56014 185.247 7.09191 186.041 7.09191C186.748 7.09191 187.455 6.56014 187.455 5.67351ZM187.013 5.67351C187.013 6.29426 186.572 6.73704 186.041 6.73704C185.424 6.73704 184.981 6.29426 184.981 5.67351C184.981 4.96484 185.424 4.60997 186.041 4.60997C186.572 4.60891 187.013 4.96378 187.013 5.67351Z" fill="#BE05FF"/>
</g>
</svg>
