<svg width="190" height="50" viewBox="0 0 190 50" fill="none" xmlns="http://www.w3.org/2000/svg">
<mask id="mask0_1_64" style="mask-type:alpha" maskUnits="userSpaceOnUse" x="0" y="0" width="190" height="50">
<rect width="190" height="50" fill="#BE05FF"/>
</mask>
<g mask="url(#mask0_1_64)">
<path fill-rule="evenodd" clip-rule="evenodd" d="M58.3683 37.0647C61.1804 31.2109 64.0139 25.8334 66.8646 20.9302C69.7204 16.0311 72.3325 12.0409 74.6978 8.9698C74.8166 8.79918 74.9872 8.56459 75.2116 8.27109C76.016 7.17426 76.8325 6.62484 77.6551 6.62484C78.1355 6.62484 78.4879 6.66749 78.7215 6.75178C78.952 6.83912 79.0668 6.97724 79.0668 7.16309C79.0668 7.679 78.5864 8.54732 77.6297 9.76601C77.0975 10.4424 76.5901 11.1378 76.1084 11.851C74.0884 14.9089 71.6541 18.9295 68.8054 23.918C65.7744 29.2454 62.8514 34.6335 60.0379 40.0789C59.6571 40.3704 59.1209 40.6182 58.4262 40.8264C57.7538 41.0285 57.0556 41.1322 56.3534 41.1341C55.5115 41.1341 54.9408 40.7827 54.6412 40.0789C54.3406 39.3751 54.1913 37.7187 54.1913 35.1077V32.5169C54.1913 29.3433 54.3791 26.0386 54.758 22.608C55.1347 19.1773 55.7522 15.241 56.6104 10.7948C56.7495 10.1783 56.9546 9.71929 57.2288 9.4197C57.3571 9.27406 57.5156 9.15823 57.6933 9.08034C57.871 9.00245 58.0636 8.96437 58.2576 8.96878C58.6872 8.96878 59.2864 9.21049 60.0593 9.69085C60.8321 10.1722 61.2221 10.6272 61.2221 11.0578C61.2221 11.332 61.0474 12.111 60.7041 13.3977C59.0396 19.9228 58.2109 26.2996 58.2109 32.5322C58.2109 33.3233 58.2241 34.0911 58.2485 34.8385C58.2779 35.585 58.3155 36.3263 58.3683 37.0647ZM92.8034 31.0545C92.077 32.672 91.213 34.2241 90.2208 35.6936C89.5658 36.6696 88.9239 37.4567 88.2943 38.0579C87.6646 38.6571 87.1792 38.9567 86.8359 38.9567C86.6988 38.975 86.5993 38.9445 86.5394 38.8673C86.4764 38.7901 86.4398 38.6236 86.4205 38.3636C86.4205 37.7471 86.6389 36.8382 87.0654 35.6286C87.495 34.4211 88.0729 33.1395 88.799 31.7847C89.5566 30.3822 90.3132 29.2854 91.0709 28.4963C91.8285 27.7092 92.5018 27.3162 93.0868 27.3162C93.3264 27.3162 93.5174 27.3872 93.6545 27.5345C93.7956 27.6818 93.8637 27.8717 93.8637 28.1114C93.8637 28.4881 93.5123 29.4692 92.8034 31.0545V31.0545ZM92.1311 36.6503C92.122 36.8047 92.1159 37.019 92.1159 37.2891C92.1159 38.2793 92.3251 39.0389 92.7394 39.5762C93.1538 40.1134 93.7398 40.3815 94.5005 40.3815C95.0519 40.3815 95.581 40.213 96.0939 39.8798C96.6017 39.5427 97.1653 38.975 97.7899 38.1676C98.5372 37.2153 99.2198 36.2141 99.8332 35.1706C100.385 34.218 100.662 33.6056 100.662 33.3314C100.662 33.109 100.566 32.8571 100.37 32.5839C100.177 32.3087 99.9835 32.1737 99.7896 32.1737C99.6464 32.1737 99.427 32.4062 99.1294 32.8724C98.8905 33.2408 98.6433 33.6038 98.3881 33.9611C97.2669 35.5657 96.4717 36.6351 96.0035 37.1622C95.5394 37.6903 95.1778 37.9513 94.9229 37.9513C94.7543 37.9513 94.6355 37.8995 94.5675 37.7989C94.4994 37.6933 94.4639 37.5135 94.4639 37.2515C94.4639 36.7712 94.6518 35.9343 95.0225 34.7461C95.3962 33.5579 95.905 32.2387 96.5489 30.7904C96.7672 30.2887 97.077 29.652 97.4629 28.8761C97.9209 27.9296 98.1514 27.3324 98.1514 27.0907C98.1514 26.7139 97.9554 26.3889 97.5665 26.1229C97.1714 25.8568 96.6738 25.7217 96.0665 25.7217C95.8776 25.7217 95.6816 25.742 95.4795 25.7755C95.2043 25.8274 94.9326 25.8963 94.666 25.9817C94.2669 25.4505 93.8677 25.0646 93.4727 24.8229C93.08 24.5876 92.6305 24.464 92.1728 24.4654C91.2973 24.4654 90.3498 24.9204 89.3302 25.8324C88.3115 26.7424 87.363 27.9864 86.4906 29.5677C85.5837 31.0951 84.9012 32.5728 84.4371 33.9986C84.2056 34.7126 84.0309 35.4032 83.9151 36.0653C83.4591 36.7732 83.0204 37.3389 82.5959 37.7715C82.0312 38.3392 81.5387 38.6185 81.1121 38.6185C80.84 38.6185 80.6226 38.4834 80.4601 38.2082C80.2976 37.934 80.2174 37.5552 80.2174 37.0758C80.2174 35.6337 80.6226 33.3385 81.433 30.1953C82.2404 27.0531 83.3372 23.6367 84.7154 19.9441C85.6974 19.875 87.1304 19.7593 89.0163 19.6008C90.8992 19.4383 92.2357 19.3591 93.0309 19.3591C93.7357 19.3591 94.1938 19.3165 94.3989 19.2302C94.6051 19.1489 94.7107 19.0027 94.7107 18.7995C94.7107 18.2227 94.3806 17.8144 93.7256 17.5778C93.0705 17.3402 91.9331 17.2224 90.3153 17.2224C89.6612 17.2224 88.9321 17.2376 88.1308 17.2742C87.3295 17.3067 86.4886 17.3595 85.6101 17.4275C85.7807 16.7207 86.1463 15.7173 86.71 14.4204C86.71 14.1279 86.5607 13.8842 86.2611 13.6943C85.9645 13.5054 85.5939 13.4089 85.148 13.4089C84.6057 13.4089 84.1599 13.6496 83.8207 14.135C83.4804 14.6194 83.0285 15.766 82.4679 17.5809C79.1135 17.8358 77.0072 18.0643 76.146 18.2694C75.2888 18.4736 74.8552 18.7701 74.8552 19.1601C74.8552 19.5846 75.0583 19.9147 75.4635 20.1513C75.8718 20.391 76.4425 20.5088 77.1839 20.5088C77.5424 20.5088 78.103 20.4905 78.8606 20.457C79.7141 20.4173 80.5669 20.3652 81.4188 20.3006C80.194 24.047 79.2567 27.3162 78.6016 30.109C78.4054 30.9365 78.2283 31.7685 78.0705 32.6043C77.9994 32.719 77.9253 32.8561 77.844 33.0186C77.6571 33.3761 77.5099 33.6513 77.4114 33.8362C76.5816 35.2072 75.7499 36.3172 74.908 37.1703C74.061 38.0274 73.4151 38.454 72.9692 38.454C72.6615 38.454 72.43 38.3605 72.2837 38.1706C72.1375 37.9797 72.0664 37.6882 72.0664 37.2881C72.0664 36.2563 72.7956 33.7397 74.2539 29.7363L74.5881 28.7806C74.6906 28.5054 74.8186 28.1601 74.975 27.7447C75.2147 27.1242 75.3335 26.7627 75.3335 26.6601C75.3335 26.3849 75.2431 26.1726 75.0654 26.0233C74.8846 25.8781 74.6419 25.805 74.3332 25.805C73.7848 25.805 73.2891 25.9025 72.8433 26.0883C72.3975 26.2793 72.0735 26.5362 71.8684 26.8642C71.3535 27.6046 70.8396 28.9827 70.3247 30.9976C69.8139 33.0146 69.5549 34.804 69.5549 36.3731C69.5549 37.7177 69.826 38.7769 70.3653 39.5528C70.9046 40.3267 71.6246 40.7157 72.5315 40.7157C73.4384 40.7157 74.3017 40.3582 75.1243 39.6524C75.885 38.9943 76.7167 37.9188 77.6206 36.4208V36.566C77.6206 37.8375 77.8796 38.847 78.3904 39.5945C78.9043 40.3399 79.5877 40.7157 80.4439 40.7157C81.1954 40.7157 81.9114 40.5176 82.5979 40.1226C83.0751 39.8416 83.5075 39.4908 83.8806 39.0816C84.0014 39.5244 84.1995 39.9123 84.4737 40.2455C84.9632 40.8365 85.602 41.1341 86.387 41.1341C87.362 41.1341 88.3562 40.7116 89.3667 39.8666C90.3762 39.0197 91.3146 37.8213 92.1717 36.2664C92.149 36.3932 92.1354 36.5215 92.1311 36.6503ZM74.5799 24.4665C74.0529 24.4665 73.6263 24.3273 73.3054 24.0531C72.9814 23.7769 72.8189 23.3981 72.8189 22.9167C72.8189 22.2809 73.149 21.7508 73.8132 21.3283C74.4774 20.9079 75.167 20.6946 75.8809 20.6946C76.342 20.6946 76.6852 20.8084 76.9158 21.0318C77.1433 21.2562 77.258 21.5853 77.258 22.0138C77.258 22.6344 76.9808 23.198 76.4293 23.7068C75.8758 24.2105 75.2594 24.4665 74.5799 24.4665V24.4665Z" fill="#BE05FF"/>
<path fill-rule="evenodd" clip-rule="evenodd" d="M126.14 11.3696C123.081 17.7669 120.357 24.3191 117.979 30.9996C115.595 37.7024 114.205 41.0518 113.812 41.0518C113.314 41.0518 112.856 40.867 112.435 40.4963C112.015 40.1297 111.805 39.7488 111.805 39.3538C111.805 38.5961 112.66 36.0745 114.364 31.7827C116.072 27.4939 118.297 22.3195 121.044 16.2616C121.404 15.4563 121.852 14.4183 122.381 13.1458C123.615 10.1946 124.98 8.71893 126.473 8.71893C127.436 8.71893 128.198 8.82354 128.776 9.02767C129.349 9.23485 129.639 9.49992 129.639 9.82693C129.639 9.89599 129.544 10.1946 129.356 10.7267C127.385 16.7003 126.141 23.8906 125.627 32.3016C129.312 24.9945 132.597 19.1133 135.491 14.6529C138.381 10.1956 140.307 7.96741 141.268 7.96741C142.569 7.96741 143.667 8.11569 144.558 8.41427C145.453 8.71183 145.895 9.06423 145.895 9.4725C145.895 9.57405 145.857 9.69389 145.78 9.82998C145.685 9.98971 145.569 10.1359 145.434 10.2646C143.734 13.8517 142.194 17.7789 140.802 22.0433C139.414 26.3021 138.273 30.6373 137.383 35.0274C137.228 35.7711 137.09 36.5184 136.971 37.2688C136.644 39.2603 136.126 40.2556 135.427 40.2556C134.929 40.2556 134.536 40.0748 134.257 39.7123C133.974 39.3548 133.833 38.845 133.833 38.195C133.833 35.8104 134.527 32.1493 135.916 27.2176C137.304 22.283 139.206 16.7521 141.624 10.6221C139.928 12.6502 138.059 15.3222 136.015 18.6431C133.964 21.9641 131.667 26.0609 129.116 30.9346C128.8 31.5188 128.5 32.1114 128.215 32.7119C127.172 34.7532 126.249 35.7769 125.443 35.7769C124.673 35.7769 124.023 35.586 123.491 35.2112C122.96 34.8324 122.696 34.3348 122.696 33.7153C122.696 31.091 122.995 27.8138 123.601 23.8947C124.204 19.9715 125.049 15.8005 126.14 11.3696V11.3696ZM182.148 31.0545C181.422 32.6728 180.557 34.225 179.563 35.6936C178.908 36.6696 178.264 37.4567 177.637 38.0579C177.009 38.6571 176.522 38.9567 176.179 38.9567C176.042 38.9749 175.941 38.9445 175.879 38.8673C175.819 38.7901 175.782 38.6236 175.765 38.3636C175.765 37.7471 175.979 36.8382 176.41 35.6286C176.84 34.4211 177.419 33.1395 178.143 31.7847C178.901 30.3822 179.656 29.2854 180.414 28.4962C181.172 27.7092 181.844 27.3161 182.433 27.3161C182.673 27.3161 182.861 27.3872 182.999 27.5345C183.14 27.6818 183.207 27.8717 183.207 28.1113C183.206 28.4881 182.851 29.4692 182.148 31.0545V31.0545ZM181.474 36.6503C181.464 36.8047 181.458 37.019 181.458 37.2891C181.458 38.2793 181.666 39.0389 182.081 39.5762C182.495 40.1134 183.08 40.3815 183.842 40.3815C184.393 40.3815 184.922 40.2129 185.434 39.8798C185.942 39.5427 186.505 38.9749 187.126 38.1676C187.876 37.2163 188.56 36.215 189.173 35.1706C189.727 34.218 190 33.6056 190 33.3314C190 33.109 189.902 32.8571 189.711 32.5839C189.517 32.3087 189.324 32.1736 189.128 32.1736C188.986 32.1736 188.767 32.4062 188.467 32.8724C188.186 33.305 187.939 33.6676 187.727 33.9611C186.606 35.5657 185.811 36.6351 185.343 37.1621C184.876 37.6902 184.514 37.9513 184.262 37.9513C184.089 37.9513 183.975 37.8995 183.907 37.7989C183.837 37.6933 183.8 37.5135 183.8 37.2515C183.8 36.7711 183.991 35.9343 184.361 34.7461C184.736 33.5579 185.244 32.2386 185.887 30.7904C186.107 30.2887 186.413 29.652 186.803 28.8761C187.261 27.9296 187.487 27.3324 187.487 27.0907C187.487 26.7139 187.295 26.3889 186.904 26.1228C186.511 25.8568 186.014 25.7217 185.402 25.7217C185.218 25.7217 185.022 25.742 184.82 25.7755C184.544 25.827 184.273 25.8959 184.006 25.9817C183.607 25.4505 183.209 25.0646 182.808 24.8229C182.416 24.5865 181.966 24.4628 181.509 24.4654C180.636 24.4654 179.69 24.9204 178.67 25.8324C177.651 26.7424 176.702 27.9864 175.834 29.5677C174.924 31.0951 174.237 32.5728 173.777 33.9986C173.592 34.5663 173.444 35.1158 173.332 35.651C172.938 36.1864 172.507 36.694 172.043 37.1703C171.198 38.0274 170.553 38.454 170.105 38.454C169.795 38.454 169.568 38.3605 169.42 38.1706C169.275 37.9797 169.2 37.6882 169.2 37.2881C169.2 36.2563 169.932 33.7397 171.388 29.7363L171.721 28.7806C171.824 28.5054 171.954 28.1601 172.108 27.7447C172.347 27.1242 172.467 26.7627 172.467 26.6601C172.467 26.3849 172.376 26.1726 172.201 26.0233C172.018 25.8781 171.774 25.805 171.465 25.805C170.917 25.805 170.418 25.9025 169.975 26.0883C169.529 26.2792 169.203 26.5362 168.999 26.8642C168.485 27.6046 167.973 28.9827 167.459 30.9976C167.173 32.094 166.958 33.2077 166.814 34.3317C166.674 34.6028 166.52 34.8662 166.352 35.1208C165.524 36.3548 164.889 37.2058 164.448 37.672C164.009 38.1361 163.641 38.3686 163.347 38.3686C163.177 38.3686 163.039 38.2793 162.946 38.1005C162.853 37.9198 162.801 37.6578 162.801 37.3155C162.801 35.8795 163.296 33.4837 164.293 30.1273C165.283 26.7708 166.607 23.1939 168.266 19.3947C168.602 18.6137 168.951 17.8384 169.313 17.069C169.941 15.7254 170.257 14.8825 170.257 14.5362C170.257 14.1949 170.072 13.9045 169.704 13.6749C169.335 13.4414 168.865 13.3236 168.299 13.3236C167.542 13.3236 166.314 15.8503 164.612 20.9028C163.873 23.1236 163.118 25.339 162.347 27.5487C161.814 27.0592 161.315 26.6916 160.845 26.4356C160.371 26.1838 159.936 26.0589 159.544 26.0589C159.221 26.0589 158.884 26.1543 158.545 26.3503C158.201 26.5504 157.814 26.852 157.388 27.2644C156.085 28.6089 154.981 30.1332 154.111 31.7908C153.998 31.9702 153.894 32.1549 153.799 32.3443C153.644 32.6439 153.522 32.8642 153.434 33.0145C152.456 34.8751 151.312 36.4147 150.001 37.6303C148.685 38.85 147.547 39.4574 146.587 39.4574C146.073 39.4574 145.682 39.2014 145.415 38.6896C145.147 38.1757 145.016 37.4262 145.016 36.4299C145.016 35.9099 145.048 35.4184 145.107 34.9584C145.167 34.4983 145.256 34.0423 145.382 33.5914C145.619 33.8331 145.871 34.022 146.139 34.151C146.403 34.284 146.675 34.347 146.949 34.347C148.252 34.347 149.511 33.4482 150.732 31.6435C151.945 29.8409 152.557 27.8564 152.557 25.6933C152.557 24.7335 152.049 24.112 151.035 23.8378C150.663 23.7342 150.357 23.6509 150.123 23.5809C149.879 23.4179 149.619 23.2797 149.348 23.1685C149.135 23.085 148.909 23.0413 148.681 23.0396C148.251 23.0396 147.816 23.1868 147.378 23.4773C146.938 23.7718 146.533 24.1933 146.153 24.7447C144.972 26.4803 143.996 28.478 143.233 30.7325C142.469 32.9861 142.084 34.9218 142.084 36.5386C142.084 38.0701 142.415 39.2207 143.076 39.9844C143.737 40.7481 144.725 41.133 146.048 41.133C147.297 41.133 148.476 40.7776 149.582 40.0657C150.427 39.5203 151.324 38.7028 152.269 37.6161C152.255 37.8202 152.249 38.0203 152.249 38.2173C152.249 39.4685 152.543 40.5207 153.123 41.3676C153.71 42.2167 154.414 42.6412 155.234 42.6412C155.975 42.6412 156.799 42.1689 157.71 41.2285C158.617 40.2861 159.451 39.0308 160.207 37.4557C160.274 38.5291 160.53 39.3517 160.967 39.9316C161.403 40.5064 161.992 40.7989 162.73 40.7989C163.47 40.7989 164.164 40.4821 164.815 39.8504C165.4 39.2847 166.034 38.3808 166.717 37.1388C166.802 38.1249 167.064 38.9323 167.497 39.5528C168.036 40.3267 168.758 40.7156 169.663 40.7156C170.573 40.7156 171.436 40.3582 172.256 39.6523C172.541 39.4045 172.835 39.0988 173.142 38.7343C173.244 39.3213 173.467 39.827 173.811 40.2454C174.3 40.8365 174.937 41.1341 175.729 41.1341C176.701 41.1341 177.697 40.7116 178.707 39.8666C179.716 39.0196 180.651 37.8213 181.508 36.2664C181.495 36.37 181.478 36.4969 181.474 36.6503V36.6503ZM171.718 24.4664C171.192 24.4664 170.767 24.3273 170.442 24.0531C170.119 23.7769 169.956 23.3981 169.956 22.9167C169.956 22.2809 170.289 21.7508 170.95 21.3283C171.618 20.9079 172.303 20.6946 173.017 20.6946C173.479 20.6946 173.822 20.8083 174.052 21.0318C174.283 21.2562 174.398 21.5853 174.398 22.0138C174.398 22.6343 174.118 23.198 173.571 23.7068C173.014 24.2105 172.398 24.4664 171.718 24.4664V24.4664ZM158.533 37.1002C157.324 39.2309 156.352 40.2972 155.616 40.2972C155.391 40.2972 155.195 40.1825 155.025 39.9519C154.851 39.7198 154.759 39.4365 154.765 39.1466C154.765 38.1747 155.01 36.9986 155.499 35.6154C156.004 34.204 156.673 32.8566 157.492 31.6009C158.282 30.3933 158.943 29.5139 159.474 28.9685C160.005 28.4231 160.475 28.1489 160.891 28.1489C161.077 28.1489 161.255 28.2027 161.426 28.3013C161.6 28.4048 161.779 28.5755 161.969 28.8151C160.887 32.2092 159.743 34.9695 158.533 37.1002V37.1002ZM146.515 32.2529C146.33 31.9695 146.243 31.5887 146.243 31.1083C146.243 30.3568 146.603 29.3686 147.332 28.1449C148.058 26.9231 148.663 26.3077 149.148 26.3077C149.319 26.3077 149.467 26.391 149.598 26.5514C149.727 26.7062 149.797 26.9015 149.796 27.1029C149.796 28.3185 149.513 29.5524 148.951 30.8006C148.386 32.0497 147.823 32.6753 147.251 32.6753C146.941 32.6753 146.695 32.5321 146.515 32.2529V32.2529Z" fill="#6D6E70"/>
<path d="M0 25.0495C0 18.6961 2.58565 12.9327 6.75967 8.75865C10.9327 4.58464 16.6961 2 23.0505 2C29.405 2 35.1684 4.58565 39.3424 8.75865C43.5154 12.9316 46.101 18.694 46.101 25.0495C46.101 31.4039 43.5154 37.1663 39.3424 41.3393C35.1684 45.5123 29.405 48.099 23.0505 48.099C16.6961 48.099 10.9327 45.5143 6.75967 41.3393C2.58565 37.1663 0 31.4039 0 25.0495V25.0495ZM1.80772 20.5617C1.497 22.037 1.34077 23.5407 1.34157 25.0485C1.34157 31.0343 3.77591 36.4605 7.70821 40.3918C11.6385 44.321 17.0667 46.7574 23.0515 46.7574C29.0363 46.7574 34.4646 44.3221 38.3958 40.3918C42.3261 36.4605 44.7615 31.0333 44.7615 25.0485C44.7657 20.3109 43.2124 15.7034 40.3407 11.9354C38.4009 11.9415 36.2103 12.7438 34.4859 14.193C29.5573 18.2817 26.9889 24.2035 23.5288 30.6514C19.495 37.9371 12.9943 43.0739 12.9943 43.0211C14.0434 41.448 15.6155 38.8796 17.1876 35.7892C18.7597 32.8024 21.6947 22.1104 22.8474 18.7011C23.9473 15.2421 24.9435 14.0366 26.7787 12.3599C27.5129 11.7302 25.9936 11.3098 25.5214 12.1507C24.3149 14.2986 19.8606 16.7624 17.7116 16.9696C15.2986 17.2864 16.8179 13.6192 15.5596 12.5691C14.3389 11.5819 5.59277 16.1642 1.80772 20.5617V20.5617Z" fill="#BE05FF"/>
</g>
</svg>
