<svg width="190" height="50" viewBox="0 0 190 50" fill="none" xmlns="http://www.w3.org/2000/svg">
<mask id="mask0_1_36" style="mask-type:alpha" maskUnits="userSpaceOnUse" x="0" y="0" width="190" height="50">
<rect width="190" height="50" fill="#D9D9D9"/>
</mask>
<g mask="url(#mask0_1_36)">
<path fill-rule="evenodd" clip-rule="evenodd" d="M34.957 0C33.9269 12.275 47.8616 16.5187 44.9005 24.3191C74.5555 31.7437 58.0291 50.2417 34.9185 49.973C11.7392 50.7808 -8.40112 33.2823 23.5772 24.096C23.4431 31.204 34.9881 35.268 33.041 43.3522C36.5565 40.1859 36.7969 35.8679 33.763 30.3989C26.9554 23.1782 22.9326 16.125 28.8516 9.673C26.5608 19.1425 41.7636 25.5786 39.3959 34.1408C42.5401 30.018 44.619 24.8866 38.0961 18.4528C30.5959 10.3819 30.8985 4.99867 34.957 0Z" fill="#BE05FF"/>
<path d="M79.0774 8.75279C79.7037 8.62142 80.6921 8.52289 81.6975 8.52289C83.1309 8.52289 84.0538 8.76921 84.746 9.32756C85.3229 9.75453 85.669 10.4114 85.669 11.2818C85.669 12.3487 84.9603 13.2848 83.7901 13.7118V13.7446C84.8449 14.0074 86.0805 14.8773 86.0805 16.5195C86.0805 17.4719 85.7015 18.1941 85.1411 18.736C84.3665 19.4421 83.1144 19.7706 81.3015 19.7706C80.3126 19.7706 79.5545 19.7049 79.077 19.6392V8.75279H79.0774ZM80.5113 13.2848H81.8133C83.3296 13.2848 84.2191 12.4965 84.2191 11.4296C84.2191 10.1322 83.2302 9.62361 81.7799 9.62361C81.1211 9.62361 80.7416 9.67288 80.5113 9.72214V13.2848ZM80.5113 18.5886C80.7915 18.6379 81.2035 18.6543 81.7144 18.6543C83.1973 18.6543 84.5652 18.1124 84.5652 16.5035C84.5652 14.9927 83.2632 14.3691 81.6979 14.3691H80.5113V18.5886V18.5886ZM92.3772 19.672L92.2619 18.6703H92.2124C91.7674 19.2943 90.9104 19.8527 89.7737 19.8527C88.1585 19.8527 87.3345 18.7196 87.3345 17.5705C87.3345 15.6496 89.0485 14.5986 92.13 14.615V14.4508C92.13 13.7943 91.9487 12.612 90.3176 12.612C89.5759 12.612 88.8013 12.8419 88.2414 13.2031L87.9118 12.2507C88.571 11.8237 89.5269 11.5445 90.5323 11.5445C92.971 11.5445 93.5643 13.2031 93.5643 14.7956V17.7675C93.5643 18.4573 93.5973 19.1301 93.6962 19.672H92.3772V19.672ZM92.163 15.6163C90.5808 15.5834 88.7848 15.8626 88.7848 17.4063C88.7848 18.3423 89.4111 18.7852 90.1527 18.7852C91.1911 18.7852 91.8503 18.1284 92.0806 17.4551C92.13 17.3073 92.163 17.143 92.163 16.9953V15.6163V15.6163ZM95.9051 13.8755C95.9051 13.0544 95.8886 12.3816 95.8387 11.7247H97.1242L97.2071 13.0385H97.2396C97.6352 12.2831 98.5581 11.5441 99.8766 11.5441C100.98 11.5441 102.694 12.2009 102.694 14.9265V19.672H101.244V15.0908C101.244 13.8098 100.766 12.7429 99.3986 12.7429C98.4427 12.7429 97.7011 13.4162 97.4543 14.2204C97.3879 14.401 97.355 14.6474 97.355 14.8937V19.672H95.9051V13.8755V13.8755ZM110.737 19.3764C110.358 19.5735 109.518 19.8363 108.447 19.8363C106.041 19.8363 104.475 18.2109 104.475 15.7805C104.475 13.3341 106.156 11.5605 108.759 11.5605C109.616 11.5605 110.374 11.774 110.77 11.971L110.441 13.0877C110.094 12.8907 109.551 12.71 108.759 12.71C106.93 12.71 105.942 14.0566 105.942 15.7148C105.942 17.5536 107.128 18.6867 108.71 18.6867C109.534 18.6867 110.078 18.4732 110.49 18.2926L110.737 19.3764V19.3764ZM119.653 15.6327C119.653 18.5718 117.61 19.8527 115.682 19.8527C113.523 19.8527 111.859 18.2762 111.859 15.7641C111.859 13.1037 113.605 11.5441 115.814 11.5441C118.104 11.5441 119.653 13.2027 119.653 15.6327ZM113.326 15.7148C113.326 17.4551 114.331 18.7688 115.748 18.7688C117.132 18.7688 118.171 17.4719 118.171 15.682C118.171 14.3353 117.495 12.6279 115.781 12.6279C114.067 12.6279 113.326 14.2044 113.326 15.7148Z" fill="#6D6E70"/>
<path d="M79.391 39.0286C80.3433 39.6125 81.735 40.0992 83.1995 40.0992C85.3728 40.0992 86.6423 38.956 86.6423 37.3015C86.6423 35.7693 85.7633 34.8934 83.5415 34.0418C80.856 33.0934 79.1956 31.7067 79.1956 29.3953C79.1956 26.8407 81.3198 24.9435 84.518 24.9435C86.2028 24.9435 87.4233 25.3327 88.1558 25.7464L87.5698 27.4734C86.6094 26.9588 85.5352 26.6912 84.4448 26.6948C82.1988 26.6948 81.3445 28.0332 81.3445 29.1521C81.3445 30.6844 82.3453 31.4389 84.616 32.3147C87.3995 33.3853 88.815 34.7233 88.815 37.1318C88.815 39.6617 86.9353 41.8513 83.0535 41.8513C81.4667 41.8513 79.733 41.3892 78.854 40.8053L79.391 39.0286ZM98.1895 41.6073L98.0188 40.1234H97.9455C97.2863 41.0476 96.0168 41.875 94.3321 41.875C91.9396 41.875 90.7186 40.1964 90.7186 38.4935C90.7186 35.6475 93.2576 34.0906 97.8233 34.1143V33.8712C97.8233 32.8982 97.5546 31.1465 95.1378 31.1465C94.0391 31.1465 92.8913 31.4868 92.0613 32.0223L91.5728 30.6114C92.5494 29.9787 93.9658 29.565 95.4551 29.565C99.0685 29.565 99.9471 32.0223 99.9471 34.3821V38.785C99.9471 39.8068 99.9956 40.8044 100.143 41.6073H98.1895V41.6073ZM97.8723 35.5982C95.5288 35.5499 92.8671 35.9636 92.8671 38.2499C92.8671 39.6366 93.7946 40.2931 94.8933 40.2931C96.4316 40.2931 97.4081 39.3201 97.7501 38.3229C97.8233 38.1039 97.8723 37.8603 97.8723 37.6418V35.5982ZM103.413 33.02C103.413 31.8034 103.389 30.8057 103.316 29.8332H105.22L105.342 31.7796H105.391C105.976 30.6607 107.344 29.5654 109.297 29.5654C110.933 29.5654 113.472 30.5389 113.472 34.5769V41.6073H111.324V34.82C111.324 32.9223 110.615 31.3413 108.589 31.3413C107.173 31.3413 106.074 32.3389 105.708 33.5309C105.61 33.7982 105.562 34.1636 105.562 34.5285V41.6077H103.413V33.02V33.02ZM119.55 26.4512V29.8327H122.626V31.4626H119.55V37.812C119.55 39.2717 119.965 40.0987 121.161 40.0987C121.723 40.0987 122.138 40.0258 122.407 39.9532L122.505 41.5589C122.089 41.7291 121.43 41.8509 120.6 41.8509C119.599 41.8509 118.794 41.5347 118.281 40.9509C117.671 40.3182 117.451 39.2722 117.451 37.8854V31.4631H115.62V29.8332H117.451V27.0109L119.55 26.4512V26.4512ZM131.586 41.6073L131.415 40.1234H131.342C130.682 41.0476 129.413 41.875 127.728 41.875C125.335 41.875 124.114 40.1964 124.114 38.4935C124.114 35.6475 126.654 34.0906 131.219 34.1143V33.8712C131.219 32.8982 130.951 31.1465 128.534 31.1465C127.435 31.1465 126.288 31.4868 125.458 32.0223L124.969 30.6114C125.946 29.9787 127.362 29.565 128.851 29.565C132.465 29.565 133.343 32.0223 133.343 34.3821V38.785C133.343 39.8068 133.392 40.8044 133.539 41.6073H131.586V41.6073ZM131.268 35.5982C128.924 35.5499 126.263 35.9636 126.263 38.2499C126.263 39.6366 127.191 40.2931 128.29 40.2931C129.828 40.2931 130.804 39.3201 131.146 38.3229C131.219 38.1039 131.268 37.8603 131.268 37.6418V35.5982ZM136.809 33.02C136.809 31.8034 136.785 30.8057 136.712 29.8332H138.616L138.739 31.7796H138.787C139.373 30.6607 140.741 29.5654 142.693 29.5654C144.329 29.5654 146.868 30.5389 146.868 34.5769V41.6073H144.72V34.82C144.72 32.9223 144.012 31.3413 141.985 31.3413C140.569 31.3413 139.471 32.3389 139.104 33.5309C139.006 33.7982 138.958 34.1636 138.958 34.5285V41.6077H136.809V33.02ZM160.564 24.335V38.5665C160.564 39.6125 160.588 40.8044 160.662 41.6073H158.733L158.635 39.5641H158.586C157.927 40.8779 156.486 41.875 154.558 41.875C151.701 41.875 149.504 39.4665 149.504 35.8906C149.48 31.974 151.921 29.5654 154.802 29.5654C156.608 29.5654 157.829 30.4171 158.366 31.3654H158.415V24.335H160.564ZM158.416 34.6252C158.416 34.3574 158.391 33.9925 158.318 33.7252C158 32.3626 156.828 31.2436 155.217 31.2436C152.995 31.2436 151.677 33.1901 151.677 35.793C151.677 38.1774 152.85 40.1475 155.169 40.1475C156.609 40.1475 157.927 39.1992 158.318 37.593C158.391 37.3011 158.416 37.0096 158.416 36.6688V34.6252H158.416ZM165.323 36.1091C165.372 39.0044 167.228 40.1964 169.376 40.1964C170.915 40.1964 171.843 39.9286 172.648 39.5878L173.014 41.1205C172.257 41.4608 170.964 41.8504 169.083 41.8504C165.446 41.8504 163.273 39.466 163.273 35.9143C163.273 32.3626 165.373 29.565 168.815 29.565C172.673 29.565 173.698 32.9465 173.698 35.1115C173.698 35.5494 173.649 35.8902 173.625 36.1091H165.323V36.1091ZM171.622 34.5769C171.647 33.2147 171.061 31.0981 168.643 31.0981C166.471 31.0981 165.518 33.0929 165.348 34.5769H171.622ZM176.358 33.5062C176.358 32.1195 176.333 30.9275 176.26 29.8327H178.14L178.213 32.1437H178.311C178.848 30.5621 180.142 29.565 181.582 29.565C181.826 29.565 181.997 29.5896 182.192 29.6379V31.6574C181.952 31.6054 181.706 31.5809 181.46 31.5844C179.946 31.5844 178.872 32.728 178.579 34.3333C178.53 34.6252 178.481 34.966 178.481 35.3309V41.6073H176.357V33.5062H176.358Z" fill="#6D6E70"/>
</g>
</svg>
