<svg width="190" height="50" viewBox="0 0 190 50" fill="none" xmlns="http://www.w3.org/2000/svg">
<mask id="mask0_623_26" style="mask-type:alpha" maskUnits="userSpaceOnUse" x="0" y="0" width="190" height="50">
<rect width="190" height="50" fill="#D9D9D9"/>
</mask>
<g mask="url(#mask0_623_26)">
<path fill-rule="evenodd" clip-rule="evenodd" d="M79.6841 3.11194C79.8794 2.45848 80.4917 2.18735 81.2603 2.36316C81.6477 3.55252 81.2624 4.71329 81.4777 5.8963C81.6076 7.07613 81.8177 8.40635 81.1748 9.55759C81.6688 10.1634 81.3848 10.8878 81.2782 11.4714C81.0386 13.3724 81.0607 15.1358 80.8243 16.9638C80.668 18.9412 80.3397 20.8962 80.0969 22.8556C80.0916 23.0017 80.2605 23.0812 80.5192 23.0917C83.7052 22.917 86.639 22.5844 89.8324 22.1894C90.0045 22.1958 90.5186 22.2148 90.5292 21.9215C90.8184 16.2341 90.4194 10.5637 91.0496 4.93253C91.076 4.19857 91.1879 3.46886 91.4719 2.74444C91.6588 2.31127 92.2594 2.40659 92.7746 2.42565C93.6519 4.36803 93.5769 6.49575 93.5917 8.47943C93.6952 12.8164 92.9382 17.1216 93.1283 21.4438C93.2022 21.8007 93.9834 21.6874 94.4162 21.6334C95.892 21.4057 97.2813 21.1028 98.7477 21.1578C99.0052 21.1674 99.2491 21.6016 99.1562 21.8102C99.0528 22.2402 98.546 22.0009 98.2863 21.9903C98.1998 21.9882 98.1195 21.842 98.1195 21.842C96.3777 22.2858 94.3993 22.1396 92.9815 23.1881C92.6247 25.9672 92.7799 28.8395 92.2478 31.6863C92.6648 32.0686 92.3914 32.4997 92.3777 32.8651C91.6967 37.47 92.0926 42.0866 91.4983 46.6937C91.4962 46.7678 91.5373 46.7975 91.4423 47.0146C91.4402 47.0866 91.2629 47.2274 91.1763 47.2253C90.0752 46.7434 89.9697 46.1885 89.901 44.3848C89.8166 42.1671 89.7173 39.8943 90.4004 37.6416C90.1386 32.9297 90.8216 28.2527 90.6485 23.4688C90.5703 23.2464 90.146 23.0833 89.8029 23.0706C87.9871 23.3703 86.3497 23.5302 84.6332 23.4667C84.3598 23.8967 83.8509 23.7304 83.4139 23.9348C82.9768 24.1381 82.4743 23.7526 82.0436 23.8098C81.4376 23.9337 80.8391 23.8384 80.2268 24.1095C79.1795 24.512 79.5754 25.4811 79.2861 26.3527C79.284 26.4268 79.5363 26.5825 79.4424 26.7996C78.5176 28.6033 78.79 30.5975 78.2917 32.4901C76.9848 37.7316 75.8689 42.3927 74.3044 47.5515C74.2991 47.6987 73.9486 47.8332 73.9518 47.7602C73.8399 46.0635 74.1524 44.5331 74.4722 42.8555C75.018 39.6412 75.9058 36.5158 76.4548 33.2283C76.9014 30.3804 77.1737 27.5982 77.7068 24.7513C77.7174 24.4569 77.1135 24.4347 77.028 24.4315C75.568 24.2303 74.088 24.6147 72.704 24.7111C72.3588 24.6973 72.3746 24.2578 72.5498 24.1911C74.0415 23.5122 75.8478 23.6531 77.4999 23.2739C78.5408 23.0928 77.5506 21.8791 78.2632 21.2447C78.1787 21.1706 78.0119 21.0233 78.1038 20.8846C78.6538 19.9685 78.2569 18.9994 78.3793 17.9753C78.8153 12.9954 78.2125 8.12569 79.6841 3.11194ZM102.928 20.7596C103.99 17.7476 105.087 13.8226 106.738 11.0361C107.121 10.3381 108.216 9.76835 109.14 10.6167C108.352 15.9778 106.23 21.9003 104.604 27.3324C104.201 28.5387 103.686 29.637 103.288 30.7416C103.165 30.839 103.63 31.161 103.754 31.0646C106.595 28.4232 108.958 25.767 111.094 22.7941C111.469 22.2995 111.966 21.8092 112.217 21.412C114.467 18.6478 115.2 14.8107 115.791 11.679C115.923 11.2776 116.176 10.8804 116.426 10.5838C116.919 10.1952 117.752 10.2269 117.847 10.9418C118.92 17.6946 117.34 25.1623 117.938 31.7964C117.172 33.1902 117.832 34.7418 117.544 36.1546C113.635 31.9405 114.792 26.2881 114.492 21.2934C114.503 20.9884 114.267 20.8782 114.027 20.9704C113.3 21.2479 113.399 21.7615 113.148 22.1587C111.748 24.5469 109.653 26.4014 107.664 28.5652C107.543 28.6626 107.653 28.8691 107.649 28.9708C105.907 30.9396 104.067 32.2974 101.75 33.6329C101.508 33.7261 101.028 33.8087 100.923 33.3989C100.629 31.6588 100.679 30.2364 101.097 28.5228C101.79 25.9047 101.881 23.365 102.928 20.7596ZM132.859 15.3402C133.116 14.8414 133.966 14.4665 134.23 13.7643C134.743 12.7666 135.137 11.7637 135.535 10.6601C135.675 10.0543 136.751 9.99288 136.865 10.2005C138.418 13.5133 136.976 17.1206 137.325 20.694C137.839 26.4088 138.593 32.0316 138.872 37.6352C136.992 36.7519 136.592 34.6009 135.208 33.2273C134.455 27.5039 133.704 21.7785 134.509 16.0117C134.515 15.8084 134.165 15.5923 134.043 15.6887C132.658 17.6713 131.4 19.4548 129.899 21.3326C128.021 23.8045 126.619 26.2955 125.563 29.1042C125.435 29.3033 125.074 29.3902 124.949 29.5882C124.944 29.6899 125.054 30.0002 124.93 30.0966C123.942 30.9756 124.014 32.2995 123.5 33.2982C123.349 33.5179 123.135 33.6866 122.886 33.7822C122.764 33.8797 122.406 33.867 122.29 33.7611C122.055 33.6499 121.705 33.4338 121.713 33.2294C122.678 26.2479 124.233 19.4919 126.037 12.4394C126.182 11.733 126.699 10.6326 127.75 11.2829C128.451 11.716 128.423 12.5284 128.393 13.3407C127.915 16.6789 126.727 19.8901 127.084 23.2591C128.439 22.0888 129.206 20.694 130.091 19.3023C130.856 17.9107 132.205 16.9437 132.859 15.3402ZM148.991 36.8335C148.871 36.9309 149.214 37.1459 149.09 37.3461C148.966 37.5452 148.725 37.739 148.497 37.6278C147.697 37.1915 147.486 36.573 147.391 35.9608C147.653 28.6467 148.045 24.1858 148.538 16.8812C148.546 16.6779 148.09 16.3559 147.971 16.3517C145.222 16.4523 142.707 16.663 140.058 17.2773C139.934 17.3748 139.822 17.1672 139.707 17.0602C139.581 17.2593 139.333 17.4531 139.099 17.343C138.866 17.2328 138.637 16.9194 138.88 16.8262C141.901 15.82 145.132 15.6357 148.365 15.2481C149.179 12.0232 148.245 8.73361 149.408 5.62411C149.791 4.62221 149.832 3.50487 151.245 3.25175C151.364 3.25598 151.714 3.4731 151.71 3.57477C152.617 4.93041 151.603 6.62178 152.387 8.07592C151.96 9.99288 151.414 11.9045 152.183 13.7643C152.293 14.0736 152.878 14.4008 153.358 14.3161C154.688 13.8575 156.108 14.2155 157.559 13.7611C157.559 13.7611 157.786 14.0746 158.026 13.9825C159.238 13.5186 160.424 13.7664 161.62 13.7092C161.981 13.6213 161.962 14.1286 161.836 14.3278C161.467 14.619 161.558 15.4356 160.973 15.1083C159.917 14.5608 158.717 14.7196 157.756 14.887C156.915 15.0585 156.09 14.7228 155.245 14.9971L153.075 15.5266C152.476 15.6061 151.861 16.0911 151.727 16.4936C150.925 18.9052 151.199 21.2542 150.163 23.6573C150.154 23.8596 150.375 24.2758 150.371 24.3775C149.657 28.0123 150.346 28.4444 149.631 31.9776C149.339 33.5916 149.282 35.2173 148.991 36.8335ZM167.63 18.9369C166.646 19.7143 165.547 20.3847 164.337 20.8475C164.092 21.0424 163.742 20.8253 163.747 20.623C164.098 17.4839 165.766 14.2907 169.162 12.7899C170.012 12.415 170.698 13.2538 170.912 13.974C171.313 16.125 169.35 17.5781 167.63 18.9369ZM161.917 18.0505C161.787 18.3512 161.421 18.5408 161.292 18.8416C160.654 19.9367 161.207 21.178 160.452 22.2678C160.075 22.7624 159.003 22.7232 158.624 23.3184C158.62 23.4201 158.735 23.526 158.855 23.5302C159.21 23.6446 159.567 23.6594 159.816 23.3629C160.061 23.168 160.409 23.4868 160.406 23.5885C160.915 26.0498 161.142 29.7196 162.5 31.8039C163.059 32.8418 163.74 33.8829 164.91 34.5384C167.135 35.7384 169.616 36.5433 172.246 36.4374C172.484 36.448 172.257 36.1334 172.022 36.0233C169.3 35.3116 167.325 33.814 165.601 31.9193C163.881 29.9208 163.996 26.3696 163.416 23.993C163.327 23.6255 163.206 23.3184 163.267 22.8895C163.341 22.3483 163.563 22.0782 163.685 21.9808C167.827 19.6942 174.287 16.07 170.261 11.7499C169.572 11.0128 168.595 11.5868 167.63 11.8558C166.42 12.3197 165.32 12.9901 164.692 13.8829C164.562 14.1826 164.317 14.3765 164.188 14.5756C163.315 15.6622 162.321 16.7446 161.917 18.0505ZM176.041 20.6791C176.309 17.4807 177.451 14.6296 178.041 11.4978C178.062 10.8889 178.67 10.6061 179.501 10.7385C180.18 15.138 178.355 19.4432 179.278 23.6467C179.644 23.4571 180.128 23.2718 180.262 22.8704C180.504 22.7772 180.281 22.3631 180.407 22.164C180.772 21.9744 180.551 21.4576 181.034 21.3739C180.813 20.8571 181.304 20.4684 181.558 20.0712C182.706 17.9774 184.091 15.9948 185.24 13.902C185.743 13.2093 185.305 12.074 186.166 11.3941C186.289 11.2966 186.646 11.3104 186.765 11.3146C187.001 11.4248 187.228 11.7383 187.343 11.8452C188.403 15.6474 187.942 17.8471 189 21.6493C189.101 22.1619 189.091 23.9401 189.091 24.2684C189.091 24.6359 189.015 25.1591 188.978 25.4864C188.867 26.4978 188.857 26.7668 188.798 26.6821C188.463 26.1748 186.841 24.6359 185.784 22.0591C185.116 20.4302 185.071 18.6764 185.25 16.9543C185.259 16.751 185.028 16.5391 184.664 16.627C184.419 16.8209 184.178 16.9141 184.048 17.2138C183.025 19.1085 182.12 21.0075 180.974 22.9985C180.848 23.1977 180.71 23.7071 180.623 23.8395C179.334 25.8316 179.632 26.949 178.854 28.6488C178.733 28.7463 178.646 29.4145 178.646 29.4145C178.217 31.3326 178.036 31.7371 177.615 33.4508C177.336 34.5596 176.946 35.4588 176.672 36.4671C175.352 36.6217 174.42 35.9767 174.338 34.9568C174.022 30.3688 175.586 26.7657 175.867 22.1979C175.889 21.5889 175.938 21.9034 176.041 20.6791Z" fill="#BE05FF"/>
<path fill-rule="evenodd" clip-rule="evenodd" d="M57.4714 1.08892L57.9813 1.46172C59.6556 0.866504 60.8211 1.83452 62.3518 1.08892C63.5901 2.05693 62.1333 4.14122 63.5901 5.0351C62.9345 10.3952 63.2987 16.0529 63.9543 21.6364C63.9543 27.6669 63.2259 32.9528 63.0802 38.7588C62.2789 38.9822 62.279 39.8761 61.8419 40.3972L61.1135 39.6526C62.2072 27.9655 61.1863 14.3414 61.9876 2.35559L52.0811 2.50492C48.2943 0.568899 44.3608 3.17533 40.3545 2.35559C31.2503 1.53691 21.6352 3.17427 13.1126 1.61105C9.98042 2.35559 6.92211 0.940641 4.15306 1.46172V0.568896C22.3625 -0.324979 39.699 -0.175641 57.4714 1.08892ZM3.78885 3.77054L3.49748 11.289C6.11979 14.9366 10.636 15.607 13.6215 18.2123C10.9274 17.6171 8.37684 15.7563 5.39032 15.3835L3.78779 13.2251L3.27789 13.7451C2.84084 24.7628 2.91368 35.4078 1.8939 45.5338C1.45684 46.0549 1.31116 46.7253 1.384 47.544L2.62232 48.065C19.0836 46.9477 37.9486 50.1483 54.9926 48.7333C55.3568 48.9568 55.4297 49.2544 55.3568 49.6272C52.2975 50.0741 48.7282 48.8085 45.7427 50L10.124 49.8507C8.66821 49.2555 6.77432 50.1483 5.24358 49.8507C3.56926 49.9248 1.60147 49.7765 0 49.3296C1.384 40.0254 0.727366 29.9746 1.89284 20.3718C1.60147 19.1804 1.67431 18.4358 2.03852 17.3195C3.13116 12.704 0.727366 8.60848 2.03852 4.14228C1.38506 2.65319 3.716 2.42973 3.78885 3.77054Z" fill="#BE05FF" stroke="#BE05FF" stroke-miterlimit="2.613"/>
<path fill-rule="evenodd" clip-rule="evenodd" d="M25.1317 8.90608C25.4959 9.72476 25.8591 10.9162 25.4959 11.5856C23.7488 9.50129 23.8206 6.15138 23.3846 3.54601C23.8945 2.95079 24.113 3.546 24.6229 3.76947L25.1317 8.90608ZM38.3879 5.92897L33.8728 11.8101C33.29 12.0336 33.2161 11.4373 32.9987 11.0656C34.1641 8.75781 35.8395 6.59937 37.8791 4.81268C38.3879 4.81162 38.825 5.48203 38.3879 5.92897ZM18.6488 11.9584C18.2846 12.8523 20.1785 13.1499 19.013 13.9685C16.6092 11.4373 12.9671 10.768 11.3646 7.34391L11.6559 6.59831C14.1326 8.385 16.4635 10.0234 18.6488 11.9584ZM46.9822 13.5968C44.4328 14.9366 41.8115 16.7974 38.6054 16.7974C38.2412 16.5739 38.4597 16.2022 38.3869 15.9035C41.2288 15.0107 44.1414 13.8944 46.9822 13.5968ZM33.8717 17.8395C33.9446 19.7756 34.8915 22.902 32.8519 24.0924C32.342 21.7105 33.289 19.4028 31.1037 17.6902C28.4086 16.7974 26.5147 19.1041 24.2566 19.8497C21.5614 22.3057 18.502 24.9122 19.0119 28.9314C20.2502 30.0488 22.1441 31.3144 23.7467 30.8675C22.5812 31.3144 22.654 33.6974 21.1243 32.8776C19.9589 32.3565 18.2835 31.9837 17.9921 30.3453C17.1909 27.3682 18.502 24.7628 19.5229 22.3057C22.0713 18.7324 25.6406 17.0198 29.137 15.5318C31.0309 15.5318 33.1433 15.8294 33.8717 17.8395ZM12.8942 22.6785V23.1996C11.4374 23.4972 9.90772 23.5724 8.74225 24.6135C7.06688 24.5394 6.26561 25.805 4.66309 24.837V24.3159C7.50393 24.0194 9.83488 21.8599 12.8942 22.6785Z" fill="#BE05FF" stroke="#BE05FF" stroke-miterlimit="2.613"/>
<path fill-rule="evenodd" clip-rule="evenodd" d="M42.1025 31.9851C47.7103 37.3451 55.3598 37.791 60.9676 43.2252V43.7463C59.0008 44.1932 57.6168 42.1079 55.7229 41.8124C49.677 39.0566 41.3741 38.6849 38.6061 30.8677C38.3147 29.4528 36.9318 28.4848 36.1295 27.2954C32.633 28.7082 30.1564 32.5061 27.097 34.8128C24.2562 37.6427 21.9253 40.8423 19.2311 43.598H18.6484C16.6078 40.7703 14.4964 37.6427 11.8741 35.3339C8.08631 36.4513 7.28504 40.695 4.15283 43.077C4.44526 42.1089 4.5181 41.2172 4.66378 40.0257C6.63052 37.1217 9.5442 34.9622 12.384 33.5493C14.6421 35.5574 17.2644 38.239 18.6484 40.6961C21.2697 40.6961 21.4882 37.4193 23.2375 35.9302C27.1709 31.2405 31.2501 26.9237 36.4947 24.4666C39.3345 26.1039 39.6259 29.8997 42.1025 31.9851Z" fill="#BE05FF" stroke="#BE05FF" stroke-miterlimit="2.613"/>
<path fill-rule="evenodd" clip-rule="evenodd" d="M98.5236 43.9196C98.5236 43.5743 98.513 43.1772 98.4824 42.8107H100.419C100.441 43.1338 100.462 43.4557 100.462 43.7809H100.483C100.984 43.0215 101.652 42.6159 102.644 42.6159C103.425 42.6159 104.165 42.9781 104.52 43.8243C104.957 43.1083 105.677 42.6159 106.733 42.6159C107.848 42.6159 109.203 43.0321 109.203 45.1312V48.1634H107.201V45.3642C107.201 44.5678 106.9 43.9821 106.085 43.9821C105.417 43.9821 104.865 44.536 104.865 45.3229V48.1634H102.864V45.4288C102.864 44.6324 102.686 43.9832 101.779 43.9832C101.078 43.9832 100.525 44.6324 100.525 45.611V48.1634H98.5247V43.9196H98.5236ZM116.392 45.4881C116.392 44.3941 117.122 43.7883 118.062 43.7883C119.001 43.7883 119.73 44.3941 119.73 45.4881C119.73 46.5822 119.001 47.188 118.062 47.188C117.123 47.188 116.392 46.5822 116.392 45.4881ZM114.269 45.4881C114.269 46.7537 115.113 48.3614 118.063 48.3614C121.014 48.3614 121.855 46.7537 121.855 45.4881C121.855 44.2246 121.014 42.6169 118.063 42.6169C115.113 42.6169 114.269 44.2236 114.269 45.4881ZM133.729 47.0683C133.729 47.4093 133.739 47.8044 133.77 48.1645H131.834C131.808 47.8424 131.793 47.5195 131.79 47.1964H131.769C131.248 47.9124 130.464 48.3593 129.545 48.3593C127.635 48.3593 126.918 47.2505 126.918 45.8567V42.8118H128.919V45.5485C128.919 46.3989 129.284 46.9941 130.193 46.9941C131.018 46.9941 131.729 46.347 131.729 45.163V42.8107H133.73V47.0683H133.729ZM139.174 43.9196C139.174 43.5743 139.163 43.1772 139.133 42.8107H141.071C141.092 43.1338 141.112 43.4557 141.112 43.7809H141.133C141.657 43.0649 142.44 42.6159 143.357 42.6159C145.267 42.6159 145.986 43.7268 145.986 45.1206V48.1634H143.984V45.4288C143.984 44.5784 143.619 43.9832 142.71 43.9832C141.886 43.9832 141.174 44.6324 141.174 45.8143V48.1645H139.174V43.9196ZM150.756 42.8107H152.038V41.7252L154.04 40.9785V42.8107H155.729V44.1102H154.04V45.7836C154.04 46.5303 154.133 46.9253 154.935 46.9253C155.123 46.9253 155.415 46.9041 155.729 46.8607V48.1623C155.541 48.1952 155.009 48.2905 154.383 48.2905C152.851 48.2905 152.038 47.6826 152.038 46.3809V44.1092H150.756V42.8107ZM164.676 45.8334C164.676 46.3841 164.386 47.188 163.084 47.188C162.521 47.188 162.22 46.9666 162.22 46.6372C162.22 46.1924 162.501 45.8323 163.843 45.8323H164.676V45.8334ZM162.521 44.3951C162.532 44.0245 162.761 43.729 163.501 43.729C164.291 43.729 164.676 43.9418 164.676 44.7881H163.218C161.261 44.7881 160.094 45.3631 160.094 46.6266C160.094 47.7419 160.968 48.3604 162.459 48.3604C163.344 48.3604 164.239 48.1041 164.717 47.2949H164.738C164.738 47.5925 164.759 47.9833 164.779 48.1634H166.724C166.693 47.7677 166.679 47.3709 166.681 46.974V44.9257C166.681 43.1179 165.512 42.6148 163.468 42.6148C162.095 42.6148 160.565 42.9993 160.459 44.3941H162.521V44.3951ZM172.174 42.8107H174.176V48.1645H172.174V42.8107ZM174.266 41.9613H172.076V40.468H174.266V41.9613ZM179.7 43.9196C179.7 43.5743 179.69 43.1772 179.659 42.8107H181.597C181.618 43.1338 181.639 43.4557 181.639 43.7809H181.66C182.181 43.0649 182.965 42.6159 183.884 42.6159C185.794 42.6159 186.513 43.7268 186.513 45.1206V48.1634H184.511V45.4288C184.511 44.5784 184.146 43.9832 183.237 43.9832C182.412 43.9832 181.701 44.6324 181.701 45.8143V48.1645H179.7V43.9196Z" fill="#BE05FF"/>
</g>
</svg>
