<svg width="190" height="50" viewBox="0 0 190 50" fill="none" xmlns="http://www.w3.org/2000/svg">
<mask id="mask0_1_11" style="mask-type:alpha" maskUnits="userSpaceOnUse" x="0" y="0" width="190" height="50">
<rect width="190" height="50" fill="#D9D9D9"/>
</mask>
<g mask="url(#mask0_1_11)">
<path fill-rule="evenodd" clip-rule="evenodd" d="M126.599 2.33867V1.91745L126.739 1.40383L126.972 1.0288L127.252 0.748502L128.045 0.234105L128.791 0L129.818 0.234105L130.098 0.514403L130.471 0.748502L130.751 1.0288L130.985 1.40383L131.124 1.91745V2.85308L130.985 3.22732L130.471 4.0228L130.098 4.25612L129.818 4.5372H129.305L128.791 4.67734L128.419 4.5372H128.045L127.252 4.0228L126.739 3.22732L126.599 2.85308V2.33867V2.33867Z" fill="#BE05FF"/>
<path fill-rule="evenodd" clip-rule="evenodd" d="M28.9861 4.91142L42.9846 4.67732L44.2905 47.5211L28.4729 47.287L28.9861 4.91142V4.91142ZM45.5973 28.1564L70.0934 4.2561L72.1461 44.6673L45.5973 28.1564ZM46.4838 1.26287L45.3169 21.2813L68.1337 5.42582L46.4838 1.26287ZM46.3901 29.233L72.1461 48.9704L45.9706 50L46.3901 29.233Z" fill="#6D6E70"/>
<path fill-rule="evenodd" clip-rule="evenodd" d="M28.4729 4.7712L41.8176 3.5083L43.2641 46.3506L26 44.4331L28.4729 4.7712V4.7712ZM44.6638 24.7889L71.9133 4.0227L70.7463 45.6028L44.6638 24.7889Z" fill="#BE05FF"/>
<path fill-rule="evenodd" clip-rule="evenodd" d="M43.4973 1.54319L45.4571 21.5624L65.5675 2.33867L43.4973 1.54319ZM44.6635 28.5769L71.2599 47.3802L45.0837 49.3439L44.6635 28.5769V28.5769Z" fill="#054A34"/>
<path fill-rule="evenodd" clip-rule="evenodd" d="M81.6185 6.36142V8.79326L81.7583 11.038V13.3767L81.8989 15.7153L82.2714 22.3101L82.5518 24.5556L82.412 25.07L82.1316 25.4435L81.7583 25.7253L81.2451 25.8185L80.8257 25.7253L80.4523 25.5844L80.079 25.164L79.9391 24.6488L79.6587 20.2525L79.5658 15.7153V6.36142L79.6587 5.9402L79.9391 5.56594L80.2188 5.42579L80.5921 5.28564L80.9655 5.42579L81.3857 5.56594L81.6185 6.36142V6.36142Z" fill="#BE05FF"/>
<path fill-rule="evenodd" clip-rule="evenodd" d="M90.7171 5.94012L84.9778 14.9198L83.4383 16.2297L82.7853 16.4638H82.1315L81.7582 15.5751L82.7853 14.0319L84.9778 10.7576L89.551 4.91132L90.0634 4.77117L90.7171 5.05147L90.8101 5.70602L90.7171 5.94012V5.94012Z" fill="#BE05FF"/>
<path fill-rule="evenodd" clip-rule="evenodd" d="M83.1582 14.4061L86.4239 17.6327L91.743 21.5623L94.0761 24.4146L95.1024 26.754L94.9626 27.4086L94.2159 28.0631L93.4231 28.1563L92.6295 27.5017L90.7167 24.4146L86.0505 19.738L82.5513 16.3698L81.6179 15.2008V14.7804L82.2709 14.125L82.5513 14.0319L83.1582 14.4061V14.4061Z" fill="#BE05FF"/>
<path fill-rule="evenodd" clip-rule="evenodd" d="M95.8953 10.5238H94.9627L93.563 11.4124L92.7695 13.3768L92.2571 15.7155L92.3961 18.5686L93.0499 19.9716L94.3097 21.2815L95.4759 21.9361L97.577 22.2171L99.6289 21.9361L102.242 20.7671L103.128 19.8785L104.061 18.1474L104.295 16.6042L104.061 15.2011L102.754 13.3768L101.308 12.7223L99.9093 12.5822L98.4627 13.0966L95.8953 14.92L95.1025 15.7155L94.4496 15.5754L93.9364 15.061L94.0762 14.2655L95.4759 11.7867L97.0623 10.6177L98.8822 9.9624H100.655L102.382 10.5238L104.295 11.7867L105.46 13.0966L106.254 14.7807L106.627 16.464L106.395 19.083L105.46 20.9073L104.061 22.3103L101.589 23.6202L98.7424 24.2747L96.2695 24.4149L93.9364 23.9005L91.9767 22.7315L90.9503 21.4217L90.1568 19.3171L89.7842 16.464L89.9232 14.7807L90.7168 12.4412L92.1165 10.2435L93.563 9.21469L94.73 8.79346L96.5499 8.93361L96.7834 9.86923L96.5499 10.3836L95.8953 10.5238V10.5238ZM108.727 7.39041L109.1 8.4192L109.474 9.58893L109.753 10.898L109.987 13.7511L110.127 15.061V17.633L110.64 21.7959V22.4512L110.78 23.105V24.4149L110.64 24.9301L110.406 25.3035L109.987 25.4437L109.753 25.5846L109.241 25.4437L108.821 25.3035L108.588 24.9301L108.448 24.4149V23.2459L108.307 22.5914V21.9361L108.214 20.9073V19.8785L108.074 18.9428L107.933 17.7739V11.5534L107.795 10.2435L107.561 9.21469L107.28 8.27906L107.048 7.90481L107.28 7.39041L107.561 7.11011L107.795 7.01616H108.214L108.448 7.25026L108.727 7.39041V7.39041Z" fill="#BE05FF"/>
<path fill-rule="evenodd" clip-rule="evenodd" d="M108.961 22.9655L109.615 22.8246H114.14L114.654 22.7314L115.307 22.8246L115.819 23.1049L116.24 23.4799L116.379 23.9943V24.5557L116.1 25.0701L115.726 25.4436L115.073 25.5845L114.561 25.7254H110.406L109.894 25.8186H109.1L108.448 25.7254L108.074 25.4436L107.655 25.0701L107.562 24.5557L107.655 23.9943L107.933 23.4799L108.308 23.1049L108.961 22.9655V22.9655ZM118.06 6.87592L118.153 8.04486L118.433 9.21459L118.572 10.5237L118.806 12.8624V16.7442L118.947 18.1473V19.4571L119.086 20.6261V24.1345L118.806 24.4148L118.294 24.6489L117.78 24.789L117.406 24.6489L116.613 24.1345V23.1049L116.474 22.7314V22.0769L116.24 19.4571V14.2654L116.474 11.9267V10.6176L116.613 9.4479L116.379 7.11001V6.73577L116.474 6.45469L116.753 6.22136L117.127 6.08043H117.406L117.639 6.22136L117.92 6.45469L118.06 6.87592Z" fill="#BE05FF"/>
<path fill-rule="evenodd" clip-rule="evenodd" d="M114.794 10.6177L117.127 9.448L121.045 8.55935L123.378 8.70028L125.152 9.07453L126.972 10.5238L127.905 12.2079L128.138 13.6109L127.764 14.92L126.318 16.6042L124.126 17.914L121.56 18.5686L119.086 18.8027L117.92 18.4284L117.546 17.3996L117.92 16.3701L119.086 15.9496L121.932 15.7155L124.266 15.2011L125.291 14.5466L125.712 13.4708L125.291 12.3019L124.405 11.2723L122.585 10.5238H120.393L117.405 11.2723L115.307 12.3019L114.654 12.0678L114.42 11.2723L114.794 10.6177V10.6177Z" fill="#BE05FF"/>
<path fill-rule="evenodd" clip-rule="evenodd" d="M129.818 9.21476L129.725 11.2723L129.818 13.2368V17.1186L129.725 18.1474V20.1126L129.818 21.1414V23.6203L129.725 24.1347L129.305 24.6491L128.931 24.9301H128.045L127.485 24.6491L127.252 24.1347L127.111 23.6203V23.1051L126.972 22.4513L126.878 21.9361V21.5627L126.74 20.3929V18.1474L126.878 16.9785L127.111 14.9201L127.252 14.0322L127.485 13.0966L127.764 11.0382L128.045 10.1034V9.07461L128.138 8.70035L128.419 8.41927L128.652 8.27913H128.931L129.305 8.41927L129.584 8.55942L129.725 8.79353L129.818 9.21476V9.21476ZM133.737 8.41927V11.5534L134.111 20.1126L134.251 20.6263L134.391 21.0475L134.485 21.5627V22.0771L134.623 22.4513V22.9657L134.904 23.9945L134.623 24.7892L134.391 25.0703H133.598L133.317 24.9301L133.084 24.6491L132.805 24.2748V23.7604L132.712 23.3862L132.431 22.3104L132.291 21.9361L132.057 20.9073L131.918 20.4869L131.778 17.5399L131.918 14.6398L132.057 11.6936V7.90488L132.291 7.62458L132.571 7.53063H133.224L133.598 7.62458L133.737 7.90488V8.41927V8.41927Z" fill="#BE05FF"/>
<path fill-rule="evenodd" clip-rule="evenodd" d="M133.084 10.6178L136.21 14.9201L142.556 22.4513L142.416 22.3104L142.277 17.633L141.622 14.0322L140.596 9.07461L140.876 8.04502L141.903 7.53063L142.789 7.76473L143.442 8.79353L144.376 18.5687V22.2172L144.095 23.7604L143.442 24.9301L142.93 25.0703L141.11 24.1347L134.764 16.7444L131.545 11.5534L131.404 10.758L132.15 10.2435H132.571L133.084 10.6178V10.6178ZM81.1052 32.0855L90.7171 31.5711H93.1432L93.6571 32.1803L93.7969 32.7416L93.5634 33.4893L93.1432 33.7689L87.4507 34.1439L80.7318 33.7689L80.3124 33.2552V32.7416L80.7318 32.1803L81.1052 32.0855V32.0855Z" fill="#BE05FF"/>
<path fill-rule="evenodd" clip-rule="evenodd" d="M90.9507 30.4943L93.5634 37.9323L94.5897 42.3294V44.5263L93.6571 46.2105L91.977 47.3802L89.6439 47.9416H85.7713L80.8256 47.0052L78.6323 46.2105L78.1191 45.3218L78.3988 44.293L79.0525 43.7786H79.7985L85.398 45.6961L88.991 46.2105L91.0905 45.9764L92.1168 45.0407L92.4902 43.7786L91.977 39.8506L90.2969 34.0027L89.2706 30.7762L89.7845 30.1216H90.7171L90.9507 30.4943V30.4943ZM96.6432 31.6648L96.9228 37.1376L97.4367 42.468L98.2303 43.8718L99.9096 44.9468H100.796L101.822 44.1521L102.383 42.1885L101.822 38.6808L100.796 33.4891V32.18L101.075 31.4307L101.822 31.1504L102.616 31.4307L102.895 31.6648L102.988 35.5929L104.062 41.5339L103.642 44.8082L102.754 46.6325L101.73 47.3802L100.656 47.5211L98.7427 47.0052L96.2698 45.3218L95.2427 43.4975L94.8232 40.3642L95.1029 31.2898L95.4762 30.7762H96.1292L96.6432 31.2898V31.6648V31.6648Z" fill="#BE05FF"/>
<path fill-rule="evenodd" clip-rule="evenodd" d="M116.613 34.2837L115.073 33.7685H111.807L109.474 35.0792L106.909 37.7921L105.975 39.7558L105.881 40.9255L106.395 42.6088L107.561 43.7786L109.381 44.5263L111.947 44.9467L114.047 44.6672L116.613 43.7786L119.973 41.9543H120.393L121.139 42.702V43.124L120.393 44.0127L116.986 45.9763L113.906 46.7718L111.807 47.0051L108.307 46.4915L105.881 45.1808L104.436 43.6384L103.781 42.0952L103.642 40.5051L104.061 38.3057L105.46 35.686L107.933 32.8345L111.154 31.2897L114.28 31.4307L116.893 32.0852L117.92 32.7413L118.06 33.3481L117.78 34.0026L117.127 34.4247L116.613 34.2837V34.2837Z" fill="#BE05FF"/>
<path fill-rule="evenodd" clip-rule="evenodd" d="M111.294 38.9605L111.807 38.8211H112.226L112.6 38.681H113.113L113.627 38.5871H114.047L114.561 38.4469H114.933L115.446 38.306L115.819 38.1666H116.893L117.267 38.0265H118.806L119.225 38.1666L119.599 38.4469L119.74 38.681L119.878 39.1014L119.599 39.8507L119.225 40.1302L118.806 40.2712H115.446L115.073 40.3643H113.627L113.253 40.5053H111.061L110.78 40.3643L110.547 40.1302V39.4757L110.64 39.1946L110.921 39.1014L111.294 38.9605V38.9605Z" fill="#BE05FF"/>
<path fill-rule="evenodd" clip-rule="evenodd" d="M119.879 39.7557L119.973 43.4974V44.6672L120.112 44.9467V46.2104L119.879 46.6324L119.459 46.8649H118.713L118.294 46.7717L118.06 46.3505L117.92 45.9763V45.0406L117.78 44.8081V43.6384L117.639 39.7557L117.78 39.1944L118.294 38.6807H119.086L119.459 38.9603L119.74 39.1944L119.879 39.7557V39.7557ZM123.893 32.973L123.752 36.2473L124.266 41.2997L124.639 43.8717L124.546 45.696L123.893 46.3505H123.099L122.446 45.696L121.653 38.1663L121.932 34.4246L122.446 32.3193L122.959 31.9458L123.612 32.0852L123.986 32.6003L123.893 32.973Z" fill="#BE05FF"/>
<path fill-rule="evenodd" clip-rule="evenodd" d="M122.585 31.9458H124.126L124.638 31.8049H125.152L125.712 31.6647H126.739L127.252 31.5708H127.764L128.278 31.4306L128.652 31.2897H129.212L129.725 31.1503H130.098L130.611 31.0102H131.123L131.637 31.2897L131.918 31.6647L132.057 32.0852V32.4594L131.778 32.973L131.544 33.2549L130.984 33.3481L130.47 33.489H130.098L129.584 33.6292H126.878L126.317 33.7685H124.638L124.126 33.6292H122.213L121.932 33.3481L121.792 33.114V32.4594L121.932 32.1799L122.213 32.0852L122.585 31.9458V31.9458ZM122.725 36.9966L122.959 37.1376H123.239L123.473 37.2769H125.805L126.317 37.1376H127.905L128.278 36.9966H128.558L129.212 37.1376L129.817 37.7921L129.958 38.3057L129.817 38.8209L129.584 39.1944L129.212 39.4754L128.558 39.6164H126.317L125.946 39.4754H124.919L124.545 39.3353H123.985L123.612 39.1944L123.099 39.1012H122.818L122.446 38.9603H122.072L121.792 38.8209L121.56 38.4467L121.279 38.1664V37.7921L121.419 37.4171L121.932 36.8557H122.306L122.725 36.9966V36.9966ZM124.638 44.9467L125.432 45.3217H126.599L130.751 44.8081L132.571 45.0407L133.598 45.4627L133.737 45.9763L133.598 46.8649L132.943 47.6596L125.432 47.146L123.612 46.6324L122.959 46.1172L122.818 45.3217L123.239 44.6672L123.985 44.5263L124.638 44.9467V44.9467ZM136.724 31.2897V33.114L136.583 35.0792V36.9966L136.443 39.1012L136.304 41.0186V44.8081L136.443 46.6324L136.304 47.0051L136.21 47.2869L135.79 47.521L135.557 47.6596H135.137L134.763 47.3801L134.484 47.146L134.391 46.6324L134.251 44.9467V43.124L134.391 41.1596L134.484 39.1012L134.763 37.1376L134.904 35.0792V33.114L135.044 31.2897V30.917L135.277 30.6352L135.79 30.4011L136.21 30.4942L136.443 30.6352L136.724 30.917V31.2897V31.2897Z" fill="#BE05FF"/>
<path fill-rule="evenodd" clip-rule="evenodd" d="M135.79 31.9459L138.544 35.4535L142.556 41.2998L146.289 45.6961L146.568 46.6325L146.055 47.1461L145.262 47.3802L144.469 46.865L139.57 40.9256L135.277 34.0027L134.251 32.8345V32.18L134.763 31.6648H135.416L135.79 31.9459V31.9459Z" fill="#BE05FF"/>
<path fill-rule="evenodd" clip-rule="evenodd" d="M144.983 31.4307L144.888 33.255V35.1725L145.122 37.1377L145.262 39.1013L145.636 40.9256L146.055 42.6089L146.43 44.1521L146.801 45.6029L146.942 45.837V46.1173L146.801 46.3506V46.6325L146.568 46.865L146.289 47.0052L146.148 47.1461H145.915L145.636 47.287L145.402 47.1461H145.122L144.983 47.0052L144.749 46.865V46.6325L144.609 46.4916L144.095 44.9468L143.723 43.2635L143.208 39.3354V37.4172L143.069 35.3134L143.208 33.255L143.302 31.2898L143.442 30.9171L143.582 30.6353L143.956 30.4943L144.235 30.4012L144.609 30.4943L144.749 30.7762L144.983 31.0103V31.4307V31.4307ZM153.055 31.2898L152.774 32.8346L152.635 34.6588V40.7846L152.774 42.843L152.914 44.6673L153.055 46.3506L152.914 46.865L152.635 47.287L152.402 47.5211L151.981 47.6597L151.468 47.5211L151.094 47.3802L150.815 47.0052L150.722 46.6325L150.582 44.8082V38.5869L150.815 34.4247L151.094 32.6005L151.375 31.0103L151.468 30.6353L151.747 30.4012L151.981 30.261H152.261L152.635 30.4012L152.914 30.6353L153.055 30.9171V31.2898V31.2898Z" fill="#BE05FF"/>
<path fill-rule="evenodd" clip-rule="evenodd" d="M149.415 31.4307L153.941 31.6648L157.581 32.6004L160.147 33.9095L162.106 35.686L163.039 37.5103L163.273 39.1944V40.9255L162.62 42.843L161.453 44.4332L159.54 45.837L156.554 46.865L153.055 47.5211L149.555 47.6597L148.388 47.1461L148.109 46.2105L148.388 45.1809L148.903 44.8082L155.901 44.4332L158.234 43.6385L160.054 42.3294L160.566 41.0187L160.8 39.1944L159.913 36.7626L158.093 34.9383L155.621 33.9095L152.121 33.114L149.041 32.9731L148.481 32.18L148.762 31.6648L149.415 31.4307V31.4307ZM158.234 10.8978L156.04 10.3834L153.428 10.5236L151.094 11.7865L149.274 14.032L148.109 16.4638L147.595 18.9426L148.388 21.1412L149.415 22.0768L151.747 22.8245L154.081 23.1048L156.414 22.8245L160.054 21.2813L161.874 20.1124L162.62 20.3927L163.039 21.0472L162.899 21.7957L159.773 23.9003L156.274 25.07L153.708 25.3033L150.582 24.7889L148.388 23.9003L146.708 22.5912L145.915 21.0472L145.403 18.5684L145.775 15.9494L146.708 13.4706L148.903 10.2433L150.582 8.93341L152.774 7.90461L155.901 8.04476L158.093 8.70008L159.54 9.35464L159.773 10.1031L159.121 11.038H158.746L158.234 10.8978V10.8978Z" fill="#BE05FF"/>
<path fill-rule="evenodd" clip-rule="evenodd" d="M153.148 17.1183H153.708L154.081 16.9782H154.594L154.968 16.8842H155.48L155.901 16.7441H156.414L156.788 16.6039H157.3L157.72 16.4638H158.746L159.26 16.3699H160.707L161.219 16.4638L161.453 16.6039L161.733 16.9782V17.7737L161.453 18.1471L161.219 18.4282H159.633L159.26 18.5684H156.554L156.04 18.7085H154.734L154.22 18.8025H152.914L152.635 18.7085L152.402 18.4282V17.7737L152.541 17.5396L152.774 17.2593L153.148 17.1183V17.1183Z" fill="#BE05FF"/>
<path fill-rule="evenodd" clip-rule="evenodd" d="M161.733 18.0541L161.874 21.7958V22.9655L161.967 23.2458V24.5557L161.733 24.9299L161.314 25.164H160.566L160.288 25.0701L159.913 24.6488L159.773 24.1344V23.3859L159.633 23.1049V21.9359L159.54 18.0541L159.633 17.5396L160.147 16.9783L160.707 16.8843L161.08 16.9783L161.314 17.1184L161.593 17.5396L161.733 18.0541V18.0541Z" fill="#BE05FF"/>
</g>
</svg>
