<svg width="190" height="50" viewBox="0 0 190 50" fill="none" xmlns="http://www.w3.org/2000/svg">
<mask id="mask0_1_43" style="mask-type:alpha" maskUnits="userSpaceOnUse" x="0" y="0" width="190" height="50">
<rect width="190" height="50" fill="#D9D9D9"/>
</mask>
<g mask="url(#mask0_1_43)">
<path fill-rule="evenodd" clip-rule="evenodd" d="M108.249 19.6775C113.652 18.8101 117.487 16.381 117.487 12.9102C117.487 7.7045 111.211 5.96963 102.322 5.96963C97.44 5.96963 93.9546 5.96962 90.8173 6.14289V31.8249H97.7892V9.43938C98.6617 9.26611 100.057 9.2661 101.276 9.2661C107.202 9.2661 110.168 10.4812 110.168 13.2568C110.168 15.8591 107.203 17.595 99.5341 17.595L111.213 31.8249H119.231L108.249 19.6775V19.6775ZM126.376 31.8249V5.96855H147.992L146.247 9.61373H133.349V16.0334H140.148V20.1984H133.349V28.0075H149.211V31.8249H126.376V31.8249ZM37.3031 5.96855V31.8249H26.6695L9.06389 12.216H7.49522V31.8249H0.697306V5.96855H11.505L28.9355 25.5774H30.3301V5.96855H37.3031V5.96855ZM161.063 5.96855H152.698L166.294 18.1159L170.304 14.4718L161.063 5.96855V5.96855ZM189.652 31.8249L176.229 19.6775L172.046 23.3216L181.459 31.8249H189.652V31.8249ZM189.652 5.96855H181.459L172.046 14.4718L176.229 18.1159L189.652 5.96855ZM152.698 31.8249H161.063L170.304 23.3216L166.294 19.6775L152.698 31.8249V31.8249ZM52.9909 18.8101C52.9909 14.2985 56.3023 9.78592 64.3207 9.78592C72.5133 9.78592 75.8257 14.2975 75.8257 18.8101C75.8257 23.496 72.6884 28.1808 64.3207 28.1808C56.1282 28.1808 52.9909 23.496 52.9909 18.8101V18.8101ZM44.4502 18.8101C44.4502 26.7925 51.4222 32.1714 64.3218 32.1714C77.2214 32.1714 84.1934 26.6192 84.1934 18.8101C84.1934 11.1743 77.0463 5.62201 64.3218 5.62201C51.4222 5.62201 44.4502 11.001 44.4502 18.8101ZM6.10061 42.2363H4.00869L4.88006 40.8491C5.22817 40.3282 5.40331 39.9805 5.75142 39.4596C5.75142 39.9805 5.75142 40.3282 5.92547 40.6747L6.10061 42.2363V42.2363ZM8.88983 44.8397L7.49522 37.5515H5.05519L0 44.8397H2.26597L3.13733 43.6246H6.44872L6.62278 44.8397H8.88983ZM33.4674 44.8397H28.5874L30.3301 37.5504H32.422L31.0274 43.4514H33.8166L33.4674 44.8397V44.8397ZM58.2201 44.8397H53.339L55.0828 37.5504H57.1747L55.7801 43.4514H58.5682L58.2201 44.8397V44.8397ZM80.1836 44.8397H77.9177L79.8355 37.5504H81.9263L80.1836 44.8397ZM105.808 42.2363H103.715L104.587 40.8491C104.935 40.3282 105.11 39.9805 105.46 39.4596C105.46 39.9805 105.46 40.3282 105.633 40.6747L105.808 42.2363ZM108.597 44.8397L107.201 37.5515H104.76L99.7071 44.8397H101.973L102.843 43.6246H106.156L106.329 44.8397H108.597ZM135.965 44.8397H133.349L131.955 41.7165L131.432 40.1549C131.259 40.6747 131.259 41.1967 131.084 41.8898L130.386 44.8397H128.12L130.037 37.5515H132.478L133.872 40.5014C134.22 41.0213 134.393 41.7165 134.569 42.2363C134.744 41.7165 134.917 41.0212 135.092 40.3282L135.613 37.5515H137.706L135.965 44.8397V44.8397ZM163.853 39.2853C163.329 39.112 162.807 39.112 162.284 39.112C160.018 39.112 159.322 40.848 159.322 42.062C159.322 42.9294 159.67 43.4503 161.063 43.4503C161.761 43.4503 162.284 43.277 162.807 43.277L162.632 44.8386C162.111 44.8386 161.239 45.0119 160.366 45.0119C157.404 45.0119 156.704 43.6236 156.704 42.4085C156.704 39.9795 158.623 37.5493 162.458 37.5493C163.155 37.5493 163.852 37.5493 164.375 37.7226L163.853 39.2853V39.2853ZM189.652 38.9388H186.513L186.165 40.5004H189.128L188.779 41.8887H185.817L185.293 43.4514H188.431L188.083 44.8397H182.853L184.597 37.5504H190L189.652 38.9388V38.9388Z" fill="#BE05FF"/>
</g>
</svg>
