<svg width="190" height="50" viewBox="0 0 190 50" fill="none" xmlns="http://www.w3.org/2000/svg">
<g clip-path="url(#clip0_0_9)">
<mask id="mask0_0_9" style="mask-type:alpha" maskUnits="userSpaceOnUse" x="0" y="0" width="190" height="50">
<path d="M190 0H0V50H190V0Z" fill="#D9D9D9"/>
</mask>
<g mask="url(#mask0_0_9)">
<path fill-rule="evenodd" clip-rule="evenodd" d="M30.8991 40.8544C32.068 40.3345 33.4309 40.8544 33.9499 41.9594C34.4688 43.0644 33.9499 44.4313 32.7809 44.9503C31.678 45.4703 30.3141 44.9503 29.7951 43.7803C29.3422 42.7414 29.8611 41.3744 30.8991 40.8544ZM30.1851 43.0004C30.3801 42.8694 30.6401 43.0633 30.7701 43.3893C30.8991 43.7803 30.8991 44.0403 30.7051 44.1053C30.5751 44.1703 30.3801 44.0403 30.1851 43.6493C30.0551 43.3264 30.1211 43.0644 30.1851 43.0004ZM24.3435 43.8453C25.4464 43.3254 26.7453 43.8453 27.2643 45.0153C27.7833 46.1202 27.2643 47.4192 26.2264 47.9412C25.0574 48.4611 23.6945 47.9412 23.1756 46.9002C23.0512 46.623 22.9828 46.324 22.9743 46.0203C22.9657 45.7166 23.0171 45.4142 23.1256 45.1304C23.2341 44.8466 23.3975 44.587 23.6065 44.3665C23.8155 44.146 24.0659 43.9689 24.3435 43.8453ZM23.6295 45.9902C23.7595 45.9273 24.0185 46.1212 24.0845 46.3812C24.2785 46.7722 24.2785 47.0322 24.0845 47.0972C23.9545 47.1602 23.6945 47.0322 23.6295 46.6412C23.4345 46.3812 23.4345 46.0552 23.6295 45.9902ZM9.47842 36.3676C10.7113 36.3676 11.7503 37.4086 11.7503 38.5795C11.7503 39.8155 10.7113 40.8544 9.47842 40.8544C8.2455 40.8544 7.27156 39.8155 7.27156 38.5795C7.27156 37.4096 8.24449 36.3676 9.47842 36.3676ZM7.98551 37.9946C8.11551 37.9946 8.24449 38.2546 8.24449 38.5795C8.24449 38.9685 8.11551 39.2305 7.98551 39.2305C7.79052 39.2305 7.66053 38.9685 7.66053 38.5795C7.66053 38.2546 7.78951 37.9946 7.98551 37.9946ZM2.20787 36.3676C3.44079 36.3676 4.47973 37.4086 4.47973 38.5795C4.47973 39.8155 3.44079 40.8544 2.20787 40.8544C0.973942 40.8544 0 39.8155 0 38.5795C0 37.4096 0.973942 36.3676 2.20787 36.3676ZM0.714969 37.9946C0.844964 37.9946 0.974958 38.2546 0.974958 38.5795C0.974958 38.9685 0.844964 39.2305 0.714969 39.2305C0.520993 39.2305 0.390999 38.9685 0.390999 38.5795C0.389983 38.2546 0.519978 37.9946 0.714969 37.9946ZM10.8413 8.9327L16.879 1H33.9509C46.4791 1 41.0914 15.0435 27.3293 21.2202C27.7833 27.136 29.0172 32.0768 32.7169 38.3845L21.5516 44.1053C18.5658 36.6296 17.4629 23.9511 17.6569 19.2693C19.8638 17.8383 26.4203 15.1734 29.2112 11.1426C30.4441 9.64666 29.2762 8.93169 24.9264 8.93169H10.8413V8.9327ZM0.584975 35.5226L12.1403 9.51768H21.6827L16.23 21.0902C14.0881 26.097 13.3742 29.6079 11.9463 35.5226H0.584975ZM163.453 36.2386L175.656 8.54272H182.602L170.399 36.2386H163.453ZM153.261 36.2386L165.596 8.54272H172.411L160.143 36.2386H153.261ZM147.874 21.3502C141.512 22.6502 142.096 30.7779 145.926 30.9728L150.211 21.3502H147.874ZM136.837 24.4701C140.213 17.3184 145.278 15.8234 148.977 15.8234H159.234L150.08 36.2386H143.264C135.02 36.2386 135.28 28.8259 136.837 24.4701ZM107.693 36.2386L117.106 15.7584H123.921L117.56 30.1919H121.973C128.466 30.1919 125.089 24.3401 121.648 21.9992C125.415 19.5283 133.983 15.1724 127.361 15.1724H115.678L119.962 8.54069H132.296C137.423 8.54069 140.408 10.4256 138.137 15.1724C136.189 19.8532 133.074 20.8282 131.905 21.3492C133.073 22.7141 135.669 24.7951 133.399 29.6069C130.608 35.5216 124.441 36.2376 121.453 36.2376H107.693V36.2386ZM93.6711 36.2386L102.824 15.7594H109.056L108.731 16.6694C110.548 15.7594 112.367 15.1745 113.924 15.1745L111.198 21.2212C109.639 21.2212 108.082 21.6112 106.199 23.3011L100.293 36.2396H93.6711V36.2386ZM83.8047 26.097C85.1026 25.966 91.7232 22.6502 90.0363 21.2202C88.0235 20.5053 84.3877 21.3502 83.8047 26.097ZM77.8321 23.3001C80.5579 17.5144 84.4527 15.3684 91.0093 15.3684C93.3461 15.3684 100.033 15.3684 97.4998 20.8292C94.709 26.55 87.8285 29.6069 86.0756 30.1919C86.5295 30.7768 87.3735 30.7768 88.6724 30.7768H92.0482L87.8285 36.2376H82.5058C77.1182 36.2386 74.7813 29.6079 77.8321 23.3001ZM62.5771 36.2386L74.8463 8.54272H81.6619L69.3936 36.2386H62.5771ZM52.1267 36.2386L64.525 8.54272H71.4055L59.0073 36.2386H52.1267ZM186.172 11.7276H186.821C187.47 11.7276 187.924 11.1426 187.924 10.6876C187.924 10.6226 187.924 10.6226 187.666 10.4276H186.432L186.172 11.7276ZM186.172 11.9236L185.912 13.4185H185.329L185.978 9.90766H187.406C187.666 9.90766 188.055 9.90766 188.12 10.1027C188.249 10.2326 188.509 10.4276 188.509 10.6886C188.509 11.0786 188.249 11.2736 188.12 11.7286C187.924 11.7936 187.469 11.9236 187.211 11.9236L188.054 13.4185H187.405L186.82 11.9236H186.172ZM184.29 11.7926C184.29 11.9876 184.096 12.2476 184.096 12.3776C184.096 12.5725 184.29 13.0925 184.679 13.2875C184.81 13.6775 185.07 13.6775 185.264 14.0675C185.458 14.2625 185.913 14.3925 186.173 14.3925C186.562 14.3925 186.953 14.2625 187.47 13.9375C187.924 13.6775 188.121 13.6775 188.509 13.2875C188.703 13.0925 188.898 12.5725 189.158 12.3776C189.223 11.9226 189.352 11.7276 189.352 11.1426C189.352 10.9476 189.223 10.4266 189.158 10.1016C188.898 9.84165 188.704 9.64665 188.509 9.58166C188.12 9.25667 187.666 9.12668 187.406 9.12668C186.821 9.12668 186.432 9.25667 186.172 9.64666C185.458 9.84165 185.263 10.1016 185.069 10.4266C184.81 10.9476 184.615 11.1436 184.29 11.7926ZM186.172 14.7185C185.783 14.7185 185.329 14.5885 185.069 14.5235C184.615 14.3945 184.095 13.9385 184.03 13.6785C183.767 13.2971 183.631 12.8421 183.641 12.3786C183.641 11.9886 183.77 11.9236 183.77 11.7936C183.914 11.4142 184.023 11.0227 184.095 10.6236C184.615 10.2337 184.809 9.84368 185.132 9.64869C185.328 9.2587 185.912 8.9977 186.171 8.93372C186.56 8.80372 186.951 8.54374 187.468 8.54374C187.922 8.54374 188.119 8.80372 188.507 8.93372C188.701 8.9977 188.896 9.12871 189.221 9.25871C189.415 9.64869 189.61 9.84368 189.806 10.1037C189.806 10.4287 190 10.6897 190 11.0786C190 11.7286 189.806 11.9886 189.609 12.3786C189.415 13.0285 189.22 13.2885 188.7 13.6785C188.506 13.9385 188.117 14.3945 187.466 14.5235C187.081 14.5885 186.561 14.7185 186.172 14.7185Z" fill="#BE05FF"/>
<path fill-rule="evenodd" clip-rule="evenodd" d="M42.1295 14.5886C48.4261 14.0686 53.8787 18.8144 54.3337 24.9922C54.9177 31.104 50.049 36.6298 43.8184 37.2147C37.8468 37.4747 32.3931 32.9219 31.8091 26.6822C31.2241 20.7004 36.0278 15.1746 42.1295 14.5886ZM35.5079 21.2204C33.885 21.2204 32.717 23.9513 33.171 26.6822C33.171 29.542 34.6639 31.8179 36.1568 31.8179C37.9747 31.689 39.1426 29.087 38.8837 26.0972C38.6247 23.3003 36.9368 20.8304 35.5079 21.2204ZM36.4818 22.6503C35.1839 22.7153 34.5349 24.4702 34.5989 26.6822C34.8579 28.6971 35.8318 30.193 36.8058 29.997C38.0397 29.997 38.8837 28.2411 38.6237 26.1612C38.4297 24.1462 37.1958 22.6503 36.4818 22.6503ZM36.4818 24.2102C35.8329 24.2102 35.6379 25.3152 35.8329 26.5511C35.8329 27.4611 36.4818 28.4371 36.8058 28.6971C37.5857 28.4371 37.8447 27.4611 37.8447 26.3562C37.8457 24.9922 37.0018 24.2102 36.4818 24.2102Z" fill="#BE05FF"/>
</g>
</g>
<defs>
<clipPath id="clip0_0_9">
<rect width="190" height="50" fill="white"/>
</clipPath>
</defs>
</svg>
